<?xml version="1.0" encoding="utf-8"?>
<svg version="1.1" xmlns:xlink="http://www.w3.org/1999/xlink" width="47px" height="47px" xmlns="http://www.w3.org/2000/svg">
  <g transform="matrix(1 0 0 1 -19 -710 )">
    <path d="M 42.5 710  C 55.66 710  66 720.34  66 733.5  C 66 746.66  55.66 757  42.5 757  C 29.34 757  19 746.66  19 733.5  C 19 720.34  29.34 710  42.5 710  Z " fill-rule="nonzero" fill="#ffffff" stroke="none" />
    <path d="M 42.5 710.5  C 55.38 710.5  65.5 720.62  65.5 733.5  C 65.5 746.38  55.38 756.5  42.5 756.5  C 29.62 756.5  19.5 746.38  19.5 733.5  C 19.5 720.62  29.62 710.5  42.5 710.5  Z " stroke-width="1" stroke="#797979" fill="none" />
  </g>
</svg>