<?xml version="1.0" encoding="utf-8"?>
<svg version="1.1" xmlns:xlink="http://www.w3.org/1999/xlink" width="20px" height="20px" xmlns="http://www.w3.org/2000/svg">
  <g transform="matrix(1 0 0 1 -1131 -379 )">
    <path d="M 1141 379  C 1146.6 379  1151 383.4  1151 389  C 1151 394.6  1146.6 399  1141 399  C 1135.4 399  1131 394.6  1131 389  C 1131 383.4  1135.4 379  1141 379  Z " fill-rule="nonzero" fill="#ffffff" stroke="none" />
    <path d="M 1141 379.5  C 1146.32 379.5  1150.5 383.68  1150.5 389  C 1150.5 394.32  1146.32 398.5  1141 398.5  C 1135.68 398.5  1131.5 394.32  1131.5 389  C 1131.5 383.68  1135.68 379.5  1141 379.5  Z " stroke-width="1" stroke="#797979" fill="none" />
  </g>
</svg>