<?xml version="1.0" encoding="utf-8"?>
<svg version="1.1" xmlns:xlink="http://www.w3.org/1999/xlink" width="12px" height="12px" viewBox="711 384  12 12" xmlns="http://www.w3.org/2000/svg">
  <path d="M 717 384  C 720.36 384  723 386.64  723 390  C 723 393.36  720.36 396  717 396  C 713.64 396  711 393.36  711 390  C 711 386.64  713.64 384  717 384  Z " fill-rule="nonzero" fill="#ffffff" stroke="none" />
  <path d="M 717 384.5  C 720.08 384.5  722.5 386.92  722.5 390  C 722.5 393.08  720.08 395.5  717 395.5  C 713.92 395.5  711.5 393.08  711.5 390  C 711.5 386.92  713.92 384.5  717 384.5  Z " stroke-width="1" stroke="#797979" fill="none" />
  <path d="M 717 393  C 715.32 393  714 391.68  714 390  C 714 388.32  715.32 387  717 387  C 718.68 387  720 388.32  720 390  C 720 391.68  718.68 393  717 393  " fill-rule="nonzero" fill="#797979" stroke="none" />
</svg>