<?xml version="1.0" encoding="utf-8"?>
<svg version="1.1" xmlns:xlink="http://www.w3.org/1999/xlink" width="190px" height="144px" xmlns="http://www.w3.org/2000/svg">
  <g transform="matrix(1 0 0 1 -617 -1409 )">
    <path d="M 617 1409  L 807 1409  L 807 1553  L 617 1553  L 617 1409  " fill-rule="nonzero" fill="#cccccc" stroke="none" />
    <path d="M 627 1419  L 797 1419  L 797 1543  L 627 1543  L 627 1419  " fill-rule="nonzero" fill="#ffffff" stroke="none" />
    <path d="M 726.6 1452.2  C 720.552 1452.2  715.8 1447.448  715.8 1441.4  C 715.8 1435.352  720.552 1430.6  726.6 1430.6  C 732.648 1430.6  737.4 1435.352  737.4 1441.4  C 737.4 1447.448  732.648 1452.2  726.6 1452.2  " fill-rule="nonzero" fill="#cccccc" stroke="none" />
    <path d="M 631 1540  L 631 1475.65  L 671.75 1446.4  L 728.8 1486.79578947368  L 761.4 1463.95  L 794 1486.79578947368  L 794 1540  L 631 1540  " fill-rule="nonzero" fill="#169bd5" stroke="none" />
  </g>
</svg>