<?xml version="1.0" encoding="utf-8"?>
<svg version="1.1" xmlns:xlink="http://www.w3.org/1999/xlink" width="24px" height="26px" xmlns="http://www.w3.org/2000/svg">
  <g transform="matrix(1 0 0 1 -932 -1127 )">
    <path d="M 20.3076923076923 3.71428571428572  L 22.1538461538462 3.71428571428572  C 22.6538461538462 3.71428571428572  23.0865384615385 3.89806547619047  23.4519230769231 4.265625  C 23.8173076923077 4.63318452380952  24 5.06845238095238  24 5.57142857142857  L 24 24.1428571428571  C 24 24.6458333333333  23.8173076923077 25.0811011904762  23.4519230769231 25.4486607142857  C 23.0865384615385 25.8162202380952  22.6538461538462 26  22.1538461538462 26  L 1.84615384615385 26  C 1.34615384615385 26  0.913461538461539 25.8162202380952  0.548076923076923 25.4486607142857  C 0.182692307692308 25.0811011904762  0 24.6458333333333  0 24.1428571428571  L 0 5.57142857142857  C 0 5.06845238095238  0.182692307692308 4.63318452380952  0.548076923076923 4.265625  C 0.913461538461539 3.89806547619047  1.34615384615385 3.71428571428572  1.84615384615385 3.71428571428572  L 3.69230769230769 3.71428571428572  L 3.69230769230769 2.32142857142857  C 3.69230769230769 1.68303571428572  3.91826923076923 1.13653273809524  4.37019230769231 0.681919642857144  C 4.82211538461539 0.227306547619048  5.36538461538462 0  6 0  L 6.92307692307692 0  C 7.55769230769231 0  8.10096153846154 0.227306547619048  8.55288461538462 0.681919642857144  C 9.00480769230769 1.13653273809524  9.23076923076923 1.68303571428572  9.23076923076923 2.32142857142857  L 9.23076923076923 3.71428571428572  L 14.7692307692308 3.71428571428572  L 14.7692307692308 2.32142857142857  C 14.7692307692308 1.68303571428572  14.9951923076923 1.13653273809524  15.4471153846154 0.681919642857144  C 15.8990384615385 0.227306547619048  16.4423076923077 0  17.0769230769231 0  L 18 0  C 18.6346153846154 0  19.1778846153846 0.227306547619048  19.6298076923077 0.681919642857144  C 20.0817307692308 1.13653273809524  20.3076923076923 1.68303571428572  20.3076923076923 2.32142857142857  L 20.3076923076923 3.71428571428572  Z M 16.7451923076923 1.98772321428572  C 16.6586538461538 2.07477678571428  16.6153846153846 2.1860119047619  16.6153846153846 2.32142857142857  L 16.6153846153846 6.5  C 16.6153846153846 6.63541666666666  16.6586538461538 6.74665178571428  16.7451923076923 6.83370535714286  C 16.8317307692308 6.92075892857143  16.9423076923077 6.96428571428572  17.0769230769231 6.96428571428572  L 18 6.96428571428572  C 18.1346153846154 6.96428571428572  18.2451923076923 6.92075892857143  18.3317307692308 6.83370535714286  C 18.4182692307692 6.74665178571428  18.4615384615385 6.63541666666666  18.4615384615385 6.5  L 18.4615384615385 2.32142857142857  C 18.4615384615385 2.1860119047619  18.4182692307692 2.07477678571428  18.3317307692308 1.98772321428572  C 18.2451923076923 1.90066964285714  18.1346153846154 1.85714285714286  18 1.85714285714286  L 17.0769230769231 1.85714285714286  C 16.9423076923077 1.85714285714286  16.8317307692308 1.90066964285714  16.7451923076923 1.98772321428572  Z M 5.66826923076923 1.98772321428572  C 5.58173076923077 2.07477678571428  5.53846153846154 2.1860119047619  5.53846153846154 2.32142857142857  L 5.53846153846154 6.5  C 5.53846153846154 6.63541666666666  5.58173076923077 6.74665178571428  5.66826923076923 6.83370535714286  C 5.75480769230769 6.92075892857143  5.86538461538462 6.96428571428572  6 6.96428571428572  L 6.92307692307692 6.96428571428572  C 7.05769230769231 6.96428571428572  7.16826923076923 6.92075892857143  7.25480769230769 6.83370535714286  C 7.34134615384615 6.74665178571428  7.38461538461539 6.63541666666666  7.38461538461539 6.5  L 7.38461538461539 2.32142857142857  C 7.38461538461539 2.1860119047619  7.34134615384615 2.07477678571428  7.25480769230769 1.98772321428572  C 7.16826923076923 1.90066964285714  7.05769230769231 1.85714285714286  6.92307692307692 1.85714285714286  L 6 1.85714285714286  C 5.86538461538462 1.85714285714286  5.75480769230769 1.90066964285714  5.66826923076923 1.98772321428572  Z M 2 24  L 22 24  L 22 9.28571428571428  L 2 9.28571428571428  L 2 24  Z M 12.9230769230769 12.5357142857143  L 12.9230769230769 15.7857142857143  L 16.1538461538462 15.7857142857143  C 16.2884615384615 15.7857142857143  16.3990384615385 15.8292410714286  16.4855769230769 15.9162946428571  C 16.5721153846154 16.0033482142857  16.6153846153846 16.1145833333333  16.6153846153846 16.25  L 16.6153846153846 17.1785714285714  C 16.6153846153846 17.3139880952381  16.5721153846154 17.4252232142857  16.4855769230769 17.5122767857143  C 16.3990384615385 17.5993303571429  16.2884615384615 17.6428571428571  16.1538461538462 17.6428571428571  L 12.9230769230769 17.6428571428571  L 12.9230769230769 20.8928571428571  C 12.9230769230769 21.0282738095238  12.8798076923077 21.1395089285714  12.7932692307692 21.2265625  C 12.7067307692308 21.3136160714286  12.5961538461538 21.3571428571429  12.4615384615385 21.3571428571429  L 11.5384615384615 21.3571428571429  C 11.4038461538462 21.3571428571429  11.2932692307692 21.3136160714286  11.2067307692308 21.2265625  C 11.1201923076923 21.1395089285714  11.0769230769231 21.0282738095238  11.0769230769231 20.8928571428571  L 11.0769230769231 17.6428571428571  L 7.84615384615385 17.6428571428571  C 7.71153846153846 17.6428571428571  7.60096153846154 17.5993303571429  7.51442307692308 17.5122767857143  C 7.42788461538462 17.4252232142857  7.38461538461539 17.3139880952381  7.38461538461539 17.1785714285714  L 7.38461538461539 16.25  C 7.38461538461539 16.1145833333333  7.42788461538462 16.0033482142857  7.51442307692308 15.9162946428571  C 7.60096153846154 15.8292410714286  7.71153846153846 15.7857142857143  7.84615384615385 15.7857142857143  L 11.0769230769231 15.7857142857143  L 11.0769230769231 12.5357142857143  C 11.0769230769231 12.4002976190476  11.1201923076923 12.2890625  11.2067307692308 12.2020089285714  C 11.2932692307692 12.1149553571429  11.4038461538462 12.0714285714286  11.5384615384615 12.0714285714286  L 12.4615384615385 12.0714285714286  C 12.5961538461538 12.0714285714286  12.7067307692308 12.1149553571429  12.7932692307692 12.2020089285714  C 12.8798076923077 12.2890625  12.9230769230769 12.4002976190476  12.9230769230769 12.5357142857143  Z " fill-rule="nonzero" fill="#333333" stroke="none" transform="matrix(1 0 0 1 932 1127 )" />
  </g>
</svg>