<?xml version="1.0" encoding="utf-8"?>
<svg version="1.1" xmlns:xlink="http://www.w3.org/1999/xlink" width="171px" height="117px" xmlns="http://www.w3.org/2000/svg">
  <g transform="matrix(1 0 0 1 -400 -1737 )">
    <path d="M 400 1737  L 571 1737  L 571 1854  L 400 1854  L 400 1737  " fill-rule="nonzero" fill="#cccccc" stroke="none" />
    <path d="M 408 1745  L 563 1745  L 563 1846  L 408 1846  L 408 1745  " fill-rule="nonzero" fill="#ffffff" stroke="none" />
    <path d="M 497.695 1772.1  C 492.781 1772.1  488.92 1768.239  488.92 1763.325  C 488.92 1758.411  492.781 1754.55  497.695 1754.55  C 502.609 1754.55  506.47 1758.411  506.47 1763.325  C 506.47 1768.239  502.609 1772.1  497.695 1772.1  " fill-rule="nonzero" fill="#cccccc" stroke="none" />
    <path d="M 411 1843  L 411 1790.75  L 448.25 1767  L 500.4 1804  L 530.2 1781.25  L 560 1804  L 560 1843  L 411 1843  " fill-rule="nonzero" fill="#169bd5" stroke="none" />
  </g>
</svg>