<?xml version="1.0" encoding="utf-8"?>
<svg version="1.1" xmlns:xlink="http://www.w3.org/1999/xlink" width="178px" height="123px" xmlns="http://www.w3.org/2000/svg">
  <g transform="matrix(1 0 0 1 -400 -1568 )">
    <path d="M 400 1568  L 578 1568  L 578 1691  L 400 1691  L 400 1568  " fill-rule="nonzero" fill="#cccccc" stroke="none" />
    <path d="M 409 1577  L 569 1577  L 569 1682  L 409 1682  L 409 1577  " fill-rule="nonzero" fill="#ffffff" stroke="none" />
    <path d="M 501.785 1604.9  C 496.619 1604.9  492.56 1600.841  492.56 1595.675  C 492.56 1590.509  496.619 1586.45  501.785 1586.45  C 506.951 1586.45  511.01 1590.509  511.01 1595.675  C 511.01 1600.841  506.951 1604.9  501.785 1604.9  " fill-rule="nonzero" fill="#cccccc" stroke="none" />
    <path d="M 412 1679  L 412 1624.55  L 450.5 1599.8  L 504.4 1637.95393258427  L 535.2 1614.65  L 566 1637.95393258427  L 566 1679  L 412 1679  " fill-rule="nonzero" fill="#169bd5" stroke="none" />
  </g>
</svg>