<?xml version="1.0" encoding="utf-8"?>
<svg version="1.1" xmlns:xlink="http://www.w3.org/1999/xlink" width="24px" height="14px" xmlns="http://www.w3.org/2000/svg">
  <defs>
    <mask fill="white" id="clip9">
      <path d="M 0 14  L 0 0  L 24 0  L 24 8.08256880733944  L 24 14  L 13.6605504587156 14  L 0 14  Z " fill-rule="evenodd" />
    </mask>
  </defs>
  <g transform="matrix(1 0 0 1 -79 -274 )">
    <path d="M 0 14  L 0 0  L 24 0  L 24 8.08256880733944  L 24 14  L 13.6605504587156 14  L 0 14  Z " fill-rule="nonzero" fill="#ffffff" stroke="none" fill-opacity="0" transform="matrix(1 0 0 1 79 274 )" />
    <path d="M 0 14  L 0 0  L 24 0  L 24 8.08256880733944  L 24 14  L 13.6605504587156 14  L 0 14  Z " stroke-width="2" stroke="#797979" fill="none" transform="matrix(1 0 0 1 79 274 )" mask="url(#clip9)" />
  </g>
</svg>