<?xml version="1.0" encoding="utf-8"?>
<svg version="1.1" xmlns:xlink="http://www.w3.org/1999/xlink" width="12px" height="12px" viewBox="523 175  12 12" xmlns="http://www.w3.org/2000/svg">
  <path d="M 529 175  C 532.36 175  535 177.64  535 181  C 535 184.36  532.36 187  529 187  C 525.64 187  523 184.36  523 181  C 523 177.64  525.64 175  529 175  Z " fill-rule="nonzero" fill="#ffffff" stroke="none" />
  <path d="M 529 175.5  C 532.08 175.5  534.5 177.92  534.5 181  C 534.5 184.08  532.08 186.5  529 186.5  C 525.92 186.5  523.5 184.08  523.5 181  C 523.5 177.92  525.92 175.5  529 175.5  Z " stroke-width="1" stroke="#797979" fill="none" />
  <path d="M 529 184  C 527.32 184  526 182.68  526 181  C 526 179.32  527.32 178  529 178  C 530.68 178  532 179.32  532 181  C 532 182.68  530.68 184  529 184  " fill-rule="nonzero" fill="#797979" stroke="none" />
</svg>