<?xml version="1.0" encoding="utf-8"?>
<svg version="1.1" xmlns:xlink="http://www.w3.org/1999/xlink" width="18px" height="18px" xmlns="http://www.w3.org/2000/svg">
  <defs>
    <mask fill="white" id="clip4">
      <path d="M 13.2421874999999 12.1875  C 13.390625 12.0390625  13.46484375 11.859375  13.46484375 11.6484375  C 13.46484375 11.4453125  13.390625 11.26953125  13.2421874999999 11.12109375  L 11.12109375 9  L 13.2421874999999 6.87890625000003  C 13.390625 6.73046874999996  13.46484375 6.55468749999996  13.46484375 6.35156250000003  C 13.46484375 6.14062500000003  13.390625 5.96093749999995  13.2421874999999 5.81249999999997  L 12.1874999999999 4.75781249999997  C 12.0390625 4.60937499999999  11.8593750000001 4.53515625  11.6484375000001 4.53515625  C 11.4453125 4.53515625  11.26953125 4.60937499999999  11.12109375 4.75781249999997  L 9 6.87890625000003  L 6.87890624999996 4.75781249999997  C 6.73046875000001 4.60937499999999  6.55468750000001 4.53515625  6.35156249999996 4.53515625  C 6.14062499999996 4.53515625  5.96093749999999 4.60937499999999  5.81250000000004 4.75781249999997  L 4.75781250000004 5.81249999999997  C 4.60937500000004 5.96093749999995  4.53515625 6.14062500000003  4.53515625 6.35156250000003  C 4.53515625 6.55468749999996  4.60937500000004 6.73046874999996  4.75781250000004 6.87890625000003  L 6.87890624999996 9  L 4.75781250000004 11.12109375  C 4.60937500000004 11.26953125  4.53515625 11.4453125  4.53515625 11.6484375  C 4.53515625 11.859375  4.60937500000004 12.0390625  4.75781250000004 12.1875  L 5.81250000000004 13.2421875  C 5.96093749999999 13.390625  6.14062499999996 13.46484375  6.35156249999996 13.46484375  C 6.55468750000001 13.46484375  6.73046875000001 13.390625  6.87890624999996 13.2421875  L 9 11.12109375  L 11.12109375 13.2421875  C 11.26953125 13.390625  11.4453125 13.46484375  11.6484375000001 13.46484375  C 11.8593750000001 13.46484375  12.0390625 13.390625  12.1874999999999 13.2421875  L 13.2421874999999 12.1875  Z M 16.7929687499999 4.482421875  C 17.59765625 5.86132812499998  18 7.36718749999995  18 9  C 18 10.6328125  17.59765625 12.138671875  16.7929687499999 13.517578125  C 15.98828125 14.896484375  14.896484375 15.98828125  13.517578125 16.79296875  C 12.138671875 17.59765625  10.6328125 18  9 18  C 7.36718749999999 18  5.861328125 17.59765625  4.482421875 16.79296875  C 3.103515625 15.98828125  2.01171875 14.896484375  1.20703125000004 13.517578125  C 0.402343750000005 12.138671875  0 10.6328125  0 9  C 0 7.36718749999995  0.402343750000005 5.86132812499998  1.20703125000004 4.482421875  C 2.01171875 3.10351562500002  3.103515625 2.01171874999998  4.482421875 1.20703124999997  C 5.861328125 0.402343749999959  7.36718749999999 0  9 0  C 10.6328125 0  12.138671875 0.402343749999959  13.517578125 1.20703124999997  C 14.896484375 2.01171874999998  15.98828125 3.10351562500002  16.7929687499999 4.482421875  Z " fill-rule="evenodd" />
    </mask>
  </defs>
  <g transform="matrix(1 0 0 1 -281 -17 )">
    <path d="M 13.2421874999999 12.1875  C 13.390625 12.0390625  13.46484375 11.859375  13.46484375 11.6484375  C 13.46484375 11.4453125  13.390625 11.26953125  13.2421874999999 11.12109375  L 11.12109375 9  L 13.2421874999999 6.87890625000003  C 13.390625 6.73046874999996  13.46484375 6.55468749999996  13.46484375 6.35156250000003  C 13.46484375 6.14062500000003  13.390625 5.96093749999995  13.2421874999999 5.81249999999997  L 12.1874999999999 4.75781249999997  C 12.0390625 4.60937499999999  11.8593750000001 4.53515625  11.6484375000001 4.53515625  C 11.4453125 4.53515625  11.26953125 4.60937499999999  11.12109375 4.75781249999997  L 9 6.87890625000003  L 6.87890624999996 4.75781249999997  C 6.73046875000001 4.60937499999999  6.55468750000001 4.53515625  6.35156249999996 4.53515625  C 6.14062499999996 4.53515625  5.96093749999999 4.60937499999999  5.81250000000004 4.75781249999997  L 4.75781250000004 5.81249999999997  C 4.60937500000004 5.96093749999995  4.53515625 6.14062500000003  4.53515625 6.35156250000003  C 4.53515625 6.55468749999996  4.60937500000004 6.73046874999996  4.75781250000004 6.87890625000003  L 6.87890624999996 9  L 4.75781250000004 11.12109375  C 4.60937500000004 11.26953125  4.53515625 11.4453125  4.53515625 11.6484375  C 4.53515625 11.859375  4.60937500000004 12.0390625  4.75781250000004 12.1875  L 5.81250000000004 13.2421875  C 5.96093749999999 13.390625  6.14062499999996 13.46484375  6.35156249999996 13.46484375  C 6.55468750000001 13.46484375  6.73046875000001 13.390625  6.87890624999996 13.2421875  L 9 11.12109375  L 11.12109375 13.2421875  C 11.26953125 13.390625  11.4453125 13.46484375  11.6484375000001 13.46484375  C 11.8593750000001 13.46484375  12.0390625 13.390625  12.1874999999999 13.2421875  L 13.2421874999999 12.1875  Z M 16.7929687499999 4.482421875  C 17.59765625 5.86132812499998  18 7.36718749999995  18 9  C 18 10.6328125  17.59765625 12.138671875  16.7929687499999 13.517578125  C 15.98828125 14.896484375  14.896484375 15.98828125  13.517578125 16.79296875  C 12.138671875 17.59765625  10.6328125 18  9 18  C 7.36718749999999 18  5.861328125 17.59765625  4.482421875 16.79296875  C 3.103515625 15.98828125  2.01171875 14.896484375  1.20703125000004 13.517578125  C 0.402343750000005 12.138671875  0 10.6328125  0 9  C 0 7.36718749999995  0.402343750000005 5.86132812499998  1.20703125000004 4.482421875  C 2.01171875 3.10351562500002  3.103515625 2.01171874999998  4.482421875 1.20703124999997  C 5.861328125 0.402343749999959  7.36718749999999 0  9 0  C 10.6328125 0  12.138671875 0.402343749999959  13.517578125 1.20703124999997  C 14.896484375 2.01171874999998  15.98828125 3.10351562500002  16.7929687499999 4.482421875  Z " fill-rule="nonzero" fill="#ffffff" stroke="none" transform="matrix(1 0 0 1 281 17 )" />
    <path d="M 13.2421874999999 12.1875  C 13.390625 12.0390625  13.46484375 11.859375  13.46484375 11.6484375  C 13.46484375 11.4453125  13.390625 11.26953125  13.2421874999999 11.12109375  L 11.12109375 9  L 13.2421874999999 6.87890625000003  C 13.390625 6.73046874999996  13.46484375 6.55468749999996  13.46484375 6.35156250000003  C 13.46484375 6.14062500000003  13.390625 5.96093749999995  13.2421874999999 5.81249999999997  L 12.1874999999999 4.75781249999997  C 12.0390625 4.60937499999999  11.8593750000001 4.53515625  11.6484375000001 4.53515625  C 11.4453125 4.53515625  11.26953125 4.60937499999999  11.12109375 4.75781249999997  L 9 6.87890625000003  L 6.87890624999996 4.75781249999997  C 6.73046875000001 4.60937499999999  6.55468750000001 4.53515625  6.35156249999996 4.53515625  C 6.14062499999996 4.53515625  5.96093749999999 4.60937499999999  5.81250000000004 4.75781249999997  L 4.75781250000004 5.81249999999997  C 4.60937500000004 5.96093749999995  4.53515625 6.14062500000003  4.53515625 6.35156250000003  C 4.53515625 6.55468749999996  4.60937500000004 6.73046874999996  4.75781250000004 6.87890625000003  L 6.87890624999996 9  L 4.75781250000004 11.12109375  C 4.60937500000004 11.26953125  4.53515625 11.4453125  4.53515625 11.6484375  C 4.53515625 11.859375  4.60937500000004 12.0390625  4.75781250000004 12.1875  L 5.81250000000004 13.2421875  C 5.96093749999999 13.390625  6.14062499999996 13.46484375  6.35156249999996 13.46484375  C 6.55468750000001 13.46484375  6.73046875000001 13.390625  6.87890624999996 13.2421875  L 9 11.12109375  L 11.12109375 13.2421875  C 11.26953125 13.390625  11.4453125 13.46484375  11.6484375000001 13.46484375  C 11.8593750000001 13.46484375  12.0390625 13.390625  12.1874999999999 13.2421875  L 13.2421874999999 12.1875  Z " stroke-width="2" stroke="#797979" fill="none" transform="matrix(1 0 0 1 281 17 )" mask="url(#clip4)" />
    <path d="M 16.7929687499999 4.482421875  C 17.59765625 5.86132812499998  18 7.36718749999995  18 9  C 18 10.6328125  17.59765625 12.138671875  16.7929687499999 13.517578125  C 15.98828125 14.896484375  14.896484375 15.98828125  13.517578125 16.79296875  C 12.138671875 17.59765625  10.6328125 18  9 18  C 7.36718749999999 18  5.861328125 17.59765625  4.482421875 16.79296875  C 3.103515625 15.98828125  2.01171875 14.896484375  1.20703125000004 13.517578125  C 0.402343750000005 12.138671875  0 10.6328125  0 9  C 0 7.36718749999995  0.402343750000005 5.86132812499998  1.20703125000004 4.482421875  C 2.01171875 3.10351562500002  3.103515625 2.01171874999998  4.482421875 1.20703124999997  C 5.861328125 0.402343749999959  7.36718749999999 0  9 0  C 10.6328125 0  12.138671875 0.402343749999959  13.517578125 1.20703124999997  C 14.896484375 2.01171874999998  15.98828125 3.10351562500002  16.7929687499999 4.482421875  Z " stroke-width="2" stroke="#797979" fill="none" transform="matrix(1 0 0 1 281 17 )" mask="url(#clip4)" />
  </g>
</svg>