<?xml version="1.0" encoding="utf-8"?>
<svg version="1.1" xmlns:xlink="http://www.w3.org/1999/xlink" width="14px" height="14px" xmlns="http://www.w3.org/2000/svg">
  <defs>
    <mask fill="white" id="clip5">
      <path d="M 5.00142045454546 11.5846354166668  C 5.06107954545454 11.5299479166668  5.09090909090908 11.4600694444444  5.09090909090908 11.375  L 5.09090909090908 4.95833333333324  C 5.09090909090908 4.87326388888887  5.06107954545454 4.80338541666676  5.00142045454546 4.74869791666676  C 4.94176136363637 4.69401041666676  4.86553030303031 4.66666666666676  4.77272727272729 4.66666666666676  L 4.13636363636363 4.66666666666676  C 4.0435606060606 4.66666666666676  3.96732954545454 4.69401041666676  3.90767045454546 4.74869791666676  C 3.84801136363637 4.80338541666676  3.81818181818183 4.87326388888887  3.81818181818183 4.95833333333324  L 3.81818181818183 11.375  C 3.81818181818183 11.4600694444444  3.84801136363637 11.5299479166668  3.90767045454546 11.5846354166668  C 3.96732954545454 11.6393229166668  4.0435606060606 11.6666666666668  4.13636363636363 11.6666666666668  L 4.77272727272729 11.6666666666668  C 4.86553030303031 11.6666666666668  4.94176136363637 11.6393229166668  5.00142045454546 11.5846354166668  Z M 7.546875 11.5846354166668  C 7.60653409090908 11.5299479166668  7.63636363636363 11.4600694444444  7.63636363636363 11.375  L 7.63636363636363 4.95833333333324  C 7.63636363636363 4.87326388888887  7.60653409090908 4.80338541666676  7.546875 4.74869791666676  C 7.48721590909092 4.69401041666676  7.41098484848485 4.66666666666676  7.31818181818183 4.66666666666676  L 6.68181818181817 4.66666666666676  C 6.58901515151515 4.66666666666676  6.51278409090908 4.69401041666676  6.453125 4.74869791666676  C 6.39346590909092 4.80338541666676  6.36363636363637 4.87326388888887  6.36363636363637 4.95833333333324  L 6.36363636363637 11.375  C 6.36363636363637 11.4600694444444  6.39346590909092 11.5299479166668  6.453125 11.5846354166668  C 6.51278409090908 11.6393229166668  6.58901515151515 11.6666666666668  6.68181818181817 11.6666666666668  L 7.31818181818183 11.6666666666668  C 7.41098484848485 11.6666666666668  7.48721590909092 11.6393229166668  7.546875 11.5846354166668  Z M 10.0923295454546 11.5846354166668  C 10.1519886363636 11.5299479166668  10.1818181818182 11.4600694444444  10.1818181818182 11.375  L 10.1818181818182 4.95833333333324  C 10.1818181818182 4.87326388888887  10.1519886363636 4.80338541666676  10.0923295454546 4.74869791666676  C 10.0326704545454 4.69401041666676  9.9564393939394 4.66666666666676  9.86363636363639 4.66666666666676  L 9.22727272727275 4.66666666666676  C 9.13446969696969 4.66666666666676  9.05823863636361 4.69401041666676  8.99857954545456 4.74869791666676  C 8.93892045454544 4.80338541666676  8.90909090909092 4.87326388888887  8.90909090909092 4.95833333333324  L 8.90909090909092 11.375  C 8.90909090909092 11.4600694444444  8.93892045454544 11.5299479166668  8.99857954545456 11.5846354166668  C 9.05823863636361 11.6393229166668  9.13446969696969 11.6666666666668  9.22727272727275 11.6666666666668  L 9.86363636363639 11.6666666666668  C 9.9564393939394 11.6666666666668  10.0326704545454 11.6393229166668  10.0923295454546 11.5846354166668  Z M 5.25994318181817 1.26692708333324  L 4.77272727272729 2.33333333333324  L 9.22727272727275 2.33333333333324  L 8.75 1.26692708333324  C 8.70359848484848 1.21223958333324  8.64725378787879 1.17881944444436  8.58096590909092 1.16666666666676  L 5.42897727272729 1.16666666666676  C 5.3626893939394 1.17881944444436  5.30634469696969 1.21223958333324  5.25994318181817 1.26692708333324  Z M 13.9105113636364 2.41536458333324  C 13.9701704545454 2.47005208333324  14 2.53993055555564  14 2.625  L 14 3.20833333333324  C 14 3.29340277777775  13.9701704545454 3.36328125  13.9105113636364 3.41796875  C 13.8508522727273 3.47265625  13.7746212121212 3.5  13.6818181818182 3.5  L 12.7272727272727 3.5  L 12.7272727272727 12.140625  C 12.7272727272727 12.6449652777777  12.5714962121212 13.0809461805556  12.2599431818182 13.4485677083332  C 11.9483901515151 13.8161892361111  11.5738636363636 14  11.1363636363636 14  L 2.86363636363637 14  C 2.42613636363637 14  2.05160984848485 13.822265625  1.74005681818183 13.466796875  C 1.42850378787881 13.111328125  1.27272727272729 12.6814236111111  1.27272727272729 12.1770833333332  L 1.27272727272729 3.5  L 0.318181818181832 3.5  C 0.22537878787881 3.5  0.14914772727271 3.47265625  0.089488636363626 3.41796875  C 0.029829545454542 3.36328125  0 3.29340277777775  0 3.20833333333324  L 0 2.625  C 0 2.53993055555564  0.029829545454542 2.47005208333324  0.089488636363626 2.41536458333324  C 0.14914772727271 2.36067708333324  0.22537878787881 2.33333333333324  0.318181818181832 2.33333333333324  L 3.390625 2.33333333333324  L 4.08664772727271 0.811197916666763  C 4.18607954545454 0.586371527777746  4.36505681818183 0.394965277777746  4.62357954545454 0.236979166666763  C 4.88210227272729 0.0789930555556359  5.1439393939394 0  5.40909090909092 0  L 8.59090909090908 0  C 8.8560606060606 0  9.11789772727275 0.0789930555556359  9.37642045454544 0.236979166666763  C 9.63494318181817 0.394965277777746  9.81392045454544 0.586371527777746  9.91335227272725 0.811197916666763  L 10.609375 2.33333333333324  L 13.6818181818182 2.33333333333324  C 13.7746212121212 2.33333333333324  13.8508522727273 2.36067708333324  13.9105113636364 2.41536458333324  Z " fill-rule="evenodd" />
    </mask>
  </defs>
  <g transform="matrix(1 0 0 1 -346 -127 )">
    <path d="M 5.00142045454546 11.5846354166668  C 5.06107954545454 11.5299479166668  5.09090909090908 11.4600694444444  5.09090909090908 11.375  L 5.09090909090908 4.95833333333324  C 5.09090909090908 4.87326388888887  5.06107954545454 4.80338541666676  5.00142045454546 4.74869791666676  C 4.94176136363637 4.69401041666676  4.86553030303031 4.66666666666676  4.77272727272729 4.66666666666676  L 4.13636363636363 4.66666666666676  C 4.0435606060606 4.66666666666676  3.96732954545454 4.69401041666676  3.90767045454546 4.74869791666676  C 3.84801136363637 4.80338541666676  3.81818181818183 4.87326388888887  3.81818181818183 4.95833333333324  L 3.81818181818183 11.375  C 3.81818181818183 11.4600694444444  3.84801136363637 11.5299479166668  3.90767045454546 11.5846354166668  C 3.96732954545454 11.6393229166668  4.0435606060606 11.6666666666668  4.13636363636363 11.6666666666668  L 4.77272727272729 11.6666666666668  C 4.86553030303031 11.6666666666668  4.94176136363637 11.6393229166668  5.00142045454546 11.5846354166668  Z M 7.546875 11.5846354166668  C 7.60653409090908 11.5299479166668  7.63636363636363 11.4600694444444  7.63636363636363 11.375  L 7.63636363636363 4.95833333333324  C 7.63636363636363 4.87326388888887  7.60653409090908 4.80338541666676  7.546875 4.74869791666676  C 7.48721590909092 4.69401041666676  7.41098484848485 4.66666666666676  7.31818181818183 4.66666666666676  L 6.68181818181817 4.66666666666676  C 6.58901515151515 4.66666666666676  6.51278409090908 4.69401041666676  6.453125 4.74869791666676  C 6.39346590909092 4.80338541666676  6.36363636363637 4.87326388888887  6.36363636363637 4.95833333333324  L 6.36363636363637 11.375  C 6.36363636363637 11.4600694444444  6.39346590909092 11.5299479166668  6.453125 11.5846354166668  C 6.51278409090908 11.6393229166668  6.58901515151515 11.6666666666668  6.68181818181817 11.6666666666668  L 7.31818181818183 11.6666666666668  C 7.41098484848485 11.6666666666668  7.48721590909092 11.6393229166668  7.546875 11.5846354166668  Z M 10.0923295454546 11.5846354166668  C 10.1519886363636 11.5299479166668  10.1818181818182 11.4600694444444  10.1818181818182 11.375  L 10.1818181818182 4.95833333333324  C 10.1818181818182 4.87326388888887  10.1519886363636 4.80338541666676  10.0923295454546 4.74869791666676  C 10.0326704545454 4.69401041666676  9.9564393939394 4.66666666666676  9.86363636363639 4.66666666666676  L 9.22727272727275 4.66666666666676  C 9.13446969696969 4.66666666666676  9.05823863636361 4.69401041666676  8.99857954545456 4.74869791666676  C 8.93892045454544 4.80338541666676  8.90909090909092 4.87326388888887  8.90909090909092 4.95833333333324  L 8.90909090909092 11.375  C 8.90909090909092 11.4600694444444  8.93892045454544 11.5299479166668  8.99857954545456 11.5846354166668  C 9.05823863636361 11.6393229166668  9.13446969696969 11.6666666666668  9.22727272727275 11.6666666666668  L 9.86363636363639 11.6666666666668  C 9.9564393939394 11.6666666666668  10.0326704545454 11.6393229166668  10.0923295454546 11.5846354166668  Z M 5.25994318181817 1.26692708333324  L 4.77272727272729 2.33333333333324  L 9.22727272727275 2.33333333333324  L 8.75 1.26692708333324  C 8.70359848484848 1.21223958333324  8.64725378787879 1.17881944444436  8.58096590909092 1.16666666666676  L 5.42897727272729 1.16666666666676  C 5.3626893939394 1.17881944444436  5.30634469696969 1.21223958333324  5.25994318181817 1.26692708333324  Z M 13.9105113636364 2.41536458333324  C 13.9701704545454 2.47005208333324  14 2.53993055555564  14 2.625  L 14 3.20833333333324  C 14 3.29340277777775  13.9701704545454 3.36328125  13.9105113636364 3.41796875  C 13.8508522727273 3.47265625  13.7746212121212 3.5  13.6818181818182 3.5  L 12.7272727272727 3.5  L 12.7272727272727 12.140625  C 12.7272727272727 12.6449652777777  12.5714962121212 13.0809461805556  12.2599431818182 13.4485677083332  C 11.9483901515151 13.8161892361111  11.5738636363636 14  11.1363636363636 14  L 2.86363636363637 14  C 2.42613636363637 14  2.05160984848485 13.822265625  1.74005681818183 13.466796875  C 1.42850378787881 13.111328125  1.27272727272729 12.6814236111111  1.27272727272729 12.1770833333332  L 1.27272727272729 3.5  L 0.318181818181832 3.5  C 0.22537878787881 3.5  0.14914772727271 3.47265625  0.089488636363626 3.41796875  C 0.029829545454542 3.36328125  0 3.29340277777775  0 3.20833333333324  L 0 2.625  C 0 2.53993055555564  0.029829545454542 2.47005208333324  0.089488636363626 2.41536458333324  C 0.14914772727271 2.36067708333324  0.22537878787881 2.33333333333324  0.318181818181832 2.33333333333324  L 3.390625 2.33333333333324  L 4.08664772727271 0.811197916666763  C 4.18607954545454 0.586371527777746  4.36505681818183 0.394965277777746  4.62357954545454 0.236979166666763  C 4.88210227272729 0.0789930555556359  5.1439393939394 0  5.40909090909092 0  L 8.59090909090908 0  C 8.8560606060606 0  9.11789772727275 0.0789930555556359  9.37642045454544 0.236979166666763  C 9.63494318181817 0.394965277777746  9.81392045454544 0.586371527777746  9.91335227272725 0.811197916666763  L 10.609375 2.33333333333324  L 13.6818181818182 2.33333333333324  C 13.7746212121212 2.33333333333324  13.8508522727273 2.36067708333324  13.9105113636364 2.41536458333324  Z " fill-rule="nonzero" fill="#ffffff" stroke="none" transform="matrix(1 0 0 1 346 127 )" />
    <path d="M 5.00142045454546 11.5846354166668  C 5.06107954545454 11.5299479166668  5.09090909090908 11.4600694444444  5.09090909090908 11.375  L 5.09090909090908 4.95833333333324  C 5.09090909090908 4.87326388888887  5.06107954545454 4.80338541666676  5.00142045454546 4.74869791666676  C 4.94176136363637 4.69401041666676  4.86553030303031 4.66666666666676  4.77272727272729 4.66666666666676  L 4.13636363636363 4.66666666666676  C 4.0435606060606 4.66666666666676  3.96732954545454 4.69401041666676  3.90767045454546 4.74869791666676  C 3.84801136363637 4.80338541666676  3.81818181818183 4.87326388888887  3.81818181818183 4.95833333333324  L 3.81818181818183 11.375  C 3.81818181818183 11.4600694444444  3.84801136363637 11.5299479166668  3.90767045454546 11.5846354166668  C 3.96732954545454 11.6393229166668  4.0435606060606 11.6666666666668  4.13636363636363 11.6666666666668  L 4.77272727272729 11.6666666666668  C 4.86553030303031 11.6666666666668  4.94176136363637 11.6393229166668  5.00142045454546 11.5846354166668  Z " stroke-width="2" stroke="#797979" fill="none" transform="matrix(1 0 0 1 346 127 )" mask="url(#clip5)" />
    <path d="M 7.546875 11.5846354166668  C 7.60653409090908 11.5299479166668  7.63636363636363 11.4600694444444  7.63636363636363 11.375  L 7.63636363636363 4.95833333333324  C 7.63636363636363 4.87326388888887  7.60653409090908 4.80338541666676  7.546875 4.74869791666676  C 7.48721590909092 4.69401041666676  7.41098484848485 4.66666666666676  7.31818181818183 4.66666666666676  L 6.68181818181817 4.66666666666676  C 6.58901515151515 4.66666666666676  6.51278409090908 4.69401041666676  6.453125 4.74869791666676  C 6.39346590909092 4.80338541666676  6.36363636363637 4.87326388888887  6.36363636363637 4.95833333333324  L 6.36363636363637 11.375  C 6.36363636363637 11.4600694444444  6.39346590909092 11.5299479166668  6.453125 11.5846354166668  C 6.51278409090908 11.6393229166668  6.58901515151515 11.6666666666668  6.68181818181817 11.6666666666668  L 7.31818181818183 11.6666666666668  C 7.41098484848485 11.6666666666668  7.48721590909092 11.6393229166668  7.546875 11.5846354166668  Z " stroke-width="2" stroke="#797979" fill="none" transform="matrix(1 0 0 1 346 127 )" mask="url(#clip5)" />
    <path d="M 10.0923295454546 11.5846354166668  C 10.1519886363636 11.5299479166668  10.1818181818182 11.4600694444444  10.1818181818182 11.375  L 10.1818181818182 4.95833333333324  C 10.1818181818182 4.87326388888887  10.1519886363636 4.80338541666676  10.0923295454546 4.74869791666676  C 10.0326704545454 4.69401041666676  9.9564393939394 4.66666666666676  9.86363636363639 4.66666666666676  L 9.22727272727275 4.66666666666676  C 9.13446969696969 4.66666666666676  9.05823863636361 4.69401041666676  8.99857954545456 4.74869791666676  C 8.93892045454544 4.80338541666676  8.90909090909092 4.87326388888887  8.90909090909092 4.95833333333324  L 8.90909090909092 11.375  C 8.90909090909092 11.4600694444444  8.93892045454544 11.5299479166668  8.99857954545456 11.5846354166668  C 9.05823863636361 11.6393229166668  9.13446969696969 11.6666666666668  9.22727272727275 11.6666666666668  L 9.86363636363639 11.6666666666668  C 9.9564393939394 11.6666666666668  10.0326704545454 11.6393229166668  10.0923295454546 11.5846354166668  Z " stroke-width="2" stroke="#797979" fill="none" transform="matrix(1 0 0 1 346 127 )" mask="url(#clip5)" />
    <path d="M 5.25994318181817 1.26692708333324  L 4.77272727272729 2.33333333333324  L 9.22727272727275 2.33333333333324  L 8.75 1.26692708333324  C 8.70359848484848 1.21223958333324  8.64725378787879 1.17881944444436  8.58096590909092 1.16666666666676  L 5.42897727272729 1.16666666666676  C 5.3626893939394 1.17881944444436  5.30634469696969 1.21223958333324  5.25994318181817 1.26692708333324  Z " stroke-width="2" stroke="#797979" fill="none" transform="matrix(1 0 0 1 346 127 )" mask="url(#clip5)" />
    <path d="M 13.9105113636364 2.41536458333324  C 13.9701704545454 2.47005208333324  14 2.53993055555564  14 2.625  L 14 3.20833333333324  C 14 3.29340277777775  13.9701704545454 3.36328125  13.9105113636364 3.41796875  C 13.8508522727273 3.47265625  13.7746212121212 3.5  13.6818181818182 3.5  L 12.7272727272727 3.5  L 12.7272727272727 12.140625  C 12.7272727272727 12.6449652777777  12.5714962121212 13.0809461805556  12.2599431818182 13.4485677083332  C 11.9483901515151 13.8161892361111  11.5738636363636 14  11.1363636363636 14  L 2.86363636363637 14  C 2.42613636363637 14  2.05160984848485 13.822265625  1.74005681818183 13.466796875  C 1.42850378787881 13.111328125  1.27272727272729 12.6814236111111  1.27272727272729 12.1770833333332  L 1.27272727272729 3.5  L 0.318181818181832 3.5  C 0.22537878787881 3.5  0.14914772727271 3.47265625  0.089488636363626 3.41796875  C 0.029829545454542 3.36328125  0 3.29340277777775  0 3.20833333333324  L 0 2.625  C 0 2.53993055555564  0.029829545454542 2.47005208333324  0.089488636363626 2.41536458333324  C 0.14914772727271 2.36067708333324  0.22537878787881 2.33333333333324  0.318181818181832 2.33333333333324  L 3.390625 2.33333333333324  L 4.08664772727271 0.811197916666763  C 4.18607954545454 0.586371527777746  4.36505681818183 0.394965277777746  4.62357954545454 0.236979166666763  C 4.88210227272729 0.0789930555556359  5.1439393939394 0  5.40909090909092 0  L 8.59090909090908 0  C 8.8560606060606 0  9.11789772727275 0.0789930555556359  9.37642045454544 0.236979166666763  C 9.63494318181817 0.394965277777746  9.81392045454544 0.586371527777746  9.91335227272725 0.811197916666763  L 10.609375 2.33333333333324  L 13.6818181818182 2.33333333333324  C 13.7746212121212 2.33333333333324  13.8508522727273 2.36067708333324  13.9105113636364 2.41536458333324  Z " stroke-width="2" stroke="#797979" fill="none" transform="matrix(1 0 0 1 346 127 )" mask="url(#clip5)" />
  </g>
</svg>