<?xml version="1.0" encoding="utf-8"?>
<svg version="1.1" xmlns:xlink="http://www.w3.org/1999/xlink" width="15px" height="12px" xmlns="http://www.w3.org/2000/svg">
  <defs>
    <mask fill="white" id="clip6">
      <path d="M 12.8497587870434 6.85580670303974  C 12.8559614059269 6.86827747466881  12.8590627153687 6.88698363211218  12.8590627153687 6.91192517537017  L 12.8590627153687 11.4014029618082  C 12.8590627153687 11.5635229929852  12.8001378359752 11.7038191738114  12.6822880771882 11.8222915042867  C 12.5644383184011 11.9407638347623  12.4248793935217 12  12.26361130255 12  L 8.6909028256375 12  L 8.6909028256375 8.40841777084961  L 6.3090971743625 8.40841777084961  L 6.3090971743625 12  L 2.73638869745004 12  C 2.57512060647827 12  2.4355616815989 11.9407638347623  2.31771192281183 11.8222915042867  C 2.19986216402479 11.7038191738114  2.1409372846313 11.5635229929852  2.1409372846313 11.4014029618082  L 2.1409372846313 6.91192517537017  C 2.1409372846313 6.90568978955571  2.14248793935218 6.89633671083402  2.14558924879395 6.88386593920495  C 2.14869055823568 6.87139516757603  2.15024121295655 6.8620420888542  2.15024121295655 6.85580670303974  L 7.5 2.42244738893214  L 12.8497587870434 6.85580670303974  Z M 14.9989662301861 6.04676539360874  C 15.0051688490696 6.13094310210439  14.9834596829773 6.20420888542488  14.933838731909 6.26656274356977  L 14.3569951757409 6.95869056897891  C 14.3073742246727 7.01480904130949  14.2422467263956 7.04910366328916  14.1616126809097 7.06157443491823  L 14.1337008959338 7.06157443491823  C 14.053066850448 7.06157443491823  13.9879393521709 7.03975058456748  13.9383184011027 6.99610288386596  L 7.5 1.59937646141861  L 1.0616815988973 6.99610288386596  C 0.98725017229494 7.04598597038193  0.912818745692623 7.06780982073269  0.838387319090267 7.06157443491823  C 0.757753273604391 7.04910366328916  0.692625775327343 7.01480904130949  0.643004824259122 6.95869056897891  L 0.0661612680909747 6.26656274356977  C 0.016540317022734 6.20420888542488  -0.00516884906960255 6.13094310210439  0.00103376981392632 6.04676539360874  C 0.00723638869742613 5.9625876851131  0.0413507925568592 5.89555728760721  0.103376981392138 5.84567420109124  L 6.79290144727776 0.243180046765398  C 6.99138525155067 0.0810600155885671  7.22708476912473 0  7.5 0  C 7.77291523087527 0  8.00861474844933 0.0810600155885671  8.20709855272224 0.243180046765398  L 10.4772570640937 2.15120810600153  L 10.4772570640937 0.327357755261043  C 10.4772570640937 0.240062353858169  10.5051688490696 0.168355416991441  10.5609924190214 0.11223694466086  C 10.6168159889731 0.0561184723304298  10.6881461061337 0.0280592361652149  10.7749827705031 0.0280592361652149  L 12.5613370089594 0.0280592361652149  C 12.6481736733288 0.0280592361652149  12.7195037904893 0.0561184723304298  12.7753273604411 0.11223694466086  C 12.8311509303928 0.168355416991441  12.8590627153687 0.240062353858169  12.8590627153687 0.327357755261043  L 12.8590627153687 4.14341387373346  L 14.8966230186079 5.84567420109124  C 14.9586492074432 5.89555728760721  14.9927636113026 5.9625876851131  14.9989662301861 6.04676539360874  Z " fill-rule="evenodd" />
    </mask>
  </defs>
  <g transform="matrix(1 0 0 1 -39 -138 )">
    <path d="M 12.8497587870434 6.85580670303974  C 12.8559614059269 6.86827747466881  12.8590627153687 6.88698363211218  12.8590627153687 6.91192517537017  L 12.8590627153687 11.4014029618082  C 12.8590627153687 11.5635229929852  12.8001378359752 11.7038191738114  12.6822880771882 11.8222915042867  C 12.5644383184011 11.9407638347623  12.4248793935217 12  12.26361130255 12  L 8.6909028256375 12  L 8.6909028256375 8.40841777084961  L 6.3090971743625 8.40841777084961  L 6.3090971743625 12  L 2.73638869745004 12  C 2.57512060647827 12  2.4355616815989 11.9407638347623  2.31771192281183 11.8222915042867  C 2.19986216402479 11.7038191738114  2.1409372846313 11.5635229929852  2.1409372846313 11.4014029618082  L 2.1409372846313 6.91192517537017  C 2.1409372846313 6.90568978955571  2.14248793935218 6.89633671083402  2.14558924879395 6.88386593920495  C 2.14869055823568 6.87139516757603  2.15024121295655 6.8620420888542  2.15024121295655 6.85580670303974  L 7.5 2.42244738893214  L 12.8497587870434 6.85580670303974  Z M 14.9989662301861 6.04676539360874  C 15.0051688490696 6.13094310210439  14.9834596829773 6.20420888542488  14.933838731909 6.26656274356977  L 14.3569951757409 6.95869056897891  C 14.3073742246727 7.01480904130949  14.2422467263956 7.04910366328916  14.1616126809097 7.06157443491823  L 14.1337008959338 7.06157443491823  C 14.053066850448 7.06157443491823  13.9879393521709 7.03975058456748  13.9383184011027 6.99610288386596  L 7.5 1.59937646141861  L 1.0616815988973 6.99610288386596  C 0.98725017229494 7.04598597038193  0.912818745692623 7.06780982073269  0.838387319090267 7.06157443491823  C 0.757753273604391 7.04910366328916  0.692625775327343 7.01480904130949  0.643004824259122 6.95869056897891  L 0.0661612680909747 6.26656274356977  C 0.016540317022734 6.20420888542488  -0.00516884906960255 6.13094310210439  0.00103376981392632 6.04676539360874  C 0.00723638869742613 5.9625876851131  0.0413507925568592 5.89555728760721  0.103376981392138 5.84567420109124  L 6.79290144727776 0.243180046765398  C 6.99138525155067 0.0810600155885671  7.22708476912473 0  7.5 0  C 7.77291523087527 0  8.00861474844933 0.0810600155885671  8.20709855272224 0.243180046765398  L 10.4772570640937 2.15120810600153  L 10.4772570640937 0.327357755261043  C 10.4772570640937 0.240062353858169  10.5051688490696 0.168355416991441  10.5609924190214 0.11223694466086  C 10.6168159889731 0.0561184723304298  10.6881461061337 0.0280592361652149  10.7749827705031 0.0280592361652149  L 12.5613370089594 0.0280592361652149  C 12.6481736733288 0.0280592361652149  12.7195037904893 0.0561184723304298  12.7753273604411 0.11223694466086  C 12.8311509303928 0.168355416991441  12.8590627153687 0.240062353858169  12.8590627153687 0.327357755261043  L 12.8590627153687 4.14341387373346  L 14.8966230186079 5.84567420109124  C 14.9586492074432 5.89555728760721  14.9927636113026 5.9625876851131  14.9989662301861 6.04676539360874  Z " fill-rule="nonzero" fill="#ffffff" stroke="none" transform="matrix(1 0 0 1 39 138 )" />
    <path d="M 12.8497587870434 6.85580670303974  C 12.8559614059269 6.86827747466881  12.8590627153687 6.88698363211218  12.8590627153687 6.91192517537017  L 12.8590627153687 11.4014029618082  C 12.8590627153687 11.5635229929852  12.8001378359752 11.7038191738114  12.6822880771882 11.8222915042867  C 12.5644383184011 11.9407638347623  12.4248793935217 12  12.26361130255 12  L 8.6909028256375 12  L 8.6909028256375 8.40841777084961  L 6.3090971743625 8.40841777084961  L 6.3090971743625 12  L 2.73638869745004 12  C 2.57512060647827 12  2.4355616815989 11.9407638347623  2.31771192281183 11.8222915042867  C 2.19986216402479 11.7038191738114  2.1409372846313 11.5635229929852  2.1409372846313 11.4014029618082  L 2.1409372846313 6.91192517537017  C 2.1409372846313 6.90568978955571  2.14248793935218 6.89633671083402  2.14558924879395 6.88386593920495  C 2.14869055823568 6.87139516757603  2.15024121295655 6.8620420888542  2.15024121295655 6.85580670303974  L 7.5 2.42244738893214  L 12.8497587870434 6.85580670303974  Z " stroke-width="2" stroke="#797979" fill="none" transform="matrix(1 0 0 1 39 138 )" mask="url(#clip6)" />
    <path d="M 14.9989662301861 6.04676539360874  C 15.0051688490696 6.13094310210439  14.9834596829773 6.20420888542488  14.933838731909 6.26656274356977  L 14.3569951757409 6.95869056897891  C 14.3073742246727 7.01480904130949  14.2422467263956 7.04910366328916  14.1616126809097 7.06157443491823  L 14.1337008959338 7.06157443491823  C 14.053066850448 7.06157443491823  13.9879393521709 7.03975058456748  13.9383184011027 6.99610288386596  L 7.5 1.59937646141861  L 1.0616815988973 6.99610288386596  C 0.98725017229494 7.04598597038193  0.912818745692623 7.06780982073269  0.838387319090267 7.06157443491823  C 0.757753273604391 7.04910366328916  0.692625775327343 7.01480904130949  0.643004824259122 6.95869056897891  L 0.0661612680909747 6.26656274356977  C 0.016540317022734 6.20420888542488  -0.00516884906960255 6.13094310210439  0.00103376981392632 6.04676539360874  C 0.00723638869742613 5.9625876851131  0.0413507925568592 5.89555728760721  0.103376981392138 5.84567420109124  L 6.79290144727776 0.243180046765398  C 6.99138525155067 0.0810600155885671  7.22708476912473 0  7.5 0  C 7.77291523087527 0  8.00861474844933 0.0810600155885671  8.20709855272224 0.243180046765398  L 10.4772570640937 2.15120810600153  L 10.4772570640937 0.327357755261043  C 10.4772570640937 0.240062353858169  10.5051688490696 0.168355416991441  10.5609924190214 0.11223694466086  C 10.6168159889731 0.0561184723304298  10.6881461061337 0.0280592361652149  10.7749827705031 0.0280592361652149  L 12.5613370089594 0.0280592361652149  C 12.6481736733288 0.0280592361652149  12.7195037904893 0.0561184723304298  12.7753273604411 0.11223694466086  C 12.8311509303928 0.168355416991441  12.8590627153687 0.240062353858169  12.8590627153687 0.327357755261043  L 12.8590627153687 4.14341387373346  L 14.8966230186079 5.84567420109124  C 14.9586492074432 5.89555728760721  14.9927636113026 5.9625876851131  14.9989662301861 6.04676539360874  Z " stroke-width="2" stroke="#797979" fill="none" transform="matrix(1 0 0 1 39 138 )" mask="url(#clip6)" />
  </g>
</svg>