<?xml version="1.0" encoding="utf-8"?>
<svg version="1.1" xmlns:xlink="http://www.w3.org/1999/xlink" width="12px" height="12px" viewBox="1657 1796  12 12" xmlns="http://www.w3.org/2000/svg">
  <path d="M 1663 1796  C 1666.36 1796  1669 1798.64  1669 1802  C 1669 1805.36  1666.36 1808  1663 1808  C 1659.64 1808  1657 1805.36  1657 1802  C 1657 1798.64  1659.64 1796  1663 1796  Z " fill-rule="nonzero" fill="#ffffff" stroke="none" />
  <path d="M 1663 1796.5  C 1666.08 1796.5  1668.5 1798.92  1668.5 1802  C 1668.5 1805.08  1666.08 1807.5  1663 1807.5  C 1659.92 1807.5  1657.5 1805.08  1657.5 1802  C 1657.5 1798.92  1659.92 1796.5  1663 1796.5  Z " stroke-width="1" stroke="#797979" fill="none" />
  <path d="M 1663 1805  C 1661.32 1805  1660 1803.68  1660 1802  C 1660 1800.32  1661.32 1799  1663 1799  C 1664.68 1799  1666 1800.32  1666 1802  C 1666 1803.68  1664.68 1805  1663 1805  " fill-rule="nonzero" fill="#797979" stroke="none" />
</svg>