<?xml version="1.0" encoding="utf-8"?>
<svg version="1.1" xmlns:xlink="http://www.w3.org/1999/xlink" width="12px" height="12px" viewBox="1657 1857  12 12" xmlns="http://www.w3.org/2000/svg">
  <path d="M 1663 1857  C 1666.36 1857  1669 1859.64  1669 1863  C 1669 1866.36  1666.36 1869  1663 1869  C 1659.64 1869  1657 1866.36  1657 1863  C 1657 1859.64  1659.64 1857  1663 1857  Z " fill-rule="nonzero" fill="#ffffff" stroke="none" />
  <path d="M 1663 1857.5  C 1666.08 1857.5  1668.5 1859.92  1668.5 1863  C 1668.5 1866.08  1666.08 1868.5  1663 1868.5  C 1659.92 1868.5  1657.5 1866.08  1657.5 1863  C 1657.5 1859.92  1659.92 1857.5  1663 1857.5  Z " stroke-width="1" stroke="#797979" fill="none" />
  <path d="M 1663 1866  C 1661.32 1866  1660 1864.68  1660 1863  C 1660 1861.32  1661.32 1860  1663 1860  C 1664.68 1860  1666 1861.32  1666 1863  C 1666 1864.68  1664.68 1866  1663 1866  " fill-rule="nonzero" fill="#797979" stroke="none" />
</svg>