<?xml version="1.0" encoding="utf-8"?>
<svg version="1.1" xmlns:xlink="http://www.w3.org/1999/xlink" width="15px" height="15px" xmlns="http://www.w3.org/2000/svg">
  <g transform="matrix(1 0 0 1 -57 -368 )">
    <path d="M 64.5 371  C 67.02 371  69 372.98  69 375.5  C 69 378.02  67.02 380  64.5 380  C 61.98 380  60 378.02  60 375.5  C 60 372.98  61.98 371  64.5 371  Z " fill-rule="nonzero" fill="#0079fe" stroke="none" />
    <path d="M 64.5 370  C 67.58 370  70 372.42  70 375.5  C 70 378.58  67.58 381  64.5 381  C 61.42 381  59 378.58  59 375.5  C 59 372.42  61.42 370  64.5 370  Z " stroke-width="4" stroke="#7abaff" fill="none" />
  </g>
</svg>