<?xml version="1.0" encoding="utf-8"?>
<svg version="1.1" xmlns:xlink="http://www.w3.org/1999/xlink" width="123px" height="108px" xmlns="http://www.w3.org/2000/svg">
  <g transform="matrix(1 0 0 1 -540 -1061 )">
    <path d="M 540 1061  L 663 1061  L 663 1169  L 540 1169  L 540 1061  " fill-rule="nonzero" fill="#cccccc" stroke="none" />
    <path d="M 548 1069  L 655 1069  L 655 1161  L 548 1161  L 548 1069  " fill-rule="nonzero" fill="#ffffff" stroke="none" />
    <path d="M 612.06 1093.4  C 607.524 1093.4  603.96 1089.836  603.96 1085.3  C 603.96 1080.764  607.524 1077.2  612.06 1077.2  C 616.596 1077.2  620.16 1080.764  620.16 1085.3  C 620.16 1089.836  616.596 1093.4  612.06 1093.4  " fill-rule="nonzero" fill="#cccccc" stroke="none" />
    <path d="M 551 1159  L 551 1111.15  L 576.5 1089.4  L 612.2 1113.16585365854  L 632.6 1102.45  L 653 1113.16585365854  L 653 1159  L 551 1159  " fill-rule="nonzero" fill="#169bd5" stroke="none" />
  </g>
</svg>