<?xml version="1.0" encoding="utf-8"?>
<svg version="1.1" xmlns:xlink="http://www.w3.org/1999/xlink" width="26px" height="26px" xmlns="http://www.w3.org/2000/svg">
  <g transform="matrix(1 0 0 1 -797 -144 )">
    <path d="M 12.9967188058035 25.9807396294643  C 5.83891352455362 25.9807396294643  0.0160979464285447 20.1578943660714  0.0160979464285447 12.9999109151786  C 0.0160979464285447 5.84216500446428  5.83891349553562 0.0193197700892824  12.9967188058035 0.0193197700892824  C 20.1546725714286 0.0193197700892824  25.9774881205357 5.84216503348216  25.9774881205357 12.9999109151786  C 25.9774881205357 20.1578943660714  20.1546725714286 25.9807396294643  12.9967188058035 25.9807396294643  Z M 12.9967188058035 1.88203396874999  C 6.86618275223225 1.88203396874999  1.87878248883931 6.86940451785711  1.87878248883931 12.9999109151786  C 1.87878248883931 19.1296155491071  6.86615303794645 24.1179957165179  12.9967188058035 24.1179957165179  C 19.1263937544642 24.1179957165179  24.1147738928571 19.1296155491071  24.1147738928571 12.9999109151786  C 24.1147738928571 6.86940454687499  19.1263937254464 1.88203396874999  12.9967188058035 1.88203396874999  Z M 14.3022816160715 13.0398198705357  L 18.3114970825892 9.07419543526785  C 18.6758146540178 8.71456955803572  18.6786355959821 8.12757553794643  18.318861234375 7.7632876517857  C 17.9590868727679 7.39882162500001  17.37123171875 7.39600068303571  17.00777528125 7.75574533035717  L 12.9930367299106 11.7260911450893  L 9.03958688169644 7.76040731026782  C 8.67699157812501 7.39796049107142  8.09097746205362 7.39600065401788  7.72850092857141 7.75859595758928  C 7.36590562499998 8.120181671875  7.36504449107144 8.70705689285714  7.72665989062511 9.06965219642856  L 11.6746163102679 13.0296050625  L 7.69411511607143 16.9674357879464  C 7.32979754464293 17.3281603683036  7.32697660267854 17.9140556852678  7.68675096428569 18.2784920267857  C 7.86841978348207 18.4621206830357  8.10680443973217 18.5537865267857  8.34605025892859 18.5537865267857  C 8.58146551785717 18.5537865267857  8.81702923214277 18.4639617209821  8.99783691741072 18.2858561785714  L 12.9838315691965 14.3435416428572  L 17.0022522254465 18.3749386495536  C 17.1830599107143 18.5566371830357  17.4204646629464 18.647471578125  17.6587008638393 18.647471578125  C 17.8961056160714 18.647471578125  18.1325007790178 18.5566371540178  18.3133084642857 18.3768093727678  C 18.6757849977679 18.0151939732143  18.6767649017856 17.4292095714285  18.3151791875 17.0657531339286  L 14.3022816160715 13.0398198705357  Z " fill-rule="nonzero" fill="#ffffff" stroke="none" transform="matrix(1 0 0 1 797 144 )" />
  </g>
</svg>