<?xml version="1.0" encoding="utf-8"?>
<svg version="1.1" xmlns:xlink="http://www.w3.org/1999/xlink" width="12px" height="12px" viewBox="550 419  12 12" xmlns="http://www.w3.org/2000/svg">
  <path d="M 556 419  C 559.36 419  562 421.64  562 425  C 562 428.36  559.36 431  556 431  C 552.64 431  550 428.36  550 425  C 550 421.64  552.64 419  556 419  Z " fill-rule="nonzero" fill="#ffffff" stroke="none" />
  <path d="M 556 419.5  C 559.08 419.5  561.5 421.92  561.5 425  C 561.5 428.08  559.08 430.5  556 430.5  C 552.92 430.5  550.5 428.08  550.5 425  C 550.5 421.92  552.92 419.5  556 419.5  Z " stroke-width="1" stroke="#797979" fill="none" />
  <path d="M 556 428  C 554.32 428  553 426.68  553 425  C 553 423.32  554.32 422  556 422  C 557.68 422  559 423.32  559 425  C 559 426.68  557.68 428  556 428  " fill-rule="nonzero" fill="#797979" stroke="none" />
</svg>