<?xml version="1.0" encoding="utf-8"?>
<svg version="1.1" xmlns:xlink="http://www.w3.org/1999/xlink" width="12px" height="12px" viewBox="417 419  12 12" xmlns="http://www.w3.org/2000/svg">
  <path d="M 423 419  C 426.36 419  429 421.64  429 425  C 429 428.36  426.36 431  423 431  C 419.64 431  417 428.36  417 425  C 417 421.64  419.64 419  423 419  Z " fill-rule="nonzero" fill="#ffffff" stroke="none" />
  <path d="M 423 419.5  C 426.08 419.5  428.5 421.92  428.5 425  C 428.5 428.08  426.08 430.5  423 430.5  C 419.92 430.5  417.5 428.08  417.5 425  C 417.5 421.92  419.92 419.5  423 419.5  Z " stroke-width="1" stroke="#797979" fill="none" />
  <path d="M 423 428  C 421.32 428  420 426.68  420 425  C 420 423.32  421.32 422  423 422  C 424.68 422  426 423.32  426 425  C 426 426.68  424.68 428  423 428  " fill-rule="nonzero" fill="#797979" stroke="none" />
</svg>