<?xml version="1.0" encoding="utf-8"?>
<svg version="1.1" xmlns:xlink="http://www.w3.org/1999/xlink" width="12px" height="12px" viewBox="550 468  12 12" xmlns="http://www.w3.org/2000/svg">
  <path d="M 556 468  C 559.36 468  562 470.64  562 474  C 562 477.36  559.36 480  556 480  C 552.64 480  550 477.36  550 474  C 550 470.64  552.64 468  556 468  Z " fill-rule="nonzero" fill="#ffffff" stroke="none" />
  <path d="M 556 468.5  C 559.08 468.5  561.5 470.92  561.5 474  C 561.5 477.08  559.08 479.5  556 479.5  C 552.92 479.5  550.5 477.08  550.5 474  C 550.5 470.92  552.92 468.5  556 468.5  Z " stroke-width="1" stroke="#797979" fill="none" />
  <path d="M 556 477  C 554.32 477  553 475.68  553 474  C 553 472.32  554.32 471  556 471  C 557.68 471  559 472.32  559 474  C 559 475.68  557.68 477  556 477  " fill-rule="nonzero" fill="#797979" stroke="none" />
</svg>