<?xml version="1.0" encoding="utf-8"?>
<svg version="1.1" xmlns:xlink="http://www.w3.org/1999/xlink" width="12px" height="12px" viewBox="714 1505  12 12" xmlns="http://www.w3.org/2000/svg">
  <path d="M 720 1505  C 723.36 1505  726 1507.64  726 1511  C 726 1514.36  723.36 1517  720 1517  C 716.64 1517  714 1514.36  714 1511  C 714 1507.64  716.64 1505  720 1505  Z " fill-rule="nonzero" fill="#ffffff" stroke="none" />
  <path d="M 720 1505.5  C 723.08 1505.5  725.5 1507.92  725.5 1511  C 725.5 1514.08  723.08 1516.5  720 1516.5  C 716.92 1516.5  714.5 1514.08  714.5 1511  C 714.5 1507.92  716.92 1505.5  720 1505.5  Z " stroke-width="1" stroke="#797979" fill="none" />
  <path d="M 720 1514  C 718.32 1514  717 1512.68  717 1511  C 717 1509.32  718.32 1508  720 1508  C 721.68 1508  723 1509.32  723 1511  C 723 1512.68  721.68 1514  720 1514  " fill-rule="nonzero" fill="#797979" stroke="none" />
</svg>