<?xml version="1.0" encoding="utf-8"?>
<svg version="1.1" xmlns:xlink="http://www.w3.org/1999/xlink" width="64px" height="64px" xmlns="http://www.w3.org/2000/svg">
  <g transform="matrix(1 0 0 1 -22 -680 )">
    <path d="M 54 680  C 71.92 680  86 694.08  86 712  C 86 729.92  71.92 744  54 744  C 36.08 744  22 729.92  22 712  C 22 694.08  36.08 680  54 680  Z " fill-rule="nonzero" fill="#ffffff" stroke="none" />
    <path d="M 54 680.5  C 71.64 680.5  85.5 694.36  85.5 712  C 85.5 729.64  71.64 743.5  54 743.5  C 36.36 743.5  22.5 729.64  22.5 712  C 22.5 694.36  36.36 680.5  54 680.5  Z " stroke-width="1" stroke="#797979" fill="none" />
  </g>
</svg>