<?xml version="1.0" encoding="utf-8"?>
<svg version="1.1" xmlns:xlink="http://www.w3.org/1999/xlink" width="33px" height="33px" xmlns="http://www.w3.org/2000/svg">
  <g transform="matrix(1 0 0 1 -443 -27 )">
    <path d="M 459.5 27  C 468.74 27  476 34.26  476 43.5  C 476 52.74  468.74 60  459.5 60  C 450.26 60  443 52.74  443 43.5  C 443 34.26  450.26 27  459.5 27  Z " fill-rule="nonzero" fill="#ffffff" stroke="none" fill-opacity="0" />
    <path d="M 459.5 27.5  C 468.46 27.5  475.5 34.54  475.5 43.5  C 475.5 52.46  468.46 59.5  459.5 59.5  C 450.54 59.5  443.5 52.46  443.5 43.5  C 443.5 34.54  450.54 27.5  459.5 27.5  Z " stroke-width="1" stroke="#797979" fill="none" />
  </g>
</svg>