<?xml version="1.0" encoding="utf-8"?>
<svg version="1.1" xmlns:xlink="http://www.w3.org/1999/xlink" width="12px" height="12px" viewBox="627 175  12 12" xmlns="http://www.w3.org/2000/svg">
  <path d="M 633 175  C 636.36 175  639 177.64  639 181  C 639 184.36  636.36 187  633 187  C 629.64 187  627 184.36  627 181  C 627 177.64  629.64 175  633 175  Z " fill-rule="nonzero" fill="#ffffff" stroke="none" />
  <path d="M 633 175.5  C 636.08 175.5  638.5 177.92  638.5 181  C 638.5 184.08  636.08 186.5  633 186.5  C 629.92 186.5  627.5 184.08  627.5 181  C 627.5 177.92  629.92 175.5  633 175.5  Z " stroke-width="1" stroke="#797979" fill="none" />
  <path d="M 633 184  C 631.32 184  630 182.68  630 181  C 630 179.32  631.32 178  633 178  C 634.68 178  636 179.32  636 181  C 636 182.68  634.68 184  633 184  " fill-rule="nonzero" fill="#797979" stroke="none" />
</svg>