<?xml version="1.0" encoding="utf-8"?>
<svg version="1.1" xmlns:xlink="http://www.w3.org/1999/xlink" width="12px" height="12px" viewBox="436 173  12 12" xmlns="http://www.w3.org/2000/svg">
  <path d="M 442 173  C 445.36 173  448 175.64  448 179  C 448 182.36  445.36 185  442 185  C 438.64 185  436 182.36  436 179  C 436 175.64  438.64 173  442 173  Z " fill-rule="nonzero" fill="#ffffff" stroke="none" />
  <path d="M 442 173.5  C 445.08 173.5  447.5 175.92  447.5 179  C 447.5 182.08  445.08 184.5  442 184.5  C 438.92 184.5  436.5 182.08  436.5 179  C 436.5 175.92  438.92 173.5  442 173.5  Z " stroke-width="1" stroke="#797979" fill="none" />
  <path d="M 442 182  C 440.32 182  439 180.68  439 179  C 439 177.32  440.32 176  442 176  C 443.68 176  445 177.32  445 179  C 445 180.68  443.68 182  442 182  " fill-rule="nonzero" fill="#797979" stroke="none" />
</svg>