<?xml version="1.0" encoding="utf-8"?>
<svg version="1.1" xmlns:xlink="http://www.w3.org/1999/xlink" width="14px" height="15px" xmlns="http://www.w3.org/2000/svg">
  <g transform="matrix(1 0 0 1 -428 -215 )">
    <path d="M 10.7594405594406 7.5  L 13.3636363636364 9.00390625  C 13.6638694638695 9.17317708333333  13.858041958042 9.42545572916666  13.9461538461538 9.7607421875  C 14.0342657342657 10.0960286458333  13.9934731934732 10.4134114583333  13.8237762237762 10.712890625  L 13.1972027972028 11.787109375  C 13.0275058275058 12.0865885416667  12.7745920745921 12.2802734375  12.4384615384615 12.3681640625  C 12.102331002331 12.4560546875  11.7841491841492 12.4153645833333  11.4839160839161 12.24609375  L 8.87972027972028 10.751953125  L 8.87972027972028 13.75  C 8.87972027972028 14.0885416666667  8.75571095571096 14.3815104166667  8.50769230769231 14.62890625  C 8.25967365967366 14.8763020833333  7.96596736596737 15  7.62657342657343 15  L 6.37342657342657 15  C 6.03403263403263 15  5.74032634032634 14.8763020833333  5.49230769230769 14.62890625  C 5.24428904428905 14.3815104166667  5.12027972027972 14.0885416666667  5.12027972027972 13.75  L 5.12027972027972 10.751953125  L 2.51608391608392 12.24609375  C 2.21585081585082 12.4153645833333  1.897668997669 12.4560546875  1.56153846153846 12.3681640625  C 1.22540792540793 12.2802734375  0.972494172494173 12.0865885416667  0.802797202797203 11.787109375  L 0.176223776223776 10.712890625  C 0.00652680652680657 10.4134114583333  -0.0342657342657343 10.0960286458333  0.0538461538461538 9.7607421875  C 0.141958041958042 9.42545572916666  0.336130536130536 9.17317708333333  0.636363636363636 9.00390625  L 3.24055944055944 7.5  L 0.636363636363636 5.99609375  C 0.336130536130536 5.82682291666667  0.141958041958042 5.57454427083333  0.0538461538461538 5.2392578125  C -0.0342657342657343 4.90397135416667  0.00652680652680657 4.58658854166666  0.176223776223776 4.287109375  L 0.802797202797203 3.212890625  C 0.972494172494173 2.91341145833333  1.22540792540793 2.7197265625  1.56153846153846 2.6318359375  C 1.897668997669 2.5439453125  2.21585081585082 2.58463541666667  2.51608391608392 2.75390625  L 5.12027972027972 4.248046875  L 5.12027972027972 1.25  C 5.12027972027972 0.911458333333333  5.24428904428905 0.618489583333333  5.49230769230769 0.371093750000001  C 5.74032634032634 0.123697916666665  6.03403263403263 0  6.37342657342657 0  L 7.62657342657343 0  C 7.96596736596737 0  8.25967365967366 0.123697916666665  8.50769230769231 0.371093750000001  C 8.75571095571096 0.618489583333333  8.87972027972028 0.911458333333333  8.87972027972028 1.25  L 8.87972027972028 4.248046875  L 11.4839160839161 2.75390625  C 11.7841491841492 2.58463541666667  12.102331002331 2.5439453125  12.4384615384615 2.6318359375  C 12.7745920745921 2.7197265625  13.0275058275058 2.91341145833333  13.1972027972028 3.212890625  L 13.8237762237762 4.287109375  C 13.9934731934732 4.58658854166666  14.0342657342657 4.90397135416667  13.9461538461538 5.2392578125  C 13.858041958042 5.57454427083333  13.6638694638695 5.82682291666667  13.3636363636364 5.99609375  L 10.7594405594406 7.5  Z " fill-rule="nonzero" fill="#ff0000" stroke="none" transform="matrix(1 0 0 1 428 215 )" />
  </g>
</svg>