<?xml version="1.0" encoding="utf-8"?>
<svg version="1.1" xmlns:xlink="http://www.w3.org/1999/xlink" width="20px" height="20px" xmlns="http://www.w3.org/2000/svg">
  <g transform="matrix(1 0 0 1 -1131 -323 )">
    <path d="M 1141 323  C 1146.6 323  1151 327.4  1151 333  C 1151 338.6  1146.6 343  1141 343  C 1135.4 343  1131 338.6  1131 333  C 1131 327.4  1135.4 323  1141 323  Z " fill-rule="nonzero" fill="#ffffff" stroke="none" />
    <path d="M 1141 323.5  C 1146.32 323.5  1150.5 327.68  1150.5 333  C 1150.5 338.32  1146.32 342.5  1141 342.5  C 1135.68 342.5  1131.5 338.32  1131.5 333  C 1131.5 327.68  1135.68 323.5  1141 323.5  Z " stroke-width="1" stroke="#797979" fill="none" />
  </g>
</svg>