<?xml version="1.0" encoding="utf-8"?>
<svg version="1.1" xmlns:xlink="http://www.w3.org/1999/xlink" width="85px" height="54px" xmlns="http://www.w3.org/2000/svg">
  <g transform="matrix(1 0 0 1 -382 -398 )">
    <path d="M 382 398  L 467 398  L 467 452  L 382 452  L 382 398  " fill-rule="nonzero" fill="#cccccc" stroke="none" />
    <path d="M 386 402  L 463 402  L 463 448  L 386 448  L 386 402  " fill-rule="nonzero" fill="#ffffff" stroke="none" />
    <path d="M 430.25 414.2  C 427.982 414.2  426.2 412.418  426.2 410.15  C 426.2 407.882  427.982 406.1  430.25 406.1  C 432.518 406.1  434.3 407.882  434.3 410.15  C 434.3 412.418  432.518 414.2  430.25 414.2  " fill-rule="nonzero" fill="#cccccc" stroke="none" />
    <path d="M 388 447  L 388 423.35  L 406.5 412.6  L 432.4 430.609411764706  L 447.2 419.05  L 462 430.609411764706  L 462 447  L 388 447  " fill-rule="nonzero" fill="#169bd5" stroke="none" />
  </g>
</svg>