<?xml version="1.0" encoding="utf-8"?>
<svg version="1.1" xmlns:xlink="http://www.w3.org/1999/xlink" width="15px" height="14px" xmlns="http://www.w3.org/2000/svg">
  <g transform="matrix(1 0 0 1 -427 -465 )">
    <path d="M 10.8984375 12.2885948330183  L 10.2493990384615 8.57466918714556  L 13.0078125 5.95463137996219  L 9.20372596153846 5.40768746061752  L 7.5 2.03780718336484  L 5.79627403846154 5.40768746061752  L 1.9921875 5.95463137996219  L 4.75060096153846 8.57466918714556  L 4.09254807692308 12.2885948330183  L 7.5 10.5330812854442  L 10.8984375 12.2885948330183  Z M 14.4951923076923 5.01953371140517  C 14.8317307692308 5.07246376811594  15 5.20772946859903  15 5.42533081285444  C 15 5.55471539592522  14.921875 5.69586221382062  14.765625 5.84877126654064  L 11.4933894230769 8.97164461247637  L 12.2686298076923 13.3824826717076  C 12.2746394230769 13.4236504935938  12.2776442307692 13.4824616677169  12.2776442307692 13.5589161940769  C 12.2776442307692 13.8529720646923  12.1544471153846 14  11.9080528846154 14  C 11.7938701923077 14  11.6736778846154 13.9647132955262  11.5474759615385 13.8941398865785  L 7.5 11.8122243226213  L 3.45252403846154 13.8941398865785  C 3.3203125 13.9647132955262  3.20012019230769 14  3.09194711538462 14  C 2.96574519230769 14  2.87109375 13.9573618987608  2.80799278846154 13.8720856962823  C 2.74489182692308 13.7868094938038  2.71334134615385 13.6824196597354  2.71334134615385 13.5589161940769  C 2.71334134615385 13.523629489603  2.71935096153846 13.4648183154799  2.73137019230769 13.3824826717076  L 3.50661057692308 8.97164461247637  L 0.225360576923077 5.84877126654064  C 0.0751201923076923 5.68998109640832  0 5.54883427851292  0 5.42533081285444  C 0 5.20772946859903  0.168269230769231 5.07246376811594  0.504807692307692 5.01953371140517  L 5.03004807692308 4.3755513547574  L 7.05829326923077 0.361688720856962  C 7.17247596153846 0.12056290695232  7.31971153846154 0  7.5 0  C 7.68028846153846 0  7.82752403846154 0.12056290695232  7.94170673076923 0.361688720856962  L 9.96995192307692 4.3755513547574  L 14.4951923076923 5.01953371140517  Z " fill-rule="nonzero" fill="#333333" stroke="none" transform="matrix(1 0 0 1 427 465 )" />
  </g>
</svg>