<?xml version="1.0" encoding="utf-8"?>
<svg version="1.1" xmlns:xlink="http://www.w3.org/1999/xlink" width="29px" height="32px" xmlns="http://www.w3.org/2000/svg">
  <g transform="matrix(1 0 0 1 -1314 -172 )">
    <path d="M 19.5192307692308 24.3392857142857  C 19.5192307692308 24.4940476190476  19.4669471153846 24.625  19.3623798076923 24.7321428571429  L 18.5606971153846 25.5535714285714  C 18.4561298076923 25.6607142857143  18.3283253205128 25.7142857142857  18.1772836538462 25.7142857142857  C 18.0262419871795 25.7142857142857  17.8926282051282 25.6607142857143  17.7764423076923 25.5535714285714  L 14.5 22.1785714285714  L 11.2235576923077 25.5535714285714  C 11.1073717948718 25.6607142857143  10.9737580128205 25.7142857142857  10.8227163461538 25.7142857142857  C 10.6716746794872 25.7142857142857  10.5438701923077 25.6607142857143  10.4393028846154 25.5535714285714  L 9.63762019230769 24.7321428571429  C 9.53305288461539 24.625  9.48076923076923 24.4940476190476  9.48076923076923 24.3392857142857  C 9.48076923076923 24.1845238095238  9.53305288461539 24.047619047619  9.63762019230769 23.9285714285714  L 12.9314903846154 20.5714285714286  L 9.63762019230769 17.2142857142857  C 9.53305288461539 17.0952380952381  9.48076923076923 16.9583333333333  9.48076923076923 16.8035714285714  C 9.48076923076923 16.6488095238095  9.53305288461539 16.5178571428571  9.63762019230769 16.4107142857143  L 10.4393028846154 15.5892857142857  C 10.5438701923077 15.4821428571429  10.6716746794872 15.4285714285714  10.8227163461538 15.4285714285714  C 10.9737580128205 15.4285714285714  11.1073717948718 15.4821428571429  11.2235576923077 15.5892857142857  L 14.5 18.9464285714286  L 17.7764423076923 15.5892857142857  C 17.8926282051282 15.4821428571429  18.0262419871795 15.4285714285714  18.1772836538462 15.4285714285714  C 18.3283253205128 15.4285714285714  18.4561298076923 15.4821428571429  18.5606971153846 15.5892857142857  L 19.3623798076923 16.4107142857143  C 19.4669471153846 16.5178571428571  19.5192307692308 16.6488095238095  19.5192307692308 16.8035714285714  C 19.5192307692308 16.9583333333333  19.4669471153846 17.0952380952381  19.3623798076923 17.2142857142857  L 16.0859375 20.5714285714286  L 19.3623798076923 23.9285714285714  C 19.4669471153846 24.047619047619  19.5192307692308 24.1845238095238  19.5192307692308 24.3392857142857  Z M 2.23076923076923 12  L 2.23076923076923 29.7142857142857  L 26.7692307692308 29.7142857142857  L 26.7692307692308 12  L 2.23076923076923 12  Z M 8.76622596153846 8.41071428571428  C 8.87079326923077 8.30357142857143  8.92307692307692 8.16666666666666  8.92307692307692 8  L 8.92307692307692 2.85714285714286  C 8.92307692307692 2.69047619047619  8.87079326923077 2.55357142857143  8.76622596153846 2.44642857142857  C 8.66165865384616 2.33928571428572  8.52804487179487 2.28571428571428  8.36538461538462 2.28571428571428  L 7.25 2.28571428571428  C 7.08733974358975 2.28571428571428  6.95372596153846 2.33928571428572  6.84915865384615 2.44642857142857  C 6.74459134615385 2.55357142857143  6.69230769230769 2.69047619047619  6.69230769230769 2.85714285714286  L 6.69230769230769 8  C 6.69230769230769 8.16666666666666  6.74459134615385 8.30357142857143  6.84915865384615 8.41071428571428  C 6.95372596153846 8.51785714285714  7.08733974358975 8.57142857142857  7.25 8.57142857142857  L 8.36538461538462 8.57142857142857  C 8.52804487179487 8.57142857142857  8.66165865384616 8.51785714285714  8.76622596153846 8.41071428571428  Z M 22.1508413461538 8.41071428571428  C 22.2554086538462 8.30357142857143  22.3076923076923 8.16666666666666  22.3076923076923 8  L 22.3076923076923 2.85714285714286  C 22.3076923076923 2.69047619047619  22.2554086538462 2.55357142857143  22.1508413461538 2.44642857142857  C 22.0462740384615 2.33928571428572  21.9126602564103 2.28571428571428  21.75 2.28571428571428  L 20.6346153846154 2.28571428571428  C 20.4719551282051 2.28571428571428  20.3383413461538 2.33928571428572  20.2337740384615 2.44642857142857  C 20.1292067307692 2.55357142857143  20.0769230769231 2.69047619047619  20.0769230769231 2.85714285714286  L 20.0769230769231 8  C 20.0769230769231 8.16666666666666  20.1292067307692 8.30357142857143  20.2337740384615 8.41071428571428  C 20.3383413461538 8.51785714285714  20.4719551282051 8.57142857142857  20.6346153846154 8.57142857142857  L 21.75 8.57142857142857  C 21.9126602564103 8.57142857142857  22.0462740384615 8.51785714285714  22.1508413461538 8.41071428571428  Z M 28.3377403846154 5.25  C 28.7792467948718 5.70238095238095  29 6.23809523809524  29 6.85714285714286  L 29 29.7142857142857  C 29 30.3333333333333  28.7792467948718 30.8690476190476  28.3377403846154 31.3214285714286  C 27.896233974359 31.7738095238095  27.3733974358974 32  26.7692307692308 32  L 2.23076923076923 32  C 1.62660256410256 32  1.10376602564103 31.7738095238095  0.662259615384615 31.3214285714286  C 0.220753205128205 30.8690476190476  0 30.3333333333333  0 29.7142857142857  L 0 6.85714285714286  C 0 6.23809523809524  0.220753205128205 5.70238095238095  0.662259615384615 5.25  C 1.10376602564103 4.79761904761904  1.62660256410256 4.57142857142857  2.23076923076923 4.57142857142857  L 4.46153846153846 4.57142857142857  L 4.46153846153846 2.85714285714286  C 4.46153846153846 2.07142857142857  4.73457532051282 1.39880952380952  5.28064903846154 0.839285714285715  C 5.82672275641026 0.279761904761905  6.48317307692308 0  7.25 0  L 8.36538461538462 0  C 9.13221153846154 0  9.78866185897436 0.279761904761905  10.3347355769231 0.839285714285715  C 10.8808092948718 1.39880952380952  11.1538461538462 2.07142857142857  11.1538461538462 2.85714285714286  L 11.1538461538462 4.57142857142857  L 17.8461538461538 4.57142857142857  L 17.8461538461538 2.85714285714286  C 17.8461538461538 2.07142857142857  18.1191907051282 1.39880952380952  18.6652644230769 0.839285714285715  C 19.2113381410256 0.279761904761905  19.8677884615385 0  20.6346153846154 0  L 21.75 0  C 22.5168269230769 0  23.1732772435897 0.279761904761905  23.7193509615385 0.839285714285715  C 24.2654246794872 1.39880952380952  24.5384615384615 2.07142857142857  24.5384615384615 2.85714285714286  L 24.5384615384615 4.57142857142857  L 26.7692307692308 4.57142857142857  C 27.3733974358974 4.57142857142857  27.896233974359 4.79761904761904  28.3377403846154 5.25  Z " fill-rule="nonzero" fill="#333333" stroke="none" transform="matrix(1 0 0 1 1314 172 )" />
  </g>
</svg>