<?xml version="1.0" encoding="utf-8"?>
<svg version="1.1" xmlns:xlink="http://www.w3.org/1999/xlink" width="44px" height="44px" xmlns="http://www.w3.org/2000/svg">
  <g transform="matrix(1 0 0 1 -312 -414 )">
    <path d="M 334 414  C 346.32 414  356 423.68  356 436  C 356 448.32  346.32 458  334 458  C 321.68 458  312 448.32  312 436  C 312 423.68  321.68 414  334 414  Z " fill-rule="nonzero" fill="#ffffff" stroke="none" />
    <path d="M 334 414.5  C 346.04 414.5  355.5 423.96  355.5 436  C 355.5 448.04  346.04 457.5  334 457.5  C 321.96 457.5  312.5 448.04  312.5 436  C 312.5 423.96  321.96 414.5  334 414.5  Z " stroke-width="1" stroke="#797979" fill="none" />
  </g>
</svg>