<?xml version="1.0" encoding="utf-8"?>
<svg version="1.1" xmlns:xlink="http://www.w3.org/1999/xlink" width="12px" height="12px" viewBox="347 642  12 12" xmlns="http://www.w3.org/2000/svg">
  <path d="M 353 642  C 356.36 642  359 644.64  359 648  C 359 651.36  356.36 654  353 654  C 349.64 654  347 651.36  347 648  C 347 644.64  349.64 642  353 642  Z " fill-rule="nonzero" fill="#ffffff" stroke="none" />
  <path d="M 353 642.5  C 356.08 642.5  358.5 644.92  358.5 648  C 358.5 651.08  356.08 653.5  353 653.5  C 349.92 653.5  347.5 651.08  347.5 648  C 347.5 644.92  349.92 642.5  353 642.5  Z " stroke-width="1" stroke="#797979" fill="none" />
  <path d="M 353 651  C 351.32 651  350 649.68  350 648  C 350 646.32  351.32 645  353 645  C 354.68 645  356 646.32  356 648  C 356 649.68  354.68 651  353 651  " fill-rule="nonzero" fill="#797979" stroke="none" />
</svg>