<?xml version="1.0" encoding="utf-8"?>
<svg version="1.1" xmlns:xlink="http://www.w3.org/1999/xlink" width="12px" height="12px" viewBox="432 642  12 12" xmlns="http://www.w3.org/2000/svg">
  <path d="M 438 642  C 441.36 642  444 644.64  444 648  C 444 651.36  441.36 654  438 654  C 434.64 654  432 651.36  432 648  C 432 644.64  434.64 642  438 642  Z " fill-rule="nonzero" fill="#ffffff" stroke="none" />
  <path d="M 438 642.5  C 441.08 642.5  443.5 644.92  443.5 648  C 443.5 651.08  441.08 653.5  438 653.5  C 434.92 653.5  432.5 651.08  432.5 648  C 432.5 644.92  434.92 642.5  438 642.5  Z " stroke-width="1" stroke="#797979" fill="none" />
  <path d="M 438 651  C 436.32 651  435 649.68  435 648  C 435 646.32  436.32 645  438 645  C 439.68 645  441 646.32  441 648  C 441 649.68  439.68 651  438 651  " fill-rule="nonzero" fill="#797979" stroke="none" />
</svg>