<?xml version="1.0" encoding="utf-8"?>
<svg version="1.1" xmlns:xlink="http://www.w3.org/1999/xlink" width="12px" height="12px" viewBox="34 297  12 12" xmlns="http://www.w3.org/2000/svg">
  <path d="M 40 297  C 43.36 297  46 299.64  46 303  C 46 306.36  43.36 309  40 309  C 36.64 309  34 306.36  34 303  C 34 299.64  36.64 297  40 297  Z " fill-rule="nonzero" fill="#ffffff" stroke="none" />
  <path d="M 40 297.5  C 43.08 297.5  45.5 299.92  45.5 303  C 45.5 306.08  43.08 308.5  40 308.5  C 36.92 308.5  34.5 306.08  34.5 303  C 34.5 299.92  36.92 297.5  40 297.5  Z " stroke-width="1" stroke="#797979" fill="none" />
  <path d="M 40 306  C 38.32 306  37 304.68  37 303  C 37 301.32  38.32 300  40 300  C 41.68 300  43 301.32  43 303  C 43 304.68  41.68 306  40 306  " fill-rule="nonzero" fill="#797979" stroke="none" />
</svg>