<?xml version="1.0" encoding="utf-8"?>
<svg version="1.1" xmlns:xlink="http://www.w3.org/1999/xlink" width="12px" height="12px" viewBox="617 408  12 12" xmlns="http://www.w3.org/2000/svg">
  <path d="M 623 408  C 626.36 408  629 410.64  629 414  C 629 417.36  626.36 420  623 420  C 619.64 420  617 417.36  617 414  C 617 410.64  619.64 408  623 408  Z " fill-rule="nonzero" fill="#ffffff" stroke="none" />
  <path d="M 623 408.5  C 626.08 408.5  628.5 410.92  628.5 414  C 628.5 417.08  626.08 419.5  623 419.5  C 619.92 419.5  617.5 417.08  617.5 414  C 617.5 410.92  619.92 408.5  623 408.5  Z " stroke-width="1" stroke="#797979" fill="none" />
  <path d="M 623 417  C 621.32 417  620 415.68  620 414  C 620 412.32  621.32 411  623 411  C 624.68 411  626 412.32  626 414  C 626 415.68  624.68 417  623 417  " fill-rule="nonzero" fill="#797979" stroke="none" />
</svg>