<?xml version="1.0" encoding="utf-8"?>
<svg version="1.1" xmlns:xlink="http://www.w3.org/1999/xlink" width="12px" height="12px" viewBox="711 408  12 12" xmlns="http://www.w3.org/2000/svg">
  <path d="M 717 408  C 720.36 408  723 410.64  723 414  C 723 417.36  720.36 420  717 420  C 713.64 420  711 417.36  711 414  C 711 410.64  713.64 408  717 408  Z " fill-rule="nonzero" fill="#ffffff" stroke="none" />
  <path d="M 717 408.5  C 720.08 408.5  722.5 410.92  722.5 414  C 722.5 417.08  720.08 419.5  717 419.5  C 713.92 419.5  711.5 417.08  711.5 414  C 711.5 410.92  713.92 408.5  717 408.5  Z " stroke-width="1" stroke="#797979" fill="none" />
  <path d="M 717 417  C 715.32 417  714 415.68  714 414  C 714 412.32  715.32 411  717 411  C 718.68 411  720 412.32  720 414  C 720 415.68  718.68 417  717 417  " fill-rule="nonzero" fill="#797979" stroke="none" />
</svg>