<?xml version="1.0" encoding="utf-8"?>
<svg version="1.1" xmlns:xlink="http://www.w3.org/1999/xlink" width="117px" height="80px" xmlns="http://www.w3.org/2000/svg">
  <g transform="matrix(1 0 0 1 -617 -508 )">
    <path d="M 617 508  L 734 508  L 734 588  L 617 588  L 617 508  " fill-rule="nonzero" fill="#cccccc" stroke="none" />
    <path d="M 623 514  L 728 514  L 728 582  L 623 582  L 623 514  " fill-rule="nonzero" fill="#ffffff" stroke="none" />
    <path d="M 683.84 532  C 680.48 532  677.84 529.36  677.84 526  C 677.84 522.64  680.48 520  683.84 520  C 687.2 520  689.84 522.64  689.84 526  C 689.84 529.36  687.2 532  683.84 532  " fill-rule="nonzero" fill="#cccccc" stroke="none" />
    <path d="M 625 580  L 625 544.8  L 650.25 528.8  L 685.6 553.74358974359  L 705.8 538.4  L 726 553.74358974359  L 726 580  L 625 580  " fill-rule="nonzero" fill="#169bd5" stroke="none" />
  </g>
</svg>