<?xml version="1.0" encoding="utf-8"?>
<svg version="1.1" xmlns:xlink="http://www.w3.org/1999/xlink" width="12px" height="12px" viewBox="617 244  12 12" xmlns="http://www.w3.org/2000/svg">
  <path d="M 623 244  C 626.36 244  629 246.64  629 250  C 629 253.36  626.36 256  623 256  C 619.64 256  617 253.36  617 250  C 617 246.64  619.64 244  623 244  Z " fill-rule="nonzero" fill="#ffffff" stroke="none" />
  <path d="M 623 244.5  C 626.08 244.5  628.5 246.92  628.5 250  C 628.5 253.08  626.08 255.5  623 255.5  C 619.92 255.5  617.5 253.08  617.5 250  C 617.5 246.92  619.92 244.5  623 244.5  Z " stroke-width="1" stroke="#797979" fill="none" />
  <path d="M 623 253  C 621.32 253  620 251.68  620 250  C 620 248.32  621.32 247  623 247  C 624.68 247  626 248.32  626 250  C 626 251.68  624.68 253  623 253  " fill-rule="nonzero" fill="#797979" stroke="none" />
</svg>