<?xml version="1.0" encoding="utf-8"?>
<svg version="1.1" xmlns:xlink="http://www.w3.org/1999/xlink" width="76px" height="61px" xmlns="http://www.w3.org/2000/svg">
  <g transform="matrix(1 0 0 1 -569 -734 )">
    <path d="M 569 734  L 645 734  L 645 795  L 569 795  L 569 734  " fill-rule="nonzero" fill="#cccccc" stroke="none" />
    <path d="M 573 738  L 641 738  L 641 791  L 573 791  L 573 738  " fill-rule="nonzero" fill="#ffffff" stroke="none" />
    <path d="M 613.095 752.3  C 610.533 752.3  608.52 750.287  608.52 747.725  C 608.52 745.163  610.533 743.15  613.095 743.15  C 615.657 743.15  617.67 745.163  617.67 747.725  C 617.67 750.287  615.657 752.3  613.095 752.3  " fill-rule="nonzero" fill="#cccccc" stroke="none" />
    <path d="M 575 790  L 575 762.5  L 591.25 750  L 614 765.921052631579  L 627 757.5  L 640 765.921052631579  L 640 790  L 575 790  " fill-rule="nonzero" fill="#169bd5" stroke="none" />
  </g>
</svg>