<?xml version="1.0" encoding="utf-8"?>
<svg version="1.1" xmlns:xlink="http://www.w3.org/1999/xlink" width="153px" height="131px" xmlns="http://www.w3.org/2000/svg">
  <g transform="matrix(1 0 0 1 -571 -992 )">
    <path d="M 571 992  L 724 992  L 724 1123  L 571 1123  L 571 992  " fill-rule="nonzero" fill="#cccccc" stroke="none" />
    <path d="M 580 1001  L 715 1001  L 715 1114  L 580 1114  L 580 1001  " fill-rule="nonzero" fill="#ffffff" stroke="none" />
    <path d="M 660.385 1031.3  C 654.883 1031.3  650.56 1026.977  650.56 1021.475  C 650.56 1015.973  654.883 1011.65  660.385 1011.65  C 665.887 1011.65  670.21 1015.973  670.21 1021.475  C 670.21 1026.977  665.887 1031.3  660.385 1031.3  " fill-rule="nonzero" fill="#cccccc" stroke="none" />
    <path d="M 584 1111  L 584 1052.7  L 616 1026.2  L 660.8 1056.54509803922  L 686.4 1042.1  L 712 1056.54509803922  L 712 1111  L 584 1111  " fill-rule="nonzero" fill="#169bd5" stroke="none" />
  </g>
</svg>