<?xml version="1.0" encoding="utf-8"?>
<svg version="1.1" xmlns:xlink="http://www.w3.org/1999/xlink" width="224px" height="120px" xmlns="http://www.w3.org/2000/svg">
  <g transform="matrix(1 0 0 1 -246 -428 )">
    <path d="M 246 428  L 470 428  L 470 548  L 246 548  L 246 428  " fill-rule="nonzero" fill="#cccccc" stroke="none" />
    <path d="M 254 436  L 462 436  L 462 540  L 254 540  L 254 436  " fill-rule="nonzero" fill="#ffffff" stroke="none" />
    <path d="M 371.48 464  C 366.44 464  362.48 460.04  362.48 455  C 362.48 449.96  366.44 446  371.48 446  C 376.52 446  380.48 449.96  380.48 455  C 380.48 460.04  376.52 464  371.48 464  " fill-rule="nonzero" fill="#cccccc" stroke="none" />
    <path d="M 257 537  L 257 483.1  L 307.5 458.6  L 378.2 505.5  L 418.6 473.3  L 459 505.5  L 459 537  L 257 537  " fill-rule="nonzero" fill="#169bd5" stroke="none" />
  </g>
</svg>