<?xml version="1.0" encoding="utf-8"?>
<svg version="1.1" xmlns:xlink="http://www.w3.org/1999/xlink" width="16px" height="18px" xmlns="http://www.w3.org/2000/svg">
  <g transform="matrix(1 0 0 1 -198 -150 )">
    <path d="M 8 17.1964285714286  C 8.1025641025641 17.1964285714286  8.15384615384616 17.1428571428571  8.15384615384615 17.0357142857143  C 8.15384615384616 16.9285714285714  8.1025641025641 16.875  8 16.875  C 7.62179487179487 16.875  7.29647435897436 16.7327008928571  7.02403846153846 16.4481026785714  C 6.75160256410256 16.1635044642857  6.61538461538462 15.8236607142857  6.61538461538462 15.4285714285714  C 6.61538461538462 15.3214285714286  6.56410256410256 15.2678571428571  6.46153846153846 15.2678571428571  C 6.35897435897436 15.2678571428571  6.30769230769231 15.3214285714286  6.30769230769231 15.4285714285714  C 6.30769230769231 15.9174107142857  6.47275641025641 16.3342633928571  6.80288461538462 16.6791294642857  C 7.13301282051282 17.0239955357143  7.53205128205128 17.1964285714286  8 17.1964285714286  Z M 4.30769230769231 5.78571428571428  C 4.30769230769231 9.34821428571429  3.45512820512821 12.1339285714286  1.75 14  L 14.25 14  C 12.5448717948718 12.1339285714286  11.6923076923077 9.34821428571429  11.6923076923077 5.78571428571428  C 11.6923076923077 5.44419642857143  11.6153846153846 5.09263392857143  11.4615384615385 4.73102678571428  C 11.3076923076923 4.36941964285714  11.0865384615385 4.02455357142857  10.7980769230769 3.69642857142857  C 10.5096153846154 3.36830357142857  10.1201923076923 3.09877232142857  9.62980769230769 2.88783482142857  C 9.13942307692308 2.67689732142857  8.59615384615385 2.57142857142857  8 2.57142857142857  C 7.40384615384615 2.57142857142857  6.86057692307692 2.67689732142857  6.37019230769231 2.88783482142857  C 5.87980769230769 3.09877232142857  5.49038461538462 3.36830357142857  5.20192307692308 3.69642857142857  C 4.91346153846154 4.02455357142857  4.69230769230769 4.36941964285714  4.53846153846154 4.73102678571428  C 4.38461538461539 5.09263392857143  4.30769230769231 5.44419642857143  4.30769230769231 5.78571428571428  Z M 15.125 13.2589285714286  C 15.3878205128205 13.5669642857143  15.6794871794872 13.8616071428571  16 14.1428571428571  C 16 14.4910714285714  15.8782051282051 14.7924107142857  15.6346153846154 15.046875  C 15.3910256410256 15.3013392857143  15.1025641025641 15.4285714285714  14.7692307692308 15.4285714285714  L 10.4615384615385 15.4285714285714  C 10.4615384615385 16.1383928571429  10.2211538461538 16.7444196428571  9.74038461538462 17.2466517857143  C 9.25961538461539 17.7488839285714  8.67948717948718 18  8 18  C 7.32051282051282 18  6.74038461538462 17.7488839285714  6.25961538461539 17.2466517857143  C 5.77884615384615 16.7444196428571  5.53846153846154 16.1383928571429  5.53846153846154 15.4285714285714  L 1.23076923076923 15.4285714285714  C 0.897435897435898 15.4285714285714  0.608974358974359 15.3013392857143  0.365384615384615 15.046875  C 0.121794871794872 14.7924107142857  0 14.4910714285714  0 14.1428571428571  C 0.320512820512821 13.8616071428571  0.612179487179487 13.5669642857143  0.875 13.2589285714286  C 1.13782051282051 12.9508928571429  1.41025641025641 12.55078125  1.69230769230769 12.05859375  C 1.97435897435897 11.56640625  2.21314102564103 11.0357142857143  2.40865384615385 10.4665178571429  C 2.60416666666667 9.89732142857143  2.76442307692308 9.20758928571429  2.88942307692308 8.39732142857143  C 3.01442307692308 7.58705357142857  3.07692307692308 6.71651785714286  3.07692307692308 5.78571428571428  C 3.07692307692308 4.76785714285714  3.45192307692308 3.82198660714286  4.20192307692308 2.94810267857143  C 4.95192307692308 2.07421875  5.93589743589744 1.54352678571428  7.15384615384615 1.35602678571429  C 7.1025641025641 1.22879464285714  7.07692307692308 1.09821428571429  7.07692307692308 0.964285714285715  C 7.07692307692308 0.696428571428571  7.16666666666667 0.468749999999999  7.34615384615385 0.28125  C 7.52564102564103 0.0937500000000007  7.74358974358974 0  8 0  C 8.25641025641026 0  8.47435897435898 0.0937500000000007  8.65384615384615 0.28125  C 8.83333333333333 0.468749999999999  8.92307692307692 0.696428571428571  8.92307692307692 0.964285714285715  C 8.92307692307692 1.09821428571429  8.8974358974359 1.22879464285714  8.84615384615385 1.35602678571429  C 10.0641025641026 1.54352678571428  11.0480769230769 2.07421875  11.7980769230769 2.94810267857143  C 12.5480769230769 3.82198660714286  12.9230769230769 4.76785714285714  12.9230769230769 5.78571428571428  C 12.9230769230769 6.71651785714286  12.9855769230769 7.58705357142857  13.1105769230769 8.39732142857143  C 13.2355769230769 9.20758928571429  13.3958333333333 9.89732142857143  13.5913461538462 10.4665178571429  C 13.786858974359 11.0357142857143  14.025641025641 11.56640625  14.3076923076923 12.05859375  C 14.5897435897436 12.55078125  14.8621794871795 12.9508928571429  15.125 13.2589285714286  Z " fill-rule="nonzero" fill="#aaaaaa" stroke="none" transform="matrix(1 0 0 1 198 150 )" />
  </g>
</svg>