<?xml version="1.0" encoding="utf-8"?>
<svg version="1.1" xmlns:xlink="http://www.w3.org/1999/xlink" width="25px" height="25px" xmlns="http://www.w3.org/2000/svg">
  <g transform="matrix(1 0 0 1 -372 -153 )">
    <path d="M 384.5 153  C 391.5 153  397 158.5  397 165.5  C 397 172.5  391.5 178  384.5 178  C 377.5 178  372 172.5  372 165.5  C 372 158.5  377.5 153  384.5 153  Z " fill-rule="nonzero" fill="#ffffff" stroke="none" />
    <path d="M 384.5 153.5  C 391.22 153.5  396.5 158.78  396.5 165.5  C 396.5 172.22  391.22 177.5  384.5 177.5  C 377.78 177.5  372.5 172.22  372.5 165.5  C 372.5 158.78  377.78 153.5  384.5 153.5  Z " stroke-width="1" stroke="#aeaeae" fill="none" />
  </g>
</svg>