<?xml version="1.0" encoding="utf-8"?>
<svg version="1.1" xmlns:xlink="http://www.w3.org/1999/xlink" width="174px" height="115px" xmlns="http://www.w3.org/2000/svg">
  <g transform="matrix(1 0 0 1 -248 -2908 )">
    <path d="M 248 2908  L 422 2908  L 422 3023  L 248 3023  L 248 2908  " fill-rule="nonzero" fill="#cccccc" stroke="none" />
    <path d="M 256 2916  L 414 2916  L 414 3015  L 256 3015  L 256 2916  " fill-rule="nonzero" fill="#ffffff" stroke="none" />
    <path d="M 347.105 2942.5  C 342.275 2942.5  338.48 2938.705  338.48 2933.875  C 338.48 2929.045  342.275 2925.25  347.105 2925.25  C 351.935 2925.25  355.73 2929.045  355.73 2933.875  C 355.73 2938.705  351.935 2942.5  347.105 2942.5  " fill-rule="nonzero" fill="#cccccc" stroke="none" />
    <path d="M 259 3012  L 259 2960.85  L 297 2937.6  L 350.2 2975.12068965517  L 380.6 2951.55  L 411 2975.12068965517  L 411 3012  L 259 3012  " fill-rule="nonzero" fill="#169bd5" stroke="none" />
  </g>
</svg>