<?xml version="1.0" encoding="utf-8"?>
<svg version="1.1" xmlns:xlink="http://www.w3.org/1999/xlink" width="30px" height="30px" xmlns="http://www.w3.org/2000/svg">
  <g transform="matrix(1 0 0 1 -505 -2725 )">
    <path d="M 17.32421875 7.67578125  C 17.44140625 7.79296875  17.5 7.94270833333333  17.5 8.125  L 17.5 16.875  C 17.5 17.0572916666667  17.44140625 17.20703125  17.32421875 17.32421875  C 17.20703125 17.44140625  17.0572916666667 17.5  16.875 17.5  L 10.625 17.5  C 10.4427083333333 17.5  10.29296875 17.44140625  10.17578125 17.32421875  C 10.05859375 17.20703125  10 17.0572916666667  10 16.875  L 10 15.625  C 10 15.4427083333333  10.05859375 15.29296875  10.17578125 15.17578125  C 10.29296875 15.05859375  10.4427083333333 15  10.625 15  L 15 15  L 15 8.125  C 15 7.94270833333333  15.05859375 7.79296875  15.17578125 7.67578125  C 15.29296875 7.55859375  15.4427083333333 7.5  15.625 7.5  L 16.875 7.5  C 17.0572916666667 7.5  17.20703125 7.55859375  17.32421875 7.67578125  Z M 24.19921875 20.33203125  C 25.1497395833333 18.7044270833333  25.625 16.9270833333333  25.625 15  C 25.625 13.0729166666667  25.1497395833333 11.2955729166667  24.19921875 9.66796875  C 23.2486979166667 8.04036458333333  21.9596354166667 6.75130208333333  20.33203125 5.80078125  C 18.7044270833333 4.85026041666667  16.9270833333333 4.375  15 4.375  C 13.0729166666667 4.375  11.2955729166667 4.85026041666667  9.66796875 5.80078125  C 8.04036458333333 6.75130208333333  6.75130208333333 8.04036458333333  5.80078125 9.66796875  C 4.85026041666667 11.2955729166667  4.375 13.0729166666667  4.375 15  C 4.375 16.9270833333333  4.85026041666667 18.7044270833333  5.80078125 20.33203125  C 6.75130208333333 21.9596354166667  8.04036458333333 23.2486979166667  9.66796875 24.19921875  C 11.2955729166667 25.1497395833333  13.0729166666667 25.625  15 25.625  C 16.9270833333333 25.625  18.7044270833333 25.1497395833333  20.33203125 24.19921875  C 21.9596354166667 23.2486979166667  23.2486979166667 21.9596354166667  24.19921875 20.33203125  Z M 27.98828125 7.470703125  C 29.3294270833333 9.76888020833333  30 12.2786458333333  30 15  C 30 17.7213541666667  29.3294270833333 20.2311197916667  27.98828125 22.529296875  C 26.6471354166667 24.8274739583333  24.8274739583333 26.6471354166667  22.529296875 27.98828125  C 20.2311197916667 29.3294270833333  17.7213541666667 30  15 30  C 12.2786458333333 30  9.76888020833333 29.3294270833333  7.470703125 27.98828125  C 5.17252604166667 26.6471354166667  3.35286458333333 24.8274739583333  2.01171875 22.529296875  C 0.670572916666667 20.2311197916667  0 17.7213541666667  0 15  C 0 12.2786458333333  0.670572916666667 9.76888020833333  2.01171875 7.470703125  C 3.35286458333333 5.17252604166667  5.17252604166667 3.35286458333333  7.470703125 2.01171875  C 9.76888020833333 0.670572916666664  12.2786458333333 0  15 0  C 17.7213541666667 0  20.2311197916667 0.670572916666664  22.529296875 2.01171875  C 24.8274739583333 3.35286458333333  26.6471354166667 5.17252604166667  27.98828125 7.470703125  Z " fill-rule="nonzero" fill="#999999" stroke="none" transform="matrix(1 0 0 1 505 2725 )" />
  </g>
</svg>