<?xml version="1.0" encoding="utf-8"?>
<svg version="1.1" xmlns:xlink="http://www.w3.org/1999/xlink" width="203px" height="111px" xmlns="http://www.w3.org/2000/svg">
  <g transform="matrix(1 0 0 1 -208 -502 )">
    <path d="M 208 502  L 411 502  L 411 613  L 208 613  L 208 502  " fill-rule="nonzero" fill="#cccccc" stroke="none" />
    <path d="M 216 510  L 403 510  L 403 605  L 216 605  L 216 510  " fill-rule="nonzero" fill="#ffffff" stroke="none" />
    <path d="M 321.885 535.3  C 317.223 535.3  313.56 531.637  313.56 526.975  C 313.56 522.313  317.223 518.65  321.885 518.65  C 326.547 518.65  330.21 522.313  330.21 526.975  C 330.21 531.637  326.547 535.3  321.885 535.3  " fill-rule="nonzero" fill="#cccccc" stroke="none" />
    <path d="M 219 602  L 219 553.05  L 264.25 530.8  L 327.6 572.800985221675  L 363.8 544.15  L 400 572.800985221675  L 400 602  L 219 602  " fill-rule="nonzero" fill="#169bd5" stroke="none" />
  </g>
</svg>