<?xml version="1.0" encoding="utf-8"?>
<svg version="1.1" xmlns:xlink="http://www.w3.org/1999/xlink" width="227px" height="98px" xmlns="http://www.w3.org/2000/svg">
  <g transform="matrix(1 0 0 1 -208 -386 )">
    <path d="M 208 386  L 435 386  L 435 484  L 208 484  L 208 386  " fill-rule="nonzero" fill="#cccccc" stroke="none" />
    <path d="M 215 393  L 428 393  L 428 477  L 215 477  L 215 393  " fill-rule="nonzero" fill="#ffffff" stroke="none" />
    <path d="M 333.39 415.4  C 329.274 415.4  326.04 412.166  326.04 408.05  C 326.04 403.934  329.274 400.7  333.39 400.7  C 337.506 400.7  340.74 403.934  340.74 408.05  C 340.74 412.166  337.506 415.4  333.39 415.4  " fill-rule="nonzero" fill="#cccccc" stroke="none" />
    <path d="M 218 475  L 218 431.55  L 270 411.8  L 342.8 454.536563876652  L 384.4 423.65  L 426 454.536563876652  L 426 475  L 218 475  " fill-rule="nonzero" fill="#169bd5" stroke="none" />
  </g>
</svg>