<?xml version="1.0" encoding="utf-8"?>
<svg version="1.1" xmlns:xlink="http://www.w3.org/1999/xlink" width="144px" height="91px" xmlns="http://www.w3.org/2000/svg">
  <g transform="matrix(1 0 0 1 -210 -259 )">
    <path d="M 210 259  L 354 259  L 354 350  L 210 350  L 210 259  " fill-rule="nonzero" fill="#cccccc" stroke="none" />
    <path d="M 216 265  L 348 265  L 348 344  L 216 344  L 216 265  " fill-rule="nonzero" fill="#ffffff" stroke="none" />
    <path d="M 291.705 286.3  C 287.883 286.3  284.88 283.297  284.88 279.475  C 284.88 275.653  287.883 272.65  291.705 272.65  C 295.527 272.65  298.53 275.653  298.53 279.475  C 298.53 283.297  295.527 286.3  291.705 286.3  " fill-rule="nonzero" fill="#cccccc" stroke="none" />
    <path d="M 219 342  L 219 301.3  L 250.75 282.8  L 295.2 313.941666666667  L 320.6 293.9  L 346 313.941666666667  L 346 342  L 219 342  " fill-rule="nonzero" fill="#169bd5" stroke="none" />
  </g>
</svg>