<?xml version="1.0" encoding="utf-8"?>
<svg version="1.1" xmlns:xlink="http://www.w3.org/1999/xlink" width="153px" height="131px" xmlns="http://www.w3.org/2000/svg">
  <g transform="matrix(1 0 0 1 -571 -977 )">
    <path d="M 571 977  L 724 977  L 724 1108  L 571 1108  L 571 977  " fill-rule="nonzero" fill="#cccccc" stroke="none" />
    <path d="M 580 986  L 715 986  L 715 1099  L 580 1099  L 580 986  " fill-rule="nonzero" fill="#ffffff" stroke="none" />
    <path d="M 660.385 1016.3  C 654.883 1016.3  650.56 1011.977  650.56 1006.475  C 650.56 1000.973  654.883 996.65  660.385 996.65  C 665.887 996.65  670.21 1000.973  670.21 1006.475  C 670.21 1011.977  665.887 1016.3  660.385 1016.3  " fill-rule="nonzero" fill="#cccccc" stroke="none" />
    <path d="M 584 1096  L 584 1037.7  L 616 1011.2  L 660.8 1041.54509803922  L 686.4 1027.1  L 712 1041.54509803922  L 712 1096  L 584 1096  " fill-rule="nonzero" fill="#169bd5" stroke="none" />
  </g>
</svg>