<?xml version="1.0" encoding="utf-8"?>
<svg version="1.1" xmlns:xlink="http://www.w3.org/1999/xlink" width="123px" height="78px" xmlns="http://www.w3.org/2000/svg">
  <g transform="matrix(1 0 0 1 -568 -734 )">
    <path d="M 568 734  L 691 734  L 691 812  L 568 812  L 568 734  " fill-rule="nonzero" fill="#cccccc" stroke="none" />
    <path d="M 573 739  L 686 739  L 686 807  L 573 807  L 573 739  " fill-rule="nonzero" fill="#ffffff" stroke="none" />
    <path d="M 637.81 757.4  C 634.534 757.4  631.96 754.826  631.96 751.55  C 631.96 748.274  634.534 745.7  637.81 745.7  C 641.086 745.7  643.66 748.274  643.66 751.55  C 643.66 754.826  641.086 757.4  637.81 757.4  " fill-rule="nonzero" fill="#cccccc" stroke="none" />
    <path d="M 575 805  L 575 769.8  L 602.25 753.8  L 640.4 780.648780487805  L 662.2 763.4  L 684 780.648780487805  L 684 805  L 575 805  " fill-rule="nonzero" fill="#169bd5" stroke="none" />
  </g>
</svg>