<?xml version="1.0" encoding="utf-8"?>
<svg version="1.1" xmlns:xlink="http://www.w3.org/1999/xlink" width="7px" height="8px" xmlns="http://www.w3.org/2000/svg">
  <g transform="matrix(1 0 0 1 -428 -318 )">
    <path d="M 5.37972027972028 4  L 6.68181818181818 4.80208333333333  C 6.83193473193473 4.89236111111111  6.92902097902098 5.02690972222222  6.97307692307692 5.20572916666667  C 7.01713286713287 5.38454861111111  6.9967365967366 5.55381944444444  6.91188811188811 5.71354166666667  L 6.5986013986014 6.28645833333333  C 6.51375291375291 6.44618055555556  6.38729603729604 6.54947916666667  6.21923076923077 6.59635416666667  C 6.0511655011655 6.64322916666667  5.89207459207459 6.62152777777778  5.74195804195804 6.53125  L 4.43986013986014 5.734375  L 4.43986013986014 7.33333333333333  C 4.43986013986014 7.51388888888889  4.37785547785548 7.67013888888889  4.25384615384615 7.80208333333333  C 4.12983682983683 7.93402777777778  3.98298368298368 8  3.81328671328671 8  L 3.18671328671329 8  C 3.01701631701632 8  2.87016317016317 7.93402777777778  2.74615384615385 7.80208333333333  C 2.62214452214452 7.67013888888889  2.56013986013986 7.51388888888889  2.56013986013986 7.33333333333333  L 2.56013986013986 5.734375  L 1.25804195804196 6.53125  C 1.10792540792541 6.62152777777778  0.948834498834499 6.64322916666667  0.780769230769231 6.59635416666667  C 0.612703962703963 6.54947916666667  0.486247086247086 6.44618055555556  0.401398601398601 6.28645833333333  L 0.0881118881118881 5.71354166666667  C 0.00326340326340329 5.55381944444444  -0.0171328671328671 5.38454861111111  0.0269230769230769 5.20572916666667  C 0.070979020979021 5.02690972222222  0.168065268065268 4.89236111111111  0.318181818181818 4.80208333333333  L 1.62027972027972 4  L 0.318181818181818 3.19791666666667  C 0.168065268065268 3.10763888888889  0.070979020979021 2.97309027777778  0.0269230769230769 2.79427083333333  C -0.0171328671328671 2.61545138888889  0.00326340326340329 2.44618055555555  0.0881118881118881 2.28645833333333  L 0.401398601398601 1.71354166666667  C 0.486247086247086 1.55381944444444  0.612703962703963 1.45052083333333  0.780769230769231 1.40364583333333  C 0.948834498834499 1.35677083333333  1.10792540792541 1.37847222222222  1.25804195804196 1.46875  L 2.56013986013986 2.265625  L 2.56013986013986 0.666666666666667  C 2.56013986013986 0.486111111111111  2.62214452214452 0.329861111111111  2.74615384615385 0.197916666666667  C 2.87016317016317 0.0659722222222214  3.01701631701632 0  3.18671328671329 0  L 3.81328671328671 0  C 3.98298368298368 0  4.12983682983683 0.0659722222222214  4.25384615384615 0.197916666666667  C 4.37785547785548 0.329861111111111  4.43986013986014 0.486111111111111  4.43986013986014 0.666666666666667  L 4.43986013986014 2.265625  L 5.74195804195804 1.46875  C 5.89207459207459 1.37847222222222  6.0511655011655 1.35677083333333  6.21923076923077 1.40364583333333  C 6.38729603729604 1.45052083333333  6.51375291375291 1.55381944444444  6.5986013986014 1.71354166666667  L 6.91188811188811 2.28645833333333  C 6.9967365967366 2.44618055555555  7.01713286713287 2.61545138888889  6.97307692307692 2.79427083333333  C 6.92902097902098 2.97309027777778  6.83193473193473 3.10763888888889  6.68181818181818 3.19791666666667  L 5.37972027972028 4  Z " fill-rule="nonzero" fill="#ff0000" stroke="none" transform="matrix(1 0 0 1 428 318 )" />
  </g>
</svg>