<?xml version="1.0" encoding="utf-8"?>
<svg version="1.1" xmlns:xlink="http://www.w3.org/1999/xlink" width="33px" height="33px" xmlns="http://www.w3.org/2000/svg">
  <g transform="matrix(1 0 0 1 -36 -27 )">
    <path d="M 52.5 28  C 61.18 28  68 34.82  68 43.5  C 68 52.18  61.18 59  52.5 59  C 43.82 59  37 52.18  37 43.5  C 37 34.82  43.82 28  52.5 28  Z " fill-rule="nonzero" fill="#ffffff" stroke="none" fill-opacity="0" />
    <path d="M 52.5 28  C 61.18 28  68 34.82  68 43.5  C 68 52.18  61.18 59  52.5 59  C 43.82 59  37 52.18  37 43.5  C 37 34.82  43.82 28  52.5 28  Z " stroke-width="2" stroke="#1890f9" fill="none" />
  </g>
</svg>