<?xml version="1.0" encoding="utf-8"?>
<svg version="1.1" xmlns:xlink="http://www.w3.org/1999/xlink" width="12px" height="12px" viewBox="2371 563  12 12" xmlns="http://www.w3.org/2000/svg">
  <path d="M 2377 563  C 2380.36 563  2383 565.64  2383 569  C 2383 572.36  2380.36 575  2377 575  C 2373.64 575  2371 572.36  2371 569  C 2371 565.64  2373.64 563  2377 563  Z " fill-rule="nonzero" fill="#ffffff" stroke="none" />
  <path d="M 2377 563.5  C 2380.08 563.5  2382.5 565.92  2382.5 569  C 2382.5 572.08  2380.08 574.5  2377 574.5  C 2373.92 574.5  2371.5 572.08  2371.5 569  C 2371.5 565.92  2373.92 563.5  2377 563.5  Z " stroke-width="1" stroke="#797979" fill="none" />
  <path d="M 2377 572  C 2375.32 572  2374 570.68  2374 569  C 2374 567.32  2375.32 566  2377 566  C 2378.68 566  2380 567.32  2380 569  C 2380 570.68  2378.68 572  2377 572  " fill-rule="nonzero" fill="#797979" stroke="none" />
</svg>