<?xml version="1.0" encoding="utf-8"?>
<svg version="1.1" xmlns:xlink="http://www.w3.org/1999/xlink" width="12px" height="12px" viewBox="2371 647  12 12" xmlns="http://www.w3.org/2000/svg">
  <path d="M 2377 647  C 2380.36 647  2383 649.64  2383 653  C 2383 656.36  2380.36 659  2377 659  C 2373.64 659  2371 656.36  2371 653  C 2371 649.64  2373.64 647  2377 647  Z " fill-rule="nonzero" fill="#ffffff" stroke="none" />
  <path d="M 2377 647.5  C 2380.08 647.5  2382.5 649.92  2382.5 653  C 2382.5 656.08  2380.08 658.5  2377 658.5  C 2373.92 658.5  2371.5 656.08  2371.5 653  C 2371.5 649.92  2373.92 647.5  2377 647.5  Z " stroke-width="1" stroke="#797979" fill="none" />
  <path d="M 2377 656  C 2375.32 656  2374 654.68  2374 653  C 2374 651.32  2375.32 650  2377 650  C 2378.68 650  2380 651.32  2380 653  C 2380 654.68  2378.68 656  2377 656  " fill-rule="nonzero" fill="#797979" stroke="none" />
</svg>