<?xml version="1.0" encoding="utf-8"?>
<svg version="1.1" xmlns:xlink="http://www.w3.org/1999/xlink" width="12px" height="12px" viewBox="432 644  12 12" xmlns="http://www.w3.org/2000/svg">
  <path d="M 438 644  C 441.36 644  444 646.64  444 650  C 444 653.36  441.36 656  438 656  C 434.64 656  432 653.36  432 650  C 432 646.64  434.64 644  438 644  Z " fill-rule="nonzero" fill="#ffffff" stroke="none" />
  <path d="M 438 644.5  C 441.08 644.5  443.5 646.92  443.5 650  C 443.5 653.08  441.08 655.5  438 655.5  C 434.92 655.5  432.5 653.08  432.5 650  C 432.5 646.92  434.92 644.5  438 644.5  Z " stroke-width="1" stroke="#797979" fill="none" />
  <path d="M 438 653  C 436.32 653  435 651.68  435 650  C 435 648.32  436.32 647  438 647  C 439.68 647  441 648.32  441 650  C 441 651.68  439.68 653  438 653  " fill-rule="nonzero" fill="#797979" stroke="none" />
</svg>