<?xml version="1.0" encoding="utf-8"?>
<svg version="1.1" xmlns:xlink="http://www.w3.org/1999/xlink" width="12px" height="12px" viewBox="347 644  12 12" xmlns="http://www.w3.org/2000/svg">
  <path d="M 353 644  C 356.36 644  359 646.64  359 650  C 359 653.36  356.36 656  353 656  C 349.64 656  347 653.36  347 650  C 347 646.64  349.64 644  353 644  Z " fill-rule="nonzero" fill="#ffffff" stroke="none" />
  <path d="M 353 644.5  C 356.08 644.5  358.5 646.92  358.5 650  C 358.5 653.08  356.08 655.5  353 655.5  C 349.92 655.5  347.5 653.08  347.5 650  C 347.5 646.92  349.92 644.5  353 644.5  Z " stroke-width="1" stroke="#797979" fill="none" />
  <path d="M 353 653  C 351.32 653  350 651.68  350 650  C 350 648.32  351.32 647  353 647  C 354.68 647  356 648.32  356 650  C 356 651.68  354.68 653  353 653  " fill-rule="nonzero" fill="#797979" stroke="none" />
</svg>