<?xml version="1.0" encoding="utf-8"?>
<svg version="1.1" xmlns:xlink="http://www.w3.org/1999/xlink" width="23px" height="23px" xmlns="http://www.w3.org/2000/svg">
  <g transform="matrix(1 0 0 1 -1475 -219 )">
    <path d="M 1486.5 219  C 1492.94 219  1498 224.06  1498 230.5  C 1498 236.94  1492.94 242  1486.5 242  C 1480.06 242  1475 236.94  1475 230.5  C 1475 224.06  1480.06 219  1486.5 219  Z " fill-rule="nonzero" fill="#ffffff" stroke="none" />
    <path d="M 1486.5 219.5  C 1492.66 219.5  1497.5 224.34  1497.5 230.5  C 1497.5 236.66  1492.66 241.5  1486.5 241.5  C 1480.34 241.5  1475.5 236.66  1475.5 230.5  C 1475.5 224.34  1480.34 219.5  1486.5 219.5  Z " stroke-width="1" stroke="#797979" fill="none" />
  </g>
</svg>