<?xml version="1.0" encoding="utf-8"?>
<svg version="1.1" xmlns:xlink="http://www.w3.org/1999/xlink" width="24px" height="24px" xmlns="http://www.w3.org/2000/svg">
  <g transform="matrix(1 0 0 1 -1734 -429 )">
    <path d="M 9.99999999999996 18.59375  C 10.2708333333333 18.59375  10.5052083333333 18.4947916666667  10.703125 18.296875  L 20.296875 8.70312500000004  C 20.4947916666667 8.50520833333328  20.59375 8.27083333333328  20.59375 8.00000000000004  C 20.59375 7.72916666666668  20.4947916666667 7.49479166666668  20.296875 7.29687500000004  L 18.703125 5.70312500000004  C 18.5052083333333 5.50520833333328  18.2708333333333 5.40624999999996  18 5.40624999999996  C 17.7291666666667 5.40624999999996  17.4947916666667 5.50520833333328  17.296875 5.70312500000004  L 9.99999999999996 13  L 6.703125 9.703125  C 6.50520833333333 9.50520833333336  6.27083333333333 9.40625000000004  6 9.40625000000004  C 5.72916666666667 9.40625000000004  5.49479166666667 9.50520833333336  5.296875 9.703125  L 3.703125 11.296875  C 3.50520833333333 11.4947916666666  3.40625000000004 11.7291666666666  3.40625000000004 12  C 3.40625000000004 12.2708333333334  3.50520833333333 12.5052083333334  3.703125 12.703125  L 9.29687499999996 18.296875  C 9.49479166666669 18.4947916666667  9.72916666666669 18.59375  9.99999999999996 18.59375  Z M 22.6796875 1.32031250000004  C 23.5598958333333 2.20052083333328  24 3.2604166666666  24 4.5  L 24 19.5  C 24 20.7395833333333  23.5598958333333 21.7994791666667  22.6796875 22.6796875  C 21.7994791666667 23.5598958333333  20.7395833333333 24  19.5 24  L 4.5 24  C 3.26041666666669 24  2.20052083333331 23.5598958333333  1.32031250000004 22.6796875  C 0.440104166666649 21.7994791666667  0 20.7395833333333  0 19.5  L 0 4.5  C 0 3.2604166666666  0.440104166666649 2.20052083333328  1.32031250000004 1.32031250000004  C 2.20052083333331 0.44010416666668  3.26041666666669 0  4.5 0  L 19.5 0  C 20.7395833333333 0  21.7994791666667 0.44010416666668  22.6796875 1.32031250000004  Z " fill-rule="nonzero" fill="#333333" stroke="none" transform="matrix(1 0 0 1 1734 429 )" />
  </g>
</svg>