<?xml version="1.0" encoding="utf-8"?>
<svg version="1.1" xmlns:xlink="http://www.w3.org/1999/xlink" width="25px" height="25px" xmlns="http://www.w3.org/2000/svg">
  <g transform="matrix(1 0 0 1 -513 -394 )">
    <path d="M 10.4166666666666 19.3684895833334  C 10.6987847222222 19.3684895833334  10.9429253472222 19.2654079861112  11.1490885416666 19.0592447916666  L 21.142578125 9.06575520833338  C 21.3487413194444 8.85959201388883  21.4518229166666 8.61545138888883  21.4518229166666 8.33333333333338  C 21.4518229166666 8.05121527777779  21.3487413194444 7.80707465277779  21.142578125 7.60091145833338  L 19.482421875 5.94075520833338  C 19.2762586805556 5.73459201388883  19.0321180555556 5.63151041666662  18.75 5.63151041666662  C 18.4678819444444 5.63151041666662  18.2237413194444 5.73459201388883  18.017578125 5.94075520833338  L 10.4166666666666 13.5416666666666  L 6.982421875 10.107421875  C 6.77625868055555 9.90125868055558  6.53211805555555 9.79817708333338  6.25 9.79817708333338  C 5.96788194444445 9.79817708333338  5.72374131944445 9.90125868055558  5.517578125 10.107421875  L 3.857421875 11.767578125  C 3.65125868055555 11.9737413194444  3.54817708333338 12.2178819444444  3.54817708333338 12.5  C 3.54817708333338 12.7821180555556  3.65125868055555 13.0262586805556  3.857421875 13.232421875  L 9.68424479166662 19.0592447916666  C 9.89040798611114 19.2654079861112  10.1345486111111 19.3684895833334  10.4166666666666 19.3684895833334  Z M 23.6246744791666 1.37532552083338  C 24.5415581597222 2.29220920138883  25 3.39626736111104  25 4.6875  L 25 20.3125  C 25 21.6037326388888  24.5415581597222 22.7077907986112  23.6246744791666 23.6246744791666  C 22.7077907986111 24.5415581597222  21.6037326388889 25  20.3125 25  L 4.6875 25  C 3.39626736111114 25  2.29220920138886 24.5415581597222  1.37532552083338 23.6246744791666  C 0.45844184027776 22.7077907986112  0 21.6037326388888  0 20.3125  L 0 4.6875  C 0 3.39626736111104  0.45844184027776 2.29220920138883  1.37532552083338 1.37532552083338  C 2.29220920138886 0.458441840277792  3.39626736111114 0  4.6875 0  L 20.3125 0  C 21.6037326388889 0  22.7077907986111 0.458441840277792  23.6246744791666 1.37532552083338  Z " fill-rule="nonzero" fill="#333333" stroke="none" transform="matrix(1 0 0 1 513 394 )" />
  </g>
</svg>