<?xml version="1.0" encoding="utf-8"?>
<svg version="1.1" xmlns:xlink="http://www.w3.org/1999/xlink" width="12px" height="12px" viewBox="617 334  12 12" xmlns="http://www.w3.org/2000/svg">
  <path d="M 623 334  C 626.36 334  629 336.64  629 340  C 629 343.36  626.36 346  623 346  C 619.64 346  617 343.36  617 340  C 617 336.64  619.64 334  623 334  Z " fill-rule="nonzero" fill="#ffffff" stroke="none" />
  <path d="M 623 334.5  C 626.08 334.5  628.5 336.92  628.5 340  C 628.5 343.08  626.08 345.5  623 345.5  C 619.92 345.5  617.5 343.08  617.5 340  C 617.5 336.92  619.92 334.5  623 334.5  Z " stroke-width="1" stroke="#797979" fill="none" />
  <path d="M 623 343  C 621.32 343  620 341.68  620 340  C 620 338.32  621.32 337  623 337  C 624.68 337  626 338.32  626 340  C 626 341.68  624.68 343  623 343  " fill-rule="nonzero" fill="#797979" stroke="none" />
</svg>