<?xml version="1.0" encoding="utf-8"?>
<svg version="1.1" xmlns:xlink="http://www.w3.org/1999/xlink" width="22px" height="25px" xmlns="http://www.w3.org/2000/svg">
  <g transform="matrix(1 0 0 1 -1337 -100 )">
    <path d="M 16.5572916666667 0.948660714285715  L 21.0260416666667 5.30133928571428  C 21.2934027777778 5.56175595238095  21.5225694444444 5.91517857142857  21.7135416666667 6.36160714285714  C 21.9045138888889 6.80803571428572  22 7.2172619047619  22 7.58928571428572  L 22 23.6607142857143  C 22 24.0327380952381  21.8663194444444 24.3489583333333  21.5989583333333 24.609375  C 21.3315972222222 24.8697916666667  21.0069444444444 25  20.625 25  L 1.375 25  C 0.993055555555556 25  0.668402777777778 24.8697916666667  0.401041666666667 24.609375  C 0.133680555555556 24.3489583333333  0 24.0327380952381  0 23.6607142857143  L 0 1.33928571428572  C 0 0.967261904761904  0.133680555555556 0.651041666666666  0.401041666666667 0.390625  C 0.668402777777778 0.130208333333334  0.993055555555556 0  1.375 0  L 14.2083333333333 0  C 14.5902777777778 0  15.0104166666667 0.0930059523809534  15.46875 0.279017857142858  C 15.9270833333333 0.465029761904762  16.2899305555556 0.688244047619047  16.5572916666667 0.948660714285715  Z M 15.25390625 2.20424107142857  C 15.1393229166667 2.09263392857143  14.9435763888889 1.99032738095238  14.6666666666667 1.89732142857143  L 14.6666666666667 7.14285714285714  L 20.0520833333333 7.14285714285714  C 19.9565972222222 6.87313988095238  19.8515625 6.68247767857143  19.7369791666667 6.57087053571428  L 15.25390625 2.20424107142857  Z M 2 23  L 20 23  L 20 8.92857142857143  L 14.2083333333333 8.92857142857143  C 13.8263888888889 8.92857142857143  13.5017361111111 8.79836309523809  13.234375 8.53794642857143  C 12.9670138888889 8.27752976190476  12.8333333333333 7.96130952380952  12.8333333333333 7.58928571428572  L 12.8333333333333 2  L 2 2  L 2 23  Z M 7.11848958333333 19.9497767857143  L 6.14453125 19.9497767857143  L 6.14453125 21.4285714285714  L 10.1692708333333 21.4285714285714  L 10.1692708333333 19.9497767857143  L 9.09505208333333 19.9497767857143  L 10.5703125 17.7036830357143  C 10.6180555555556 17.6385788690476  10.6657986111111 17.5618489583333  10.7135416666667 17.4734933035714  C 10.7612847222222 17.3851376488095  10.7970920138889 17.3223586309524  10.8209635416667 17.28515625  C 10.8448350694444 17.2479538690476  10.8615451388889 17.2293526785714  10.87109375 17.2293526785714  L 10.8997395833333 17.2293526785714  C 10.9092881944444 17.2665550595238  10.9331597222222 17.3130580357143  10.9713541666667 17.3688616071429  C 10.9904513888889 17.4060639880952  11.0119357638889 17.4409412202381  11.0358072916667 17.4734933035714  C 11.0596788194444 17.5060453869048  11.0883246527778 17.5432477678571  11.1217447916667 17.5851004464286  C 11.1551649305556 17.626953125  11.1861979166667 17.6664806547619  11.21484375 17.7036830357143  L 12.7473958333333 19.9497767857143  L 11.6588541666667 19.9497767857143  L 11.6588541666667 21.4285714285714  L 15.8268229166667 21.4285714285714  L 15.8268229166667 19.9497767857143  L 14.8528645833333 19.9497767857143  L 12.1028645833333 16.1411830357143  L 14.8958333333333 12.20703125  L 15.85546875 12.20703125  L 15.85546875 10.7142857142857  L 11.859375 10.7142857142857  L 11.859375 12.20703125  L 12.9192708333333 12.20703125  L 11.4440104166667 14.4252232142857  C 11.4058159722222 14.4903273809524  11.3580729166667 14.5670572916667  11.30078125 14.6554129464286  C 11.2434895833333 14.7437686011905  11.2005208333333 14.8065476190476  11.171875 14.84375  L 11.1432291666667 14.8856026785714  L 11.1145833333333 14.8856026785714  C 11.1050347222222 14.848400297619  11.0811631944444 14.8018973214286  11.04296875 14.74609375  C 10.9856770833333 14.643787202381  10.9045138888889 14.5368303571429  10.7994791666667 14.4252232142857  L 9.28125 12.20703125  L 10.3697916666667 12.20703125  L 10.3697916666667 10.7142857142857  L 6.21614583333333 10.7142857142857  L 6.21614583333333 12.20703125  L 7.19010416666667 12.20703125  L 9.89713541666667 16.0016741071429  L 7.11848958333333 19.9497767857143  Z " fill-rule="nonzero" fill="#7f7f7f" stroke="none" transform="matrix(1 0 0 1 1337 100 )" />
  </g>
</svg>