<?xml version="1.0" encoding="utf-8"?>
<svg version="1.1" xmlns:xlink="http://www.w3.org/1999/xlink" width="243px" height="123px" xmlns="http://www.w3.org/2000/svg">
  <g transform="matrix(1 0 0 1 -214 -888 )">
    <path d="M 214 888  L 457 888  L 457 1011  L 214 1011  L 214 888  " fill-rule="nonzero" fill="#cccccc" stroke="none" />
    <path d="M 223 897  L 448 897  L 448 1002  L 223 1002  L 223 897  " fill-rule="nonzero" fill="#ffffff" stroke="none" />
    <path d="M 349.585 924.9  C 344.419 924.9  340.36 920.841  340.36 915.675  C 340.36 910.509  344.419 906.45  349.585 906.45  C 354.751 906.45  358.81 910.509  358.81 915.675  C 358.81 920.841  354.751 924.9  349.585 924.9  " fill-rule="nonzero" fill="#cccccc" stroke="none" />
    <path d="M 226 999  L 226 944.55  L 280.75 919.8  L 357.4 968.933333333333  L 401.2 934.65  L 445 968.933333333333  L 445 999  L 226 999  " fill-rule="nonzero" fill="#169bd5" stroke="none" />
  </g>
</svg>