<?xml version="1.0" encoding="utf-8"?>
<svg version="1.1" xmlns:xlink="http://www.w3.org/1999/xlink" width="124px" height="50px" xmlns="http://www.w3.org/2000/svg">
  <g transform="matrix(1 0 0 1 -156 -316 )">
    <path d="M 157 319  A 2 2 0 0 1 159 317 L 277 317  A 2 2 0 0 1 279 319 L 279 363  A 2 2 0 0 1 277 365 L 159 365  A 2 2 0 0 1 157 363 L 157 319  Z " fill-rule="nonzero" fill="#333333" stroke="none" fill-opacity="0.498039215686275" />
    <path d="M 156.5 319  A 2.5 2.5 0 0 1 159 316.5 L 277 316.5  A 2.5 2.5 0 0 1 279.5 319 L 279.5 363  A 2.5 2.5 0 0 1 277 365.5 L 159 365.5  A 2.5 2.5 0 0 1 156.5 363 L 156.5 319  Z " stroke-width="1" stroke="#cccccc" fill="none" stroke-opacity="0.698039215686274" />
  </g>
</svg>