<?xml version="1.0" encoding="utf-8"?>
<svg version="1.1" xmlns:xlink="http://www.w3.org/1999/xlink" width="111px" height="94px" xmlns="http://www.w3.org/2000/svg">
  <g transform="matrix(1 0 0 1 -400 -1446 )">
    <path d="M 400 1446  L 511 1446  L 511 1540  L 400 1540  L 400 1446  " fill-rule="nonzero" fill="#cccccc" stroke="none" />
    <path d="M 407 1453  L 504 1453  L 504 1533  L 407 1533  L 407 1453  " fill-rule="nonzero" fill="#ffffff" stroke="none" />
    <path d="M 464.77 1474.2  C 460.822 1474.2  457.72 1471.098  457.72 1467.15  C 457.72 1463.202  460.822 1460.1  464.77 1460.1  C 468.718 1460.1  471.82 1463.202  471.82 1467.15  C 471.82 1471.098  468.718 1474.2  464.77 1474.2  " fill-rule="nonzero" fill="#cccccc" stroke="none" />
    <path d="M 410 1531  L 410 1489.75  L 433 1471  L 465.2 1492.89189189189  L 483.6 1482.25  L 502 1492.89189189189  L 502 1531  L 410 1531  " fill-rule="nonzero" fill="#169bd5" stroke="none" />
  </g>
</svg>