<?xml version="1.0" encoding="utf-8"?>
<svg version="1.1" xmlns:xlink="http://www.w3.org/1999/xlink" width="12px" height="12px" viewBox="544 838  12 12" xmlns="http://www.w3.org/2000/svg">
  <path d="M 550 838  C 553.36 838  556 840.64  556 844  C 556 847.36  553.36 850  550 850  C 546.64 850  544 847.36  544 844  C 544 840.64  546.64 838  550 838  Z " fill-rule="nonzero" fill="#ffffff" stroke="none" />
  <path d="M 550 838.5  C 553.08 838.5  555.5 840.92  555.5 844  C 555.5 847.08  553.08 849.5  550 849.5  C 546.92 849.5  544.5 847.08  544.5 844  C 544.5 840.92  546.92 838.5  550 838.5  Z " stroke-width="1" stroke="#797979" fill="none" />
  <path d="M 550 847  C 548.32 847  547 845.68  547 844  C 547 842.32  548.32 841  550 841  C 551.68 841  553 842.32  553 844  C 553 845.68  551.68 847  550 847  " fill-rule="nonzero" fill="#797979" stroke="none" />
</svg>