<?xml version="1.0" encoding="utf-8"?>
<svg version="1.1" xmlns:xlink="http://www.w3.org/1999/xlink" width="12px" height="12px" viewBox="544 941  12 12" xmlns="http://www.w3.org/2000/svg">
  <path d="M 550 941  C 553.36 941  556 943.64  556 947  C 556 950.36  553.36 953  550 953  C 546.64 953  544 950.36  544 947  C 544 943.64  546.64 941  550 941  Z " fill-rule="nonzero" fill="#ffffff" stroke="none" />
  <path d="M 550 941.5  C 553.08 941.5  555.5 943.92  555.5 947  C 555.5 950.08  553.08 952.5  550 952.5  C 546.92 952.5  544.5 950.08  544.5 947  C 544.5 943.92  546.92 941.5  550 941.5  Z " stroke-width="1" stroke="#797979" fill="none" />
  <path d="M 550 950  C 548.32 950  547 948.68  547 947  C 547 945.32  548.32 944  550 944  C 551.68 944  553 945.32  553 947  C 553 948.68  551.68 950  550 950  " fill-rule="nonzero" fill="#797979" stroke="none" />
</svg>