<?xml version="1.0" encoding="utf-8"?>
<svg version="1.1" xmlns:xlink="http://www.w3.org/1999/xlink" width="12px" height="12px" viewBox="2464 3218  12 12" xmlns="http://www.w3.org/2000/svg">
  <path d="M 2470 3218  C 2473.36 3218  2476 3220.64  2476 3224  C 2476 3227.36  2473.36 3230  2470 3230  C 2466.64 3230  2464 3227.36  2464 3224  C 2464 3220.64  2466.64 3218  2470 3218  Z " fill-rule="nonzero" fill="#ffffff" stroke="none" />
  <path d="M 2470 3218.5  C 2473.08 3218.5  2475.5 3220.92  2475.5 3224  C 2475.5 3227.08  2473.08 3229.5  2470 3229.5  C 2466.92 3229.5  2464.5 3227.08  2464.5 3224  C 2464.5 3220.92  2466.92 3218.5  2470 3218.5  Z " stroke-width="1" stroke="#797979" fill="none" />
  <path d="M 2470 3227  C 2468.32 3227  2467 3225.68  2467 3224  C 2467 3222.32  2468.32 3221  2470 3221  C 2471.68 3221  2473 3222.32  2473 3224  C 2473 3225.68  2471.68 3227  2470 3227  " fill-rule="nonzero" fill="#797979" stroke="none" />
</svg>