<?xml version="1.0" encoding="utf-8"?>
<svg version="1.1" xmlns:xlink="http://www.w3.org/1999/xlink" width="12px" height="12px" viewBox="575 2458  12 12" xmlns="http://www.w3.org/2000/svg">
  <path d="M 581 2458  C 584.36 2458  587 2460.64  587 2464  C 587 2467.36  584.36 2470  581 2470  C 577.64 2470  575 2467.36  575 2464  C 575 2460.64  577.64 2458  581 2458  Z " fill-rule="nonzero" fill="#ffffff" stroke="none" />
  <path d="M 581 2458.5  C 584.08 2458.5  586.5 2460.92  586.5 2464  C 586.5 2467.08  584.08 2469.5  581 2469.5  C 577.92 2469.5  575.5 2467.08  575.5 2464  C 575.5 2460.92  577.92 2458.5  581 2458.5  Z " stroke-width="1" stroke="#797979" fill="none" />
  <path d="M 581 2467  C 579.32 2467  578 2465.68  578 2464  C 578 2462.32  579.32 2461  581 2461  C 582.68 2461  584 2462.32  584 2464  C 584 2465.68  582.68 2467  581 2467  " fill-rule="nonzero" fill="#797979" stroke="none" />
</svg>