<?xml version="1.0" encoding="utf-8"?>
<svg version="1.1" xmlns:xlink="http://www.w3.org/1999/xlink" width="12px" height="12px" viewBox="1653 2617  12 12" xmlns="http://www.w3.org/2000/svg">
  <path d="M 1659 2617  C 1662.36 2617  1665 2619.64  1665 2623  C 1665 2626.36  1662.36 2629  1659 2629  C 1655.64 2629  1653 2626.36  1653 2623  C 1653 2619.64  1655.64 2617  1659 2617  Z " fill-rule="nonzero" fill="#ffffff" stroke="none" />
  <path d="M 1659 2617.5  C 1662.08 2617.5  1664.5 2619.92  1664.5 2623  C 1664.5 2626.08  1662.08 2628.5  1659 2628.5  C 1655.92 2628.5  1653.5 2626.08  1653.5 2623  C 1653.5 2619.92  1655.92 2617.5  1659 2617.5  Z " stroke-width="1" stroke="#797979" fill="none" />
  <path d="M 1659 2626  C 1657.32 2626  1656 2624.68  1656 2623  C 1656 2621.32  1657.32 2620  1659 2620  C 1660.68 2620  1662 2621.32  1662 2623  C 1662 2624.68  1660.68 2626  1659 2626  " fill-rule="nonzero" fill="#797979" stroke="none" />
</svg>