<?xml version="1.0" encoding="utf-8"?>
<svg version="1.1" xmlns:xlink="http://www.w3.org/1999/xlink" width="12px" height="12px" viewBox="1653 2678  12 12" xmlns="http://www.w3.org/2000/svg">
  <path d="M 1659 2678  C 1662.36 2678  1665 2680.64  1665 2684  C 1665 2687.36  1662.36 2690  1659 2690  C 1655.64 2690  1653 2687.36  1653 2684  C 1653 2680.64  1655.64 2678  1659 2678  Z " fill-rule="nonzero" fill="#ffffff" stroke="none" />
  <path d="M 1659 2678.5  C 1662.08 2678.5  1664.5 2680.92  1664.5 2684  C 1664.5 2687.08  1662.08 2689.5  1659 2689.5  C 1655.92 2689.5  1653.5 2687.08  1653.5 2684  C 1653.5 2680.92  1655.92 2678.5  1659 2678.5  Z " stroke-width="1" stroke="#797979" fill="none" />
  <path d="M 1659 2687  C 1657.32 2687  1656 2685.68  1656 2684  C 1656 2682.32  1657.32 2681  1659 2681  C 1660.68 2681  1662 2682.32  1662 2684  C 1662 2685.68  1660.68 2687  1659 2687  " fill-rule="nonzero" fill="#797979" stroke="none" />
</svg>