<?xml version="1.0" encoding="utf-8"?>
<svg version="1.1" xmlns:xlink="http://www.w3.org/1999/xlink" width="12px" height="12px" viewBox="1653 2800  12 12" xmlns="http://www.w3.org/2000/svg">
  <path d="M 1659 2800  C 1662.36 2800  1665 2802.64  1665 2806  C 1665 2809.36  1662.36 2812  1659 2812  C 1655.64 2812  1653 2809.36  1653 2806  C 1653 2802.64  1655.64 2800  1659 2800  Z " fill-rule="nonzero" fill="#ffffff" stroke="none" />
  <path d="M 1659 2800.5  C 1662.08 2800.5  1664.5 2802.92  1664.5 2806  C 1664.5 2809.08  1662.08 2811.5  1659 2811.5  C 1655.92 2811.5  1653.5 2809.08  1653.5 2806  C 1653.5 2802.92  1655.92 2800.5  1659 2800.5  Z " stroke-width="1" stroke="#797979" fill="none" />
  <path d="M 1659 2809  C 1657.32 2809  1656 2807.68  1656 2806  C 1656 2804.32  1657.32 2803  1659 2803  C 1660.68 2803  1662 2804.32  1662 2806  C 1662 2807.68  1660.68 2809  1659 2809  " fill-rule="nonzero" fill="#797979" stroke="none" />
</svg>