<?xml version="1.0" encoding="utf-8"?>
<svg version="1.1" xmlns:xlink="http://www.w3.org/1999/xlink" width="12px" height="12px" viewBox="1653 2859  12 12" xmlns="http://www.w3.org/2000/svg">
  <path d="M 1659 2859  C 1662.36 2859  1665 2861.64  1665 2865  C 1665 2868.36  1662.36 2871  1659 2871  C 1655.64 2871  1653 2868.36  1653 2865  C 1653 2861.64  1655.64 2859  1659 2859  Z " fill-rule="nonzero" fill="#ffffff" stroke="none" />
  <path d="M 1659 2859.5  C 1662.08 2859.5  1664.5 2861.92  1664.5 2865  C 1664.5 2868.08  1662.08 2870.5  1659 2870.5  C 1655.92 2870.5  1653.5 2868.08  1653.5 2865  C 1653.5 2861.92  1655.92 2859.5  1659 2859.5  Z " stroke-width="1" stroke="#797979" fill="none" />
  <path d="M 1659 2868  C 1657.32 2868  1656 2866.68  1656 2865  C 1656 2863.32  1657.32 2862  1659 2862  C 1660.68 2862  1662 2863.32  1662 2865  C 1662 2866.68  1660.68 2868  1659 2868  " fill-rule="nonzero" fill="#797979" stroke="none" />
</svg>