<?xml version="1.0" encoding="utf-8"?>
<svg version="1.1" xmlns:xlink="http://www.w3.org/1999/xlink" width="12px" height="12px" viewBox="575 1738  12 12" xmlns="http://www.w3.org/2000/svg">
  <path d="M 581 1738  C 584.36 1738  587 1740.64  587 1744  C 587 1747.36  584.36 1750  581 1750  C 577.64 1750  575 1747.36  575 1744  C 575 1740.64  577.64 1738  581 1738  Z " fill-rule="nonzero" fill="#ffffff" stroke="none" />
  <path d="M 581 1738.5  C 584.08 1738.5  586.5 1740.92  586.5 1744  C 586.5 1747.08  584.08 1749.5  581 1749.5  C 577.92 1749.5  575.5 1747.08  575.5 1744  C 575.5 1740.92  577.92 1738.5  581 1738.5  Z " stroke-width="1" stroke="#797979" fill="none" />
  <path d="M 581 1747  C 579.32 1747  578 1745.68  578 1744  C 578 1742.32  579.32 1741  581 1741  C 582.68 1741  584 1742.32  584 1744  C 584 1745.68  582.68 1747  581 1747  " fill-rule="nonzero" fill="#797979" stroke="none" />
</svg>