<?xml version="1.0" encoding="utf-8"?>
<svg version="1.1" xmlns:xlink="http://www.w3.org/1999/xlink" width="12px" height="12px" viewBox="575 1778  12 12" xmlns="http://www.w3.org/2000/svg">
  <path d="M 581 1778  C 584.36 1778  587 1780.64  587 1784  C 587 1787.36  584.36 1790  581 1790  C 577.64 1790  575 1787.36  575 1784  C 575 1780.64  577.64 1778  581 1778  Z " fill-rule="nonzero" fill="#ffffff" stroke="none" />
  <path d="M 581 1778.5  C 584.08 1778.5  586.5 1780.92  586.5 1784  C 586.5 1787.08  584.08 1789.5  581 1789.5  C 577.92 1789.5  575.5 1787.08  575.5 1784  C 575.5 1780.92  577.92 1778.5  581 1778.5  Z " stroke-width="1" stroke="#797979" fill="none" />
  <path d="M 581 1787  C 579.32 1787  578 1785.68  578 1784  C 578 1782.32  579.32 1781  581 1781  C 582.68 1781  584 1782.32  584 1784  C 584 1785.68  582.68 1787  581 1787  " fill-rule="nonzero" fill="#797979" stroke="none" />
</svg>