<?xml version="1.0" encoding="utf-8"?>
<svg version="1.1" xmlns:xlink="http://www.w3.org/1999/xlink" width="12px" height="12px" viewBox="649 1778  12 12" xmlns="http://www.w3.org/2000/svg">
  <path d="M 655 1778  C 658.36 1778  661 1780.64  661 1784  C 661 1787.36  658.36 1790  655 1790  C 651.64 1790  649 1787.36  649 1784  C 649 1780.64  651.64 1778  655 1778  Z " fill-rule="nonzero" fill="#ffffff" stroke="none" />
  <path d="M 655 1778.5  C 658.08 1778.5  660.5 1780.92  660.5 1784  C 660.5 1787.08  658.08 1789.5  655 1789.5  C 651.92 1789.5  649.5 1787.08  649.5 1784  C 649.5 1780.92  651.92 1778.5  655 1778.5  Z " stroke-width="1" stroke="#797979" fill="none" />
  <path d="M 655 1787  C 653.32 1787  652 1785.68  652 1784  C 652 1782.32  653.32 1781  655 1781  C 656.68 1781  658 1782.32  658 1784  C 658 1785.68  656.68 1787  655 1787  " fill-rule="nonzero" fill="#797979" stroke="none" />
</svg>