<?xml version="1.0" encoding="utf-8"?>
<svg version="1.1" xmlns:xlink="http://www.w3.org/1999/xlink" width="12px" height="12px" viewBox="723 1778  12 12" xmlns="http://www.w3.org/2000/svg">
  <path d="M 729 1778  C 732.36 1778  735 1780.64  735 1784  C 735 1787.36  732.36 1790  729 1790  C 725.64 1790  723 1787.36  723 1784  C 723 1780.64  725.64 1778  729 1778  Z " fill-rule="nonzero" fill="#ffffff" stroke="none" />
  <path d="M 729 1778.5  C 732.08 1778.5  734.5 1780.92  734.5 1784  C 734.5 1787.08  732.08 1789.5  729 1789.5  C 725.92 1789.5  723.5 1787.08  723.5 1784  C 723.5 1780.92  725.92 1778.5  729 1778.5  Z " stroke-width="1" stroke="#797979" fill="none" />
  <path d="M 729 1787  C 727.32 1787  726 1785.68  726 1784  C 726 1782.32  727.32 1781  729 1781  C 730.68 1781  732 1782.32  732 1784  C 732 1785.68  730.68 1787  729 1787  " fill-rule="nonzero" fill="#797979" stroke="none" />
</svg>