<?xml version="1.0" encoding="utf-8"?>
<svg version="1.1" xmlns:xlink="http://www.w3.org/1999/xlink" width="12px" height="12px" viewBox="544 827  12 12" xmlns="http://www.w3.org/2000/svg">
  <path d="M 550 827  C 553.36 827  556 829.64  556 833  C 556 836.36  553.36 839  550 839  C 546.64 839  544 836.36  544 833  C 544 829.64  546.64 827  550 827  Z " fill-rule="nonzero" fill="#ffffff" stroke="none" />
  <path d="M 550 827.5  C 553.08 827.5  555.5 829.92  555.5 833  C 555.5 836.08  553.08 838.5  550 838.5  C 546.92 838.5  544.5 836.08  544.5 833  C 544.5 829.92  546.92 827.5  550 827.5  Z " stroke-width="1" stroke="#797979" fill="none" />
  <path d="M 550 836  C 548.32 836  547 834.68  547 833  C 547 831.32  548.32 830  550 830  C 551.68 830  553 831.32  553 833  C 553 834.68  551.68 836  550 836  " fill-rule="nonzero" fill="#797979" stroke="none" />
</svg>