<?xml version="1.0" encoding="utf-8"?>
<svg version="1.1" xmlns:xlink="http://www.w3.org/1999/xlink" width="12px" height="12px" viewBox="602 827  12 12" xmlns="http://www.w3.org/2000/svg">
  <path d="M 608 827  C 611.36 827  614 829.64  614 833  C 614 836.36  611.36 839  608 839  C 604.64 839  602 836.36  602 833  C 602 829.64  604.64 827  608 827  Z " fill-rule="nonzero" fill="#ffffff" stroke="none" />
  <path d="M 608 827.5  C 611.08 827.5  613.5 829.92  613.5 833  C 613.5 836.08  611.08 838.5  608 838.5  C 604.92 838.5  602.5 836.08  602.5 833  C 602.5 829.92  604.92 827.5  608 827.5  Z " stroke-width="1" stroke="#797979" fill="none" />
  <path d="M 608 836  C 606.32 836  605 834.68  605 833  C 605 831.32  606.32 830  608 830  C 609.68 830  611 831.32  611 833  C 611 834.68  609.68 836  608 836  " fill-rule="nonzero" fill="#797979" stroke="none" />
</svg>