<?xml version="1.0" encoding="utf-8"?>
<svg version="1.1" xmlns:xlink="http://www.w3.org/1999/xlink" width="12px" height="12px" viewBox="544 930  12 12" xmlns="http://www.w3.org/2000/svg">
  <path d="M 550 930  C 553.36 930  556 932.64  556 936  C 556 939.36  553.36 942  550 942  C 546.64 942  544 939.36  544 936  C 544 932.64  546.64 930  550 930  Z " fill-rule="nonzero" fill="#ffffff" stroke="none" />
  <path d="M 550 930.5  C 553.08 930.5  555.5 932.92  555.5 936  C 555.5 939.08  553.08 941.5  550 941.5  C 546.92 941.5  544.5 939.08  544.5 936  C 544.5 932.92  546.92 930.5  550 930.5  Z " stroke-width="1" stroke="#797979" fill="none" />
  <path d="M 550 939  C 548.32 939  547 937.68  547 936  C 547 934.32  548.32 933  550 933  C 551.68 933  553 934.32  553 936  C 553 937.68  551.68 939  550 939  " fill-rule="nonzero" fill="#797979" stroke="none" />
</svg>