<?xml version="1.0" encoding="utf-8"?>
<svg version="1.1" xmlns:xlink="http://www.w3.org/1999/xlink" width="12px" height="12px" viewBox="623 173  12 12" xmlns="http://www.w3.org/2000/svg">
  <path d="M 629 173  C 632.36 173  635 175.64  635 179  C 635 182.36  632.36 185  629 185  C 625.64 185  623 182.36  623 179  C 623 175.64  625.64 173  629 173  Z " fill-rule="nonzero" fill="#ffffff" stroke="none" />
  <path d="M 629 173.5  C 632.08 173.5  634.5 175.92  634.5 179  C 634.5 182.08  632.08 184.5  629 184.5  C 625.92 184.5  623.5 182.08  623.5 179  C 623.5 175.92  625.92 173.5  629 173.5  Z " stroke-width="1" stroke="#797979" fill="none" />
  <path d="M 629 182  C 627.32 182  626 180.68  626 179  C 626 177.32  627.32 176  629 176  C 630.68 176  632 177.32  632 179  C 632 180.68  630.68 182  629 182  " fill-rule="nonzero" fill="#797979" stroke="none" />
</svg>