<?xml version="1.0" encoding="utf-8"?>
<svg version="1.1" xmlns:xlink="http://www.w3.org/1999/xlink" width="20px" height="20px" xmlns="http://www.w3.org/2000/svg">
  <g transform="matrix(1 0 0 1 -1057 -304 )">
    <path d="M 1067 304  C 1072.6 304  1077 308.4  1077 314  C 1077 319.6  1072.6 324  1067 324  C 1061.4 324  1057 319.6  1057 314  C 1057 308.4  1061.4 304  1067 304  Z " fill-rule="nonzero" fill="#ffffff" stroke="none" />
    <path d="M 1067 304.5  C 1072.32 304.5  1076.5 308.68  1076.5 314  C 1076.5 319.32  1072.32 323.5  1067 323.5  C 1061.68 323.5  1057.5 319.32  1057.5 314  C 1057.5 308.68  1061.68 304.5  1067 304.5  Z " stroke-width="1" stroke="#797979" fill="none" />
  </g>
</svg>