<?xml version="1.0" encoding="utf-8"?>
<svg version="1.1" xmlns:xlink="http://www.w3.org/1999/xlink" width="12px" height="12px" viewBox="34 240  12 12" xmlns="http://www.w3.org/2000/svg">
  <path d="M 40 240  C 43.36 240  46 242.64  46 246  C 46 249.36  43.36 252  40 252  C 36.64 252  34 249.36  34 246  C 34 242.64  36.64 240  40 240  Z " fill-rule="nonzero" fill="#ffffff" stroke="none" />
  <path d="M 40 240.5  C 43.08 240.5  45.5 242.92  45.5 246  C 45.5 249.08  43.08 251.5  40 251.5  C 36.92 251.5  34.5 249.08  34.5 246  C 34.5 242.92  36.92 240.5  40 240.5  Z " stroke-width="1" stroke="#797979" fill="none" />
  <path d="M 40 249  C 38.32 249  37 247.68  37 246  C 37 244.32  38.32 243  40 243  C 41.68 243  43 244.32  43 246  C 43 247.68  41.68 249  40 249  " fill-rule="nonzero" fill="#797979" stroke="none" />
</svg>