<?xml version="1.0" encoding="utf-8"?>
<svg version="1.1" xmlns:xlink="http://www.w3.org/1999/xlink" width="9px" height="8px" xmlns="http://www.w3.org/2000/svg">
  <g transform="matrix(1 0 0 1 -1285 -316 )">
    <path d="M 8.90981963927856 3.67701863354037  C 8.96993987975952 3.73222912353347  9 3.79572118702553  9 3.86749482401656  C 9 3.93926846100759  8.96993987975952 4.00276052449965  8.90981963927856 4.05797101449275  L 4.70741482965932 7.91718426501035  C 4.64729458917836 7.97239475500345  4.57815631262525 8  4.5 8  C 4.42184368737475 8  4.35270541082164 7.97239475500345  4.29258517034068 7.91718426501035  L 0.0901803607214429 4.05797101449275  C 0.030060120240481 4.00276052449965  0 3.93926846100759  0 3.86749482401656  C 0 3.79572118702553  0.030060120240481 3.73222912353347  0.0901803607214429 3.67701863354037  L 0.541082164328657 3.26293995859213  C 0.601202404809619 3.20772946859903  0.670340681362726 3.18012422360248  0.748496993987976 3.18012422360248  C 0.826653306613227 3.18012422360248  0.895791583166333 3.20772946859903  0.955911823647295 3.26293995859213  L 4.5 6.5175983436853  L 8.04408817635271 3.26293995859213  C 8.10420841683367 3.20772946859903  8.17334669338677 3.18012422360248  8.25150300601202 3.18012422360248  C 8.32965931863728 3.18012422360248  8.39879759519038 3.20772946859903  8.45891783567134 3.26293995859213  L 8.90981963927856 3.67701863354037  Z M 8.90981963927856 0.496894409937888  C 8.96993987975952 0.552104899930986  9 0.61559696342305  9 0.687370600414079  C 9 0.759144237405105  8.96993987975952 0.82263630089717  8.90981963927856 0.877846790890269  L 4.70741482965932 4.73706004140787  C 4.64729458917836 4.79227053140097  4.57815631262525 4.81987577639752  4.5 4.81987577639752  C 4.42184368737475 4.81987577639752  4.35270541082164 4.79227053140097  4.29258517034068 4.73706004140787  L 0.0901803607214429 0.877846790890269  C 0.030060120240481 0.82263630089717  0 0.759144237405105  0 0.687370600414079  C 0 0.61559696342305  0.030060120240481 0.552104899930986  0.0901803607214429 0.496894409937888  L 0.541082164328657 0.0828157349896479  C 0.601202404809619 0.0276052449965487  0.670340681362726 0  0.748496993987976 0  C 0.826653306613227 0  0.895791583166333 0.0276052449965487  0.955911823647295 0.0828157349896479  L 4.5 3.33747412008282  L 8.04408817635271 0.0828157349896479  C 8.10420841683367 0.0276052449965487  8.17334669338677 0  8.25150300601202 0  C 8.32965931863728 0  8.39879759519038 0.0276052449965487  8.45891783567134 0.0828157349896479  L 8.90981963927856 0.496894409937888  Z " fill-rule="nonzero" fill="#666666" stroke="none" transform="matrix(1 0 0 1 1285 316 )" />
  </g>
</svg>