<?xml version="1.0" encoding="utf-8"?>
<svg version="1.1" xmlns:xlink="http://www.w3.org/1999/xlink" width="20px" height="20px" xmlns="http://www.w3.org/2000/svg">
  <g transform="matrix(1 0 0 1 -1037 -304 )">
    <path d="M 1047 304  C 1052.6 304  1057 308.4  1057 314  C 1057 319.6  1052.6 324  1047 324  C 1041.4 324  1037 319.6  1037 314  C 1037 308.4  1041.4 304  1047 304  Z " fill-rule="nonzero" fill="#ffffff" stroke="none" />
    <path d="M 1047 304.5  C 1052.32 304.5  1056.5 308.68  1056.5 314  C 1056.5 319.32  1052.32 323.5  1047 323.5  C 1041.68 323.5  1037.5 319.32  1037.5 314  C 1037.5 308.68  1041.68 304.5  1047 304.5  Z " stroke-width="1" stroke="#797979" fill="none" />
  </g>
</svg>