<?xml version="1.0" encoding="utf-8"?>
<svg version="1.1" xmlns:xlink="http://www.w3.org/1999/xlink" width="12px" height="12px" viewBox="554 173  12 12" xmlns="http://www.w3.org/2000/svg">
  <path d="M 560 173  C 563.36 173  566 175.64  566 179  C 566 182.36  563.36 185  560 185  C 556.64 185  554 182.36  554 179  C 554 175.64  556.64 173  560 173  Z " fill-rule="nonzero" fill="#ffffff" stroke="none" />
  <path d="M 560 173.5  C 563.08 173.5  565.5 175.92  565.5 179  C 565.5 182.08  563.08 184.5  560 184.5  C 556.92 184.5  554.5 182.08  554.5 179  C 554.5 175.92  556.92 173.5  560 173.5  Z " stroke-width="1" stroke="#797979" fill="none" />
  <path d="M 560 182  C 558.32 182  557 180.68  557 179  C 557 177.32  558.32 176  560 176  C 561.68 176  563 177.32  563 179  C 563 180.68  561.68 182  560 182  " fill-rule="nonzero" fill="#797979" stroke="none" />
</svg>