<?xml version="1.0" encoding="utf-8"?>
<svg version="1.1" xmlns:xlink="http://www.w3.org/1999/xlink" width="171px" height="103px" xmlns="http://www.w3.org/2000/svg">
  <g transform="matrix(1 0 0 1 -425 -940 )">
    <path d="M 425 940  L 596 940  L 596 1043  L 425 1043  L 425 940  " fill-rule="nonzero" fill="#cccccc" stroke="none" />
    <path d="M 432 947  L 589 947  L 589 1036  L 432 1036  L 432 947  " fill-rule="nonzero" fill="#ffffff" stroke="none" />
    <path d="M 521.645 970.9  C 517.319 970.9  513.92 967.501  513.92 963.175  C 513.92 958.849  517.319 955.45  521.645 955.45  C 525.971 955.45  529.37 958.849  529.37 963.175  C 529.37 967.501  525.971 970.9  521.645 970.9  " fill-rule="nonzero" fill="#cccccc" stroke="none" />
    <path d="M 435 1034  L 435 987.8  L 473 966.8  L 526.2 1003.64210526316  L 556.6 979.4  L 587 1003.64210526316  L 587 1034  L 435 1034  " fill-rule="nonzero" fill="#169bd5" stroke="none" />
  </g>
</svg>