<?xml version="1.0" encoding="utf-8"?>
<svg version="1.1" xmlns:xlink="http://www.w3.org/1999/xlink" width="12px" height="12px" viewBox="414 608  12 12" xmlns="http://www.w3.org/2000/svg">
  <path d="M 420 608  C 423.36 608  426 610.64  426 614  C 426 617.36  423.36 620  420 620  C 416.64 620  414 617.36  414 614  C 414 610.64  416.64 608  420 608  Z " fill-rule="nonzero" fill="#ffffff" stroke="none" />
  <path d="M 420 608.5  C 423.08 608.5  425.5 610.92  425.5 614  C 425.5 617.08  423.08 619.5  420 619.5  C 416.92 619.5  414.5 617.08  414.5 614  C 414.5 610.92  416.92 608.5  420 608.5  Z " stroke-width="1" stroke="#797979" fill="none" />
  <path d="M 420 617  C 418.32 617  417 615.68  417 614  C 417 612.32  418.32 611  420 611  C 421.68 611  423 612.32  423 614  C 423 615.68  421.68 617  420 617  " fill-rule="nonzero" fill="#797979" stroke="none" />
</svg>