<?xml version="1.0" encoding="utf-8"?>
<svg version="1.1" xmlns:xlink="http://www.w3.org/1999/xlink" width="12px" height="12px" viewBox="547 608  12 12" xmlns="http://www.w3.org/2000/svg">
  <path d="M 553 608  C 556.36 608  559 610.64  559 614  C 559 617.36  556.36 620  553 620  C 549.64 620  547 617.36  547 614  C 547 610.64  549.64 608  553 608  Z " fill-rule="nonzero" fill="#ffffff" stroke="none" />
  <path d="M 553 608.5  C 556.08 608.5  558.5 610.92  558.5 614  C 558.5 617.08  556.08 619.5  553 619.5  C 549.92 619.5  547.5 617.08  547.5 614  C 547.5 610.92  549.92 608.5  553 608.5  Z " stroke-width="1" stroke="#797979" fill="none" />
  <path d="M 553 617  C 551.32 617  550 615.68  550 614  C 550 612.32  551.32 611  553 611  C 554.68 611  556 612.32  556 614  C 556 615.68  554.68 617  553 617  " fill-rule="nonzero" fill="#797979" stroke="none" />
</svg>