<?xml version="1.0" encoding="utf-8"?>
<svg version="1.1" xmlns:xlink="http://www.w3.org/1999/xlink" width="123px" height="108px" xmlns="http://www.w3.org/2000/svg">
  <g transform="matrix(1 0 0 1 -540 -825 )">
    <path d="M 540 825  L 663 825  L 663 933  L 540 933  L 540 825  " fill-rule="nonzero" fill="#cccccc" stroke="none" />
    <path d="M 548 833  L 655 833  L 655 925  L 548 925  L 548 833  " fill-rule="nonzero" fill="#ffffff" stroke="none" />
    <path d="M 612.06 857.4  C 607.524 857.4  603.96 853.836  603.96 849.3  C 603.96 844.764  607.524 841.2  612.06 841.2  C 616.596 841.2  620.16 844.764  620.16 849.3  C 620.16 853.836  616.596 857.4  612.06 857.4  " fill-rule="nonzero" fill="#cccccc" stroke="none" />
    <path d="M 551 923  L 551 875.15  L 576.5 853.4  L 612.2 877.165853658537  L 632.6 866.45  L 653 877.165853658537  L 653 923  L 551 923  " fill-rule="nonzero" fill="#169bd5" stroke="none" />
  </g>
</svg>