<?xml version="1.0" encoding="utf-8"?>
<svg version="1.1" xmlns:xlink="http://www.w3.org/1999/xlink" width="12px" height="12px" viewBox="718 656  12 12" xmlns="http://www.w3.org/2000/svg">
  <path d="M 724 656  C 727.36 656  730 658.64  730 662  C 730 665.36  727.36 668  724 668  C 720.64 668  718 665.36  718 662  C 718 658.64  720.64 656  724 656  Z " fill-rule="nonzero" fill="#ffffff" stroke="none" />
  <path d="M 724 656.5  C 727.08 656.5  729.5 658.92  729.5 662  C 729.5 665.08  727.08 667.5  724 667.5  C 720.92 667.5  718.5 665.08  718.5 662  C 718.5 658.92  720.92 656.5  724 656.5  Z " stroke-width="1" stroke="#797979" fill="none" />
  <path d="M 724 665  C 722.32 665  721 663.68  721 662  C 721 660.32  722.32 659  724 659  C 725.68 659  727 660.32  727 662  C 727 663.68  725.68 665  724 665  " fill-rule="nonzero" fill="#797979" stroke="none" />
</svg>