<?xml version="1.0" encoding="utf-8"?>
<svg version="1.1" xmlns:xlink="http://www.w3.org/1999/xlink" width="12px" height="12px" viewBox="488 656  12 12" xmlns="http://www.w3.org/2000/svg">
  <path d="M 494 656  C 497.36 656  500 658.64  500 662  C 500 665.36  497.36 668  494 668  C 490.64 668  488 665.36  488 662  C 488 658.64  490.64 656  494 656  Z " fill-rule="nonzero" fill="#ffffff" stroke="none" />
  <path d="M 494 656.5  C 497.08 656.5  499.5 658.92  499.5 662  C 499.5 665.08  497.08 667.5  494 667.5  C 490.92 667.5  488.5 665.08  488.5 662  C 488.5 658.92  490.92 656.5  494 656.5  Z " stroke-width="1" stroke="#797979" fill="none" />
  <path d="M 494 665  C 492.32 665  491 663.68  491 662  C 491 660.32  492.32 659  494 659  C 495.68 659  497 660.32  497 662  C 497 663.68  495.68 665  494 665  " fill-rule="nonzero" fill="#797979" stroke="none" />
</svg>