<?xml version="1.0" encoding="utf-8"?>
<svg version="1.1" xmlns:xlink="http://www.w3.org/1999/xlink" width="46px" height="41px" xmlns="http://www.w3.org/2000/svg">
  <g transform="matrix(1 0 0 1 -364 -362 )">
    <path d="M 364 362  L 410 362  L 410 403  L 364 403  L 364 362  " fill-rule="nonzero" fill="#cccccc" stroke="none" />
    <path d="M 367 365  L 407 365  L 407 400  L 367 400  L 367 365  " fill-rule="nonzero" fill="#ffffff" stroke="none" />
    <path d="M 390.995 374.3  C 389.273 374.3  387.92 372.947  387.92 371.225  C 387.92 369.503  389.273 368.15  390.995 368.15  C 392.717 368.15  394.07 369.503  394.07 371.225  C 394.07 372.947  392.717 374.3  390.995 374.3  " fill-rule="nonzero" fill="#cccccc" stroke="none" />
    <path d="M 368 399  L 368 380.85  L 377.5 372.6  L 390.8 381.352173913043  L 398.4 377.55  L 406 381.352173913043  L 406 399  L 368 399  " fill-rule="nonzero" fill="#169bd5" stroke="none" />
  </g>
</svg>