<?xml version="1.0" encoding="utf-8"?>
<svg version="1.1" xmlns:xlink="http://www.w3.org/1999/xlink" width="46px" height="41px" xmlns="http://www.w3.org/2000/svg">
  <g transform="matrix(1 0 0 1 -324 -402 )">
    <path d="M 324 402  L 370 402  L 370 443  L 324 443  L 324 402  " fill-rule="nonzero" fill="#cccccc" stroke="none" />
    <path d="M 327 405  L 367 405  L 367 440  L 327 440  L 327 405  " fill-rule="nonzero" fill="#ffffff" stroke="none" />
    <path d="M 350.995 414.3  C 349.273 414.3  347.92 412.947  347.92 411.225  C 347.92 409.503  349.273 408.15  350.995 408.15  C 352.717 408.15  354.07 409.503  354.07 411.225  C 354.07 412.947  352.717 414.3  350.995 414.3  " fill-rule="nonzero" fill="#cccccc" stroke="none" />
    <path d="M 328 439  L 328 420.85  L 337.5 412.6  L 350.8 421.352173913043  L 358.4 417.55  L 366 421.352173913043  L 366 439  L 328 439  " fill-rule="nonzero" fill="#169bd5" stroke="none" />
  </g>
</svg>