<?xml version="1.0" encoding="utf-8"?>
<svg version="1.1" xmlns:xlink="http://www.w3.org/1999/xlink" width="20px" height="20px" xmlns="http://www.w3.org/2000/svg">
  <g transform="matrix(1 0 0 1 -1074 -424 )">
    <path d="M 1084 424  C 1089.6 424  1094 428.4  1094 434  C 1094 439.6  1089.6 444  1084 444  C 1078.4 444  1074 439.6  1074 434  C 1074 428.4  1078.4 424  1084 424  Z " fill-rule="nonzero" fill="#ffffff" stroke="none" />
    <path d="M 1084 424.5  C 1089.32 424.5  1093.5 428.68  1093.5 434  C 1093.5 439.32  1089.32 443.5  1084 443.5  C 1078.68 443.5  1074.5 439.32  1074.5 434  C 1074.5 428.68  1078.68 424.5  1084 424.5  Z " stroke-width="1" stroke="#797979" fill="none" />
  </g>
</svg>