<?xml version="1.0" encoding="utf-8"?>
<svg version="1.1" xmlns:xlink="http://www.w3.org/1999/xlink" width="26px" height="19px" xmlns="http://www.w3.org/2000/svg">
  <defs>
    <mask fill="white" id="clip2">
      <path d="M 13.6383928571428 18.77734375  C 13.4642857142857 18.92578125  13.2514880952381 19  13 19  C 12.7485119047619 19  12.5357142857143 18.92578125  12.3616071428572 18.77734375  L 3.30803571428574 11.3307291666666  C 3.21130952380955 11.2647569444443  3.07831101190471 11.1575520833334  2.90904017857149 11.0091145833334  C 2.73976934523806 10.8606770833334  2.47135416666658 10.5906032986111  2.10379464285723 10.1988932291666  C 1.73623511904768 9.80718315972229  1.40736607142851 9.40516493055566  1.1171875 8.99283854166663  C 0.827008928571486 8.58051215277771  0.56826636904768 8.08159722222229  0.340959821428514 7.49609375  C 0.113653273809549 6.91059027777771  0 6.34157986111109  0 5.7890625  C 0 3.97482638888891  0.614211309523806 2.55642361111109  1.84263392857149 1.53385416666663  C 3.07105654761903 0.511284722222285  4.76860119047619 0  6.93526785714277 0  C 7.53497023809529 0  8.14676339285723 0.0886501736110858  8.77064732142851 0.265950520833371  C 9.39453125 0.443250868055657  9.97488839285723 0.682400173611086  10.51171875 0.9833984375  C 11.0485491071428 1.28439670138891  11.5104166666666 1.56684027777771  11.8973214285715 1.83072916666663  C 12.2842261904762 2.09461805555566  12.6517857142857 2.375  13 2.671875  C 13.3482142857143 2.375  13.7157738095238 2.09461805555566  14.1026785714285 1.83072916666663  C 14.4895833333334 1.56684027777771  14.9514508928572 1.28439670138891  15.48828125 0.9833984375  C 16.0251116071428 0.682400173611086  16.60546875 0.443250868055657  17.2293526785715 0.265950520833371  C 17.8532366071428 0.0886501736110858  18.4650297619047 0  19.0647321428572 0  C 21.2313988095238 0  22.928943452381 0.511284722222285  24.1573660714285 1.53385416666663  C 25.3857886904762 2.55642361111109  26 3.97482638888891  26 5.7890625  C 26 7.61154513888891  24.8924851190477 9.46701388888891  22.6774553571428 11.35546875  L 13.6383928571428 18.77734375  Z " fill-rule="evenodd" />
    </mask>
  </defs>
  <g transform="matrix(1 0 0 1 -110 -536 )">
    <path d="M 13.6383928571428 18.77734375  C 13.4642857142857 18.92578125  13.2514880952381 19  13 19  C 12.7485119047619 19  12.5357142857143 18.92578125  12.3616071428572 18.77734375  L 3.30803571428574 11.3307291666666  C 3.21130952380955 11.2647569444443  3.07831101190471 11.1575520833334  2.90904017857149 11.0091145833334  C 2.73976934523806 10.8606770833334  2.47135416666658 10.5906032986111  2.10379464285723 10.1988932291666  C 1.73623511904768 9.80718315972229  1.40736607142851 9.40516493055566  1.1171875 8.99283854166663  C 0.827008928571486 8.58051215277771  0.56826636904768 8.08159722222229  0.340959821428514 7.49609375  C 0.113653273809549 6.91059027777771  0 6.34157986111109  0 5.7890625  C 0 3.97482638888891  0.614211309523806 2.55642361111109  1.84263392857149 1.53385416666663  C 3.07105654761903 0.511284722222285  4.76860119047619 0  6.93526785714277 0  C 7.53497023809529 0  8.14676339285723 0.0886501736110858  8.77064732142851 0.265950520833371  C 9.39453125 0.443250868055657  9.97488839285723 0.682400173611086  10.51171875 0.9833984375  C 11.0485491071428 1.28439670138891  11.5104166666666 1.56684027777771  11.8973214285715 1.83072916666663  C 12.2842261904762 2.09461805555566  12.6517857142857 2.375  13 2.671875  C 13.3482142857143 2.375  13.7157738095238 2.09461805555566  14.1026785714285 1.83072916666663  C 14.4895833333334 1.56684027777771  14.9514508928572 1.28439670138891  15.48828125 0.9833984375  C 16.0251116071428 0.682400173611086  16.60546875 0.443250868055657  17.2293526785715 0.265950520833371  C 17.8532366071428 0.0886501736110858  18.4650297619047 0  19.0647321428572 0  C 21.2313988095238 0  22.928943452381 0.511284722222285  24.1573660714285 1.53385416666663  C 25.3857886904762 2.55642361111109  26 3.97482638888891  26 5.7890625  C 26 7.61154513888891  24.8924851190477 9.46701388888891  22.6774553571428 11.35546875  L 13.6383928571428 18.77734375  Z " fill-rule="nonzero" fill="#ffffff" stroke="none" transform="matrix(1 0 0 1 110 536 )" />
    <path d="M 13.6383928571428 18.77734375  C 13.4642857142857 18.92578125  13.2514880952381 19  13 19  C 12.7485119047619 19  12.5357142857143 18.92578125  12.3616071428572 18.77734375  L 3.30803571428574 11.3307291666666  C 3.21130952380955 11.2647569444443  3.07831101190471 11.1575520833334  2.90904017857149 11.0091145833334  C 2.73976934523806 10.8606770833334  2.47135416666658 10.5906032986111  2.10379464285723 10.1988932291666  C 1.73623511904768 9.80718315972229  1.40736607142851 9.40516493055566  1.1171875 8.99283854166663  C 0.827008928571486 8.58051215277771  0.56826636904768 8.08159722222229  0.340959821428514 7.49609375  C 0.113653273809549 6.91059027777771  0 6.34157986111109  0 5.7890625  C 0 3.97482638888891  0.614211309523806 2.55642361111109  1.84263392857149 1.53385416666663  C 3.07105654761903 0.511284722222285  4.76860119047619 0  6.93526785714277 0  C 7.53497023809529 0  8.14676339285723 0.0886501736110858  8.77064732142851 0.265950520833371  C 9.39453125 0.443250868055657  9.97488839285723 0.682400173611086  10.51171875 0.9833984375  C 11.0485491071428 1.28439670138891  11.5104166666666 1.56684027777771  11.8973214285715 1.83072916666663  C 12.2842261904762 2.09461805555566  12.6517857142857 2.375  13 2.671875  C 13.3482142857143 2.375  13.7157738095238 2.09461805555566  14.1026785714285 1.83072916666663  C 14.4895833333334 1.56684027777771  14.9514508928572 1.28439670138891  15.48828125 0.9833984375  C 16.0251116071428 0.682400173611086  16.60546875 0.443250868055657  17.2293526785715 0.265950520833371  C 17.8532366071428 0.0886501736110858  18.4650297619047 0  19.0647321428572 0  C 21.2313988095238 0  22.928943452381 0.511284722222285  24.1573660714285 1.53385416666663  C 25.3857886904762 2.55642361111109  26 3.97482638888891  26 5.7890625  C 26 7.61154513888891  24.8924851190477 9.46701388888891  22.6774553571428 11.35546875  L 13.6383928571428 18.77734375  Z " stroke-width="2" stroke="#797979" fill="none" transform="matrix(1 0 0 1 110 536 )" mask="url(#clip2)" />
  </g>
</svg>