<?xml version="1.0" encoding="utf-8"?>
<svg version="1.1" xmlns:xlink="http://www.w3.org/1999/xlink" width="12px" height="12px" viewBox="634 1833  12 12" xmlns="http://www.w3.org/2000/svg">
  <path d="M 640 1833  C 643.36 1833  646 1835.64  646 1839  C 646 1842.36  643.36 1845  640 1845  C 636.64 1845  634 1842.36  634 1839  C 634 1835.64  636.64 1833  640 1833  Z " fill-rule="nonzero" fill="#ffffff" stroke="none" />
  <path d="M 640 1833.5  C 643.08 1833.5  645.5 1835.92  645.5 1839  C 645.5 1842.08  643.08 1844.5  640 1844.5  C 636.92 1844.5  634.5 1842.08  634.5 1839  C 634.5 1835.92  636.92 1833.5  640 1833.5  Z " stroke-width="1" stroke="#797979" fill="none" />
  <path d="M 640 1842  C 638.32 1842  637 1840.68  637 1839  C 637 1837.32  638.32 1836  640 1836  C 641.68 1836  643 1837.32  643 1839  C 643 1840.68  641.68 1842  640 1842  " fill-rule="nonzero" fill="#797979" stroke="none" />
</svg>