<?xml version="1.0" encoding="utf-8"?>
<svg version="1.1" xmlns:xlink="http://www.w3.org/1999/xlink" width="15px" height="15px" xmlns="http://www.w3.org/2000/svg">
  <defs>
    <mask fill="white" id="clip2">
      <path d="M 9.19921875 9.19921875  C 9.98948317307693 8.40895432692311  10.3846153846154 7.45793269230768  10.3846153846154 6.34615384615389  C 10.3846153846154 5.23437500000003  9.98948317307693 4.28335336538461  9.19921875 3.49308894230771  C 8.40895432692307 2.70282451923074  7.4579326923077 2.30769230769229  6.34615384615384 2.30769230769229  C 5.23437499999999 2.30769230769229  4.28335336538463 2.70282451923074  3.4930889423077 3.49308894230771  C 2.70282451923076 4.28335336538461  2.30769230769231 5.23437500000003  2.30769230769231 6.34615384615389  C 2.30769230769231 7.45793269230768  2.70282451923076 8.40895432692311  3.4930889423077 9.19921875  C 4.28335336538463 9.98948317307689  5.23437499999999 10.3846153846154  6.34615384615384 10.3846153846154  C 7.4579326923077 10.3846153846154  8.40895432692307 9.98948317307689  9.19921875 9.19921875  Z M 14.6664663461539 13.0348557692308  C 14.8888221153846 13.2572115384616  15 13.5276442307693  15 13.8461538461538  C 15 14.1586538461538  14.8858173076923 14.4290865384616  14.6574519230769 14.6574519230769  C 14.4290865384615 14.8858173076923  14.1586538461539 15  13.8461538461539 15  C 13.5216346153846 15  13.2512019230769 14.8858173076923  13.0348557692308 14.6574519230769  L 9.94290865384614 11.5745192307692  C 8.86718749999999 12.3197115384616  7.66826923076924 12.6923076923076  6.34615384615384 12.6923076923076  C 5.48677884615385 12.6923076923076  4.66496394230769 12.5255408653846  3.88070913461539 12.1920072115385  C 3.09645432692308 11.8584735576924  2.42037259615384 11.4077524038462  1.85246394230769 10.83984375  C 1.28455528846153 10.2719350961538  0.833834134615389 9.59585336538458  0.500300480769222 8.81159855769229  C 0.166766826923082 8.02734375  0 7.20552884615387  0 6.34615384615389  C 0 5.48677884615384  0.166766826923082 4.66496394230771  0.500300480769222 3.88070913461542  C 0.833834134615389 3.09645432692305  1.28455528846153 2.42037259615389  1.85246394230769 1.85246394230771  C 2.42037259615384 1.28455528846153  3.09645432692308 0.83383413461542  3.88070913461539 0.500300480769237  C 4.66496394230769 0.166766826923053  5.48677884615385 0  6.34615384615384 0  C 7.20552884615384 0  8.02734375 0.166766826923053  8.81159855769231 0.500300480769237  C 9.59585336538461 0.83383413461542  10.2719350961539 1.28455528846153  10.83984375 1.85246394230771  C 11.4077524038461 2.42037259615389  11.8584735576923 3.09645432692305  12.1920072115385 3.88070913461542  C 12.5255408653846 4.66496394230771  12.6923076923077 5.48677884615384  12.6923076923077 6.34615384615389  C 12.6923076923077 7.66826923076926  12.3197115384615 8.86718750000002  11.5745192307692 9.94290865384611  L 14.6664663461539 13.0348557692308  Z " fill-rule="evenodd" />
    </mask>
  </defs>
  <g transform="matrix(1 0 0 1 -50 -86 )">
    <path d="M 9.19921875 9.19921875  C 9.98948317307693 8.40895432692311  10.3846153846154 7.45793269230768  10.3846153846154 6.34615384615389  C 10.3846153846154 5.23437500000003  9.98948317307693 4.28335336538461  9.19921875 3.49308894230771  C 8.40895432692307 2.70282451923074  7.4579326923077 2.30769230769229  6.34615384615384 2.30769230769229  C 5.23437499999999 2.30769230769229  4.28335336538463 2.70282451923074  3.4930889423077 3.49308894230771  C 2.70282451923076 4.28335336538461  2.30769230769231 5.23437500000003  2.30769230769231 6.34615384615389  C 2.30769230769231 7.45793269230768  2.70282451923076 8.40895432692311  3.4930889423077 9.19921875  C 4.28335336538463 9.98948317307689  5.23437499999999 10.3846153846154  6.34615384615384 10.3846153846154  C 7.4579326923077 10.3846153846154  8.40895432692307 9.98948317307689  9.19921875 9.19921875  Z M 14.6664663461539 13.0348557692308  C 14.8888221153846 13.2572115384616  15 13.5276442307693  15 13.8461538461538  C 15 14.1586538461538  14.8858173076923 14.4290865384616  14.6574519230769 14.6574519230769  C 14.4290865384615 14.8858173076923  14.1586538461539 15  13.8461538461539 15  C 13.5216346153846 15  13.2512019230769 14.8858173076923  13.0348557692308 14.6574519230769  L 9.94290865384614 11.5745192307692  C 8.86718749999999 12.3197115384616  7.66826923076924 12.6923076923076  6.34615384615384 12.6923076923076  C 5.48677884615385 12.6923076923076  4.66496394230769 12.5255408653846  3.88070913461539 12.1920072115385  C 3.09645432692308 11.8584735576924  2.42037259615384 11.4077524038462  1.85246394230769 10.83984375  C 1.28455528846153 10.2719350961538  0.833834134615389 9.59585336538458  0.500300480769222 8.81159855769229  C 0.166766826923082 8.02734375  0 7.20552884615387  0 6.34615384615389  C 0 5.48677884615384  0.166766826923082 4.66496394230771  0.500300480769222 3.88070913461542  C 0.833834134615389 3.09645432692305  1.28455528846153 2.42037259615389  1.85246394230769 1.85246394230771  C 2.42037259615384 1.28455528846153  3.09645432692308 0.83383413461542  3.88070913461539 0.500300480769237  C 4.66496394230769 0.166766826923053  5.48677884615385 0  6.34615384615384 0  C 7.20552884615384 0  8.02734375 0.166766826923053  8.81159855769231 0.500300480769237  C 9.59585336538461 0.83383413461542  10.2719350961539 1.28455528846153  10.83984375 1.85246394230771  C 11.4077524038461 2.42037259615389  11.8584735576923 3.09645432692305  12.1920072115385 3.88070913461542  C 12.5255408653846 4.66496394230771  12.6923076923077 5.48677884615384  12.6923076923077 6.34615384615389  C 12.6923076923077 7.66826923076926  12.3197115384615 8.86718750000002  11.5745192307692 9.94290865384611  L 14.6664663461539 13.0348557692308  Z " fill-rule="nonzero" fill="#ffffff" stroke="none" transform="matrix(1 0 0 1 50 86 )" />
    <path d="M 9.19921875 9.19921875  C 9.98948317307693 8.40895432692311  10.3846153846154 7.45793269230768  10.3846153846154 6.34615384615389  C 10.3846153846154 5.23437500000003  9.98948317307693 4.28335336538461  9.19921875 3.49308894230771  C 8.40895432692307 2.70282451923074  7.4579326923077 2.30769230769229  6.34615384615384 2.30769230769229  C 5.23437499999999 2.30769230769229  4.28335336538463 2.70282451923074  3.4930889423077 3.49308894230771  C 2.70282451923076 4.28335336538461  2.30769230769231 5.23437500000003  2.30769230769231 6.34615384615389  C 2.30769230769231 7.45793269230768  2.70282451923076 8.40895432692311  3.4930889423077 9.19921875  C 4.28335336538463 9.98948317307689  5.23437499999999 10.3846153846154  6.34615384615384 10.3846153846154  C 7.4579326923077 10.3846153846154  8.40895432692307 9.98948317307689  9.19921875 9.19921875  Z " stroke-width="2" stroke="#797979" fill="none" transform="matrix(1 0 0 1 50 86 )" mask="url(#clip2)" />
    <path d="M 14.6664663461539 13.0348557692308  C 14.8888221153846 13.2572115384616  15 13.5276442307693  15 13.8461538461538  C 15 14.1586538461538  14.8858173076923 14.4290865384616  14.6574519230769 14.6574519230769  C 14.4290865384615 14.8858173076923  14.1586538461539 15  13.8461538461539 15  C 13.5216346153846 15  13.2512019230769 14.8858173076923  13.0348557692308 14.6574519230769  L 9.94290865384614 11.5745192307692  C 8.86718749999999 12.3197115384616  7.66826923076924 12.6923076923076  6.34615384615384 12.6923076923076  C 5.48677884615385 12.6923076923076  4.66496394230769 12.5255408653846  3.88070913461539 12.1920072115385  C 3.09645432692308 11.8584735576924  2.42037259615384 11.4077524038462  1.85246394230769 10.83984375  C 1.28455528846153 10.2719350961538  0.833834134615389 9.59585336538458  0.500300480769222 8.81159855769229  C 0.166766826923082 8.02734375  0 7.20552884615387  0 6.34615384615389  C 0 5.48677884615384  0.166766826923082 4.66496394230771  0.500300480769222 3.88070913461542  C 0.833834134615389 3.09645432692305  1.28455528846153 2.42037259615389  1.85246394230769 1.85246394230771  C 2.42037259615384 1.28455528846153  3.09645432692308 0.83383413461542  3.88070913461539 0.500300480769237  C 4.66496394230769 0.166766826923053  5.48677884615385 0  6.34615384615384 0  C 7.20552884615384 0  8.02734375 0.166766826923053  8.81159855769231 0.500300480769237  C 9.59585336538461 0.83383413461542  10.2719350961539 1.28455528846153  10.83984375 1.85246394230771  C 11.4077524038461 2.42037259615389  11.8584735576923 3.09645432692305  12.1920072115385 3.88070913461542  C 12.5255408653846 4.66496394230771  12.6923076923077 5.48677884615384  12.6923076923077 6.34615384615389  C 12.6923076923077 7.66826923076926  12.3197115384615 8.86718750000002  11.5745192307692 9.94290865384611  L 14.6664663461539 13.0348557692308  Z " stroke-width="2" stroke="#797979" fill="none" transform="matrix(1 0 0 1 50 86 )" mask="url(#clip2)" />
  </g>
</svg>