<?xml version="1.0" encoding="utf-8"?>
<svg version="1.1" xmlns:xlink="http://www.w3.org/1999/xlink" width="300px" height="170px" xmlns="http://www.w3.org/2000/svg">
  <g transform="matrix(1 0 0 1 -397 -1299 )">
    <path d="M 397 1299  L 697 1299  L 697 1469  L 397 1469  L 397 1299  " fill-rule="nonzero" fill="#cccccc" stroke="none" />
    <path d="M 409 1311  L 685 1311  L 685 1457  L 409 1457  L 409 1311  " fill-rule="nonzero" fill="#ffffff" stroke="none" />
    <path d="M 565.75 1350  C 558.61 1350  553 1344.39  553 1337.25  C 553 1330.11  558.61 1324.5  565.75 1324.5  C 572.89 1324.5  578.5 1330.11  578.5 1337.25  C 578.5 1344.39  572.89 1350  565.75 1350  " fill-rule="nonzero" fill="#cccccc" stroke="none" />
    <path d="M 414 1453  L 414 1377.65  L 480.75 1343.4  L 574.2 1406.42  L 627.6 1363.95  L 681 1406.42  L 681 1453  L 414 1453  " fill-rule="nonzero" fill="#169bd5" stroke="none" />
  </g>
</svg>