<?xml version="1.0" encoding="utf-8"?>
<svg version="1.1" xmlns:xlink="http://www.w3.org/1999/xlink" width="84px" height="58px" xmlns="http://www.w3.org/2000/svg">
  <g transform="matrix(1 0 0 1 -812 -304 )">
    <path d="M 812 304  L 896 304  L 896 362  L 812 362  L 812 304  " fill-rule="nonzero" fill="#cccccc" stroke="none" />
    <path d="M 816 308  L 892 308  L 892 358  L 816 358  L 816 308  " fill-rule="nonzero" fill="#ffffff" stroke="none" />
    <path d="M 860.03 321.4  C 857.594 321.4  855.68 319.486  855.68 317.05  C 855.68 314.614  857.594 312.7  860.03 312.7  C 862.466 312.7  864.38 314.614  864.38 317.05  C 864.38 319.486  862.466 321.4  860.03 321.4  " fill-rule="nonzero" fill="#cccccc" stroke="none" />
    <path d="M 818 357  L 818 331.15  L 836.25 319.4  L 861.8 337.528571428571  L 876.4 326.45  L 891 337.528571428571  L 891 357  L 818 357  " fill-rule="nonzero" fill="#169bd5" stroke="none" />
  </g>
</svg>