<?xml version="1.0" encoding="utf-8"?>
<svg version="1.1" xmlns:xlink="http://www.w3.org/1999/xlink" width="171px" height="117px" xmlns="http://www.w3.org/2000/svg">
  <g transform="matrix(1 0 0 1 -400 -1711 )">
    <path d="M 400 1711  L 571 1711  L 571 1828  L 400 1828  L 400 1711  " fill-rule="nonzero" fill="#cccccc" stroke="none" />
    <path d="M 408 1719  L 563 1719  L 563 1820  L 408 1820  L 408 1719  " fill-rule="nonzero" fill="#ffffff" stroke="none" />
    <path d="M 497.695 1746.1  C 492.781 1746.1  488.92 1742.239  488.92 1737.325  C 488.92 1732.411  492.781 1728.55  497.695 1728.55  C 502.609 1728.55  506.47 1732.411  506.47 1737.325  C 506.47 1742.239  502.609 1746.1  497.695 1746.1  " fill-rule="nonzero" fill="#cccccc" stroke="none" />
    <path d="M 411 1817  L 411 1764.75  L 448.25 1741  L 500.4 1778  L 530.2 1755.25  L 560 1778  L 560 1817  L 411 1817  " fill-rule="nonzero" fill="#169bd5" stroke="none" />
  </g>
</svg>