<?xml version="1.0" encoding="utf-8"?>
<svg version="1.1" xmlns:xlink="http://www.w3.org/1999/xlink" width="123px" height="108px" xmlns="http://www.w3.org/2000/svg">
  <g transform="matrix(1 0 0 1 -540 -254 )">
    <path d="M 540 254  L 663 254  L 663 362  L 540 362  L 540 254  " fill-rule="nonzero" fill="#cccccc" stroke="none" />
    <path d="M 548 262  L 655 262  L 655 354  L 548 354  L 548 262  " fill-rule="nonzero" fill="#ffffff" stroke="none" />
    <path d="M 612.06 286.4  C 607.524 286.4  603.96 282.836  603.96 278.3  C 603.96 273.764  607.524 270.2  612.06 270.2  C 616.596 270.2  620.16 273.764  620.16 278.3  C 620.16 282.836  616.596 286.4  612.06 286.4  " fill-rule="nonzero" fill="#cccccc" stroke="none" />
    <path d="M 551 352  L 551 304.15  L 576.5 282.4  L 612.2 306.165853658537  L 632.6 295.45  L 653 306.165853658537  L 653 352  L 551 352  " fill-rule="nonzero" fill="#169bd5" stroke="none" />
  </g>
</svg>