<?xml version="1.0" encoding="utf-8"?>
<svg version="1.1" xmlns:xlink="http://www.w3.org/1999/xlink" width="12px" height="12px" viewBox="544 842  12 12" xmlns="http://www.w3.org/2000/svg">
  <path d="M 550 842  C 553.36 842  556 844.64  556 848  C 556 851.36  553.36 854  550 854  C 546.64 854  544 851.36  544 848  C 544 844.64  546.64 842  550 842  Z " fill-rule="nonzero" fill="#ffffff" stroke="none" />
  <path d="M 550 842.5  C 553.08 842.5  555.5 844.92  555.5 848  C 555.5 851.08  553.08 853.5  550 853.5  C 546.92 853.5  544.5 851.08  544.5 848  C 544.5 844.92  546.92 842.5  550 842.5  Z " stroke-width="1" stroke="#797979" fill="none" />
  <path d="M 550 851  C 548.32 851  547 849.68  547 848  C 547 846.32  548.32 845  550 845  C 551.68 845  553 846.32  553 848  C 553 849.68  551.68 851  550 851  " fill-rule="nonzero" fill="#797979" stroke="none" />
</svg>