<?xml version="1.0" encoding="utf-8"?>
<svg version="1.1" xmlns:xlink="http://www.w3.org/1999/xlink" width="12px" height="12px" viewBox="602 842  12 12" xmlns="http://www.w3.org/2000/svg">
  <path d="M 608 842  C 611.36 842  614 844.64  614 848  C 614 851.36  611.36 854  608 854  C 604.64 854  602 851.36  602 848  C 602 844.64  604.64 842  608 842  Z " fill-rule="nonzero" fill="#ffffff" stroke="none" />
  <path d="M 608 842.5  C 611.08 842.5  613.5 844.92  613.5 848  C 613.5 851.08  611.08 853.5  608 853.5  C 604.92 853.5  602.5 851.08  602.5 848  C 602.5 844.92  604.92 842.5  608 842.5  Z " stroke-width="1" stroke="#797979" fill="none" />
  <path d="M 608 851  C 606.32 851  605 849.68  605 848  C 605 846.32  606.32 845  608 845  C 609.68 845  611 846.32  611 848  C 611 849.68  609.68 851  608 851  " fill-rule="nonzero" fill="#797979" stroke="none" />
</svg>