<?xml version="1.0" encoding="utf-8"?>
<svg version="1.1" xmlns:xlink="http://www.w3.org/1999/xlink" width="12px" height="12px" viewBox="602 945  12 12" xmlns="http://www.w3.org/2000/svg">
  <path d="M 608 945  C 611.36 945  614 947.64  614 951  C 614 954.36  611.36 957  608 957  C 604.64 957  602 954.36  602 951  C 602 947.64  604.64 945  608 945  Z " fill-rule="nonzero" fill="#ffffff" stroke="none" />
  <path d="M 608 945.5  C 611.08 945.5  613.5 947.92  613.5 951  C 613.5 954.08  611.08 956.5  608 956.5  C 604.92 956.5  602.5 954.08  602.5 951  C 602.5 947.92  604.92 945.5  608 945.5  Z " stroke-width="1" stroke="#797979" fill="none" />
  <path d="M 608 954  C 606.32 954  605 952.68  605 951  C 605 949.32  606.32 948  608 948  C 609.68 948  611 949.32  611 951  C 611 952.68  609.68 954  608 954  " fill-rule="nonzero" fill="#797979" stroke="none" />
</svg>