<?xml version="1.0" encoding="utf-8"?>
<svg version="1.1" xmlns:xlink="http://www.w3.org/1999/xlink" width="21px" height="23px" xmlns="http://www.w3.org/2000/svg">
  <g transform="matrix(1 0 0 1 -818 -745 )">
    <path d="M 1.61538461538462 17.6607142857143  L 1.61538461538462 21.3571428571429  L 5.25 21.3571428571429  L 5.25 17.6607142857143  L 1.61538461538462 17.6607142857143  Z M 6.05769230769231 17.6607142857143  L 6.05769230769231 21.3571428571429  L 10.0961538461538 21.3571428571429  L 10.0961538461538 17.6607142857143  L 6.05769230769231 17.6607142857143  Z M 1.61538461538462 12.7321428571429  L 1.61538461538462 16.8392857142857  L 5.25 16.8392857142857  L 5.25 12.7321428571429  L 1.61538461538462 12.7321428571429  Z M 6.05769230769231 12.7321428571429  L 6.05769230769231 16.8392857142857  L 10.0961538461538 16.8392857142857  L 10.0961538461538 12.7321428571429  L 6.05769230769231 12.7321428571429  Z M 1.61538461538462 8.21428571428571  L 1.61538461538462 11.9107142857143  L 5.25 11.9107142857143  L 5.25 8.21428571428571  L 1.61538461538462 8.21428571428571  Z M 10.9038461538462 17.6607142857143  L 10.9038461538462 21.3571428571429  L 14.9423076923077 21.3571428571429  L 14.9423076923077 17.6607142857143  L 10.9038461538462 17.6607142857143  Z M 6.05769230769231 8.21428571428571  L 6.05769230769231 11.9107142857143  L 10.0961538461538 11.9107142857143  L 10.0961538461538 8.21428571428571  L 6.05769230769231 8.21428571428571  Z M 15.75 17.6607142857143  L 15.75 21.3571428571429  L 19.3846153846154 21.3571428571429  L 19.3846153846154 17.6607142857143  L 15.75 17.6607142857143  Z M 10.9038461538462 12.7321428571429  L 10.9038461538462 16.8392857142857  L 14.9423076923077 16.8392857142857  L 14.9423076923077 12.7321428571429  L 10.9038461538462 12.7321428571429  Z M 6.34164663461538 6.03878348214286  C 6.42157451923077 5.9574962797619  6.46153846153846 5.86123511904762  6.46153846153846 5.75  L 6.46153846153846 2.05357142857143  C 6.46153846153846 1.94233630952381  6.42157451923077 1.84607514880952  6.34164663461538 1.76478794642857  C 6.26171875 1.68350074404762  6.16706730769231 1.64285714285714  6.05769230769231 1.64285714285714  L 5.25 1.64285714285714  C 5.140625 1.64285714285714  5.04597355769231 1.68350074404762  4.96604567307692 1.76478794642857  C 4.88611778846154 1.84607514880952  4.84615384615385 1.94233630952381  4.84615384615385 2.05357142857143  L 4.84615384615385 5.75  C 4.84615384615385 5.86123511904762  4.88611778846154 5.9574962797619  4.96604567307692 6.03878348214286  C 5.04597355769231 6.12007068452381  5.140625 6.16071428571429  5.25 6.16071428571429  L 6.05769230769231 6.16071428571429  C 6.16706730769231 6.16071428571429  6.26171875 6.12007068452381  6.34164663461538 6.03878348214286  Z M 15.75 12.7321428571429  L 15.75 16.8392857142857  L 19.3846153846154 16.8392857142857  L 19.3846153846154 12.7321428571429  L 15.75 12.7321428571429  Z M 10.9038461538462 8.21428571428571  L 10.9038461538462 11.9107142857143  L 14.9423076923077 11.9107142857143  L 14.9423076923077 8.21428571428571  L 10.9038461538462 8.21428571428571  Z M 15.75 8.21428571428571  L 15.75 11.9107142857143  L 19.3846153846154 11.9107142857143  L 19.3846153846154 8.21428571428571  L 15.75 8.21428571428571  Z M 16.0339543269231 6.03878348214286  C 16.1138822115385 5.9574962797619  16.1538461538462 5.86123511904762  16.1538461538462 5.75  L 16.1538461538462 2.05357142857143  C 16.1538461538462 1.94233630952381  16.1138822115385 1.84607514880952  16.0339543269231 1.76478794642857  C 15.9540264423077 1.68350074404762  15.859375 1.64285714285714  15.75 1.64285714285714  L 14.9423076923077 1.64285714285714  C 14.8329326923077 1.64285714285714  14.73828125 1.68350074404762  14.6583533653846 1.76478794642857  C 14.5784254807692 1.84607514880952  14.5384615384615 1.94233630952381  14.5384615384615 2.05357142857143  L 14.5384615384615 5.75  C 14.5384615384615 5.86123511904762  14.5784254807692 5.9574962797619  14.6583533653846 6.03878348214286  C 14.73828125 6.12007068452381  14.8329326923077 6.16071428571429  14.9423076923077 6.16071428571429  L 15.75 6.16071428571429  C 15.859375 6.16071428571429  15.9540264423077 6.12007068452381  16.0339543269231 6.03878348214286  Z M 20.5204326923077 3.7734375  C 20.8401442307692 4.09858630952381  21 4.48363095238095  21 4.92857142857143  L 21 21.3571428571429  C 21 21.8020833333333  20.8401442307692 22.1871279761905  20.5204326923077 22.5122767857143  C 20.2007211538462 22.8374255952381  19.8221153846154 23  19.3846153846154 23  L 1.61538461538462 23  C 1.17788461538462 23  0.799278846153846 22.8374255952381  0.479567307692308 22.5122767857143  C 0.159855769230769 22.1871279761905  0 21.8020833333333  0 21.3571428571429  L 0 4.92857142857143  C 0 4.48363095238095  0.159855769230769 4.09858630952381  0.479567307692308 3.7734375  C 0.799278846153846 3.44828869047619  1.17788461538462 3.28571428571429  1.61538461538462 3.28571428571429  L 3.23076923076923 3.28571428571429  L 3.23076923076923 2.05357142857143  C 3.23076923076923 1.48883928571429  3.42848557692308 1.00539434523809  3.82391826923077 0.603236607142858  C 4.21935096153846 0.201078869047619  4.69471153846154 0  5.25 0  L 6.05769230769231 0  C 6.61298076923077 0  7.08834134615385 0.201078869047619  7.48377403846154 0.603236607142858  C 7.87920673076923 1.00539434523809  8.07692307692308 1.48883928571429  8.07692307692308 2.05357142857143  L 8.07692307692308 3.28571428571429  L 12.9230769230769 3.28571428571429  L 12.9230769230769 2.05357142857143  C 12.9230769230769 1.48883928571429  13.1207932692308 1.00539434523809  13.5162259615385 0.603236607142858  C 13.9116586538462 0.201078869047619  14.3870192307692 0  14.9423076923077 0  L 15.75 0  C 16.3052884615385 0  16.7806490384615 0.201078869047619  17.1760817307692 0.603236607142858  C 17.5715144230769 1.00539434523809  17.7692307692308 1.48883928571429  17.7692307692308 2.05357142857143  L 17.7692307692308 3.28571428571429  L 19.3846153846154 3.28571428571429  C 19.8221153846154 3.28571428571429  20.2007211538462 3.44828869047619  20.5204326923077 3.7734375  Z " fill-rule="nonzero" fill="#8c8c8c" stroke="none" transform="matrix(1 0 0 1 818 745 )" />
  </g>
</svg>