<?xml version="1.0" encoding="utf-8"?>
<svg version="1.1" xmlns:xlink="http://www.w3.org/1999/xlink" width="12px" height="12px" viewBox="2464 3098  12 12" xmlns="http://www.w3.org/2000/svg">
  <path d="M 2470 3098  C 2473.36 3098  2476 3100.64  2476 3104  C 2476 3107.36  2473.36 3110  2470 3110  C 2466.64 3110  2464 3107.36  2464 3104  C 2464 3100.64  2466.64 3098  2470 3098  Z " fill-rule="nonzero" fill="#ffffff" stroke="none" />
  <path d="M 2470 3098.5  C 2473.08 3098.5  2475.5 3100.92  2475.5 3104  C 2475.5 3107.08  2473.08 3109.5  2470 3109.5  C 2466.92 3109.5  2464.5 3107.08  2464.5 3104  C 2464.5 3100.92  2466.92 3098.5  2470 3098.5  Z " stroke-width="1" stroke="#797979" fill="none" />
  <path d="M 2470 3107  C 2468.32 3107  2467 3105.68  2467 3104  C 2467 3102.32  2468.32 3101  2470 3101  C 2471.68 3101  2473 3102.32  2473 3104  C 2473 3105.68  2471.68 3107  2470 3107  " fill-rule="nonzero" fill="#797979" stroke="none" />
</svg>