<?xml version="1.0" encoding="utf-8"?>
<svg version="1.1" xmlns:xlink="http://www.w3.org/1999/xlink" width="12px" height="12px" viewBox="2464 3157  12 12" xmlns="http://www.w3.org/2000/svg">
  <path d="M 2470 3157  C 2473.36 3157  2476 3159.64  2476 3163  C 2476 3166.36  2473.36 3169  2470 3169  C 2466.64 3169  2464 3166.36  2464 3163  C 2464 3159.64  2466.64 3157  2470 3157  Z " fill-rule="nonzero" fill="#ffffff" stroke="none" />
  <path d="M 2470 3157.5  C 2473.08 3157.5  2475.5 3159.92  2475.5 3163  C 2475.5 3166.08  2473.08 3168.5  2470 3168.5  C 2466.92 3168.5  2464.5 3166.08  2464.5 3163  C 2464.5 3159.92  2466.92 3157.5  2470 3157.5  Z " stroke-width="1" stroke="#797979" fill="none" />
  <path d="M 2470 3166  C 2468.32 3166  2467 3164.68  2467 3163  C 2467 3161.32  2468.32 3160  2470 3160  C 2471.68 3160  2473 3161.32  2473 3163  C 2473 3164.68  2471.68 3166  2470 3166  " fill-rule="nonzero" fill="#797979" stroke="none" />
</svg>