<?xml version="1.0" encoding="utf-8"?>
<svg version="1.1" xmlns:xlink="http://www.w3.org/1999/xlink" width="53px" height="54px" xmlns="http://www.w3.org/2000/svg">
  <g transform="matrix(1 0 0 1 -620 -445 )">
    <path d="M 620 445  L 673 445  L 673 499  L 620 499  L 620 445  " fill-rule="nonzero" fill="#cccccc" stroke="none" />
    <path d="M 624 449  L 669 449  L 669 495  L 624 495  L 624 449  " fill-rule="nonzero" fill="#ffffff" stroke="none" />
    <path d="M 651.535 461.05  C 649.309 461.05  647.56 459.301  647.56 457.075  C 647.56 454.849  649.309 453.1  651.535 453.1  C 653.761 453.1  655.51 454.849  655.51 457.075  C 655.51 459.301  653.761 461.05  651.535 461.05  " fill-rule="nonzero" fill="#cccccc" stroke="none" />
    <path d="M 626 494  L 626 470.35  L 636.5 459.6  L 651.2 468.2  L 659.6 466.05  L 668 468.2  L 668 494  L 626 494  " fill-rule="nonzero" fill="#169bd5" stroke="none" />
  </g>
</svg>