<?xml version="1.0" encoding="utf-8"?>
<svg version="1.1" xmlns:xlink="http://www.w3.org/1999/xlink" width="80px" height="57px" xmlns="http://www.w3.org/2000/svg">
  <g transform="matrix(1 0 0 1 -420 -306 )">
    <path d="M 420 306  L 500 306  L 500 363  L 420 363  L 420 306  " fill-rule="nonzero" fill="#cccccc" stroke="none" />
    <path d="M 424 310  L 496 310  L 496 359  L 424 359  L 424 310  " fill-rule="nonzero" fill="#ffffff" stroke="none" />
    <path d="M 465.875 323.1  C 463.481 323.1  461.6 321.219  461.6 318.825  C 461.6 316.431  463.481 314.55  465.875 314.55  C 468.269 314.55  470.15 316.431  470.15 318.825  C 470.15 321.219  468.269 323.1  465.875 323.1  " fill-rule="nonzero" fill="#cccccc" stroke="none" />
    <path d="M 426 358  L 426 332.7  L 443.25 321.2  L 467.4 338.335  L 481.2 328.1  L 495 338.335  L 495 358  L 426 358  " fill-rule="nonzero" fill="#169bd5" stroke="none" />
  </g>
</svg>