<?xml version="1.0" encoding="utf-8"?>
<svg version="1.1" xmlns:xlink="http://www.w3.org/1999/xlink" width="162px" height="100px" xmlns="http://www.w3.org/2000/svg">
  <g transform="matrix(1 0 0 1 -1773 -605 )">
    <path d="M 1773 605  L 1935 605  L 1935 705  L 1773 705  L 1773 605  " fill-rule="nonzero" fill="#cccccc" stroke="none" />
    <path d="M 1780 612  L 1928 612  L 1928 698  L 1780 698  L 1780 612  " fill-rule="nonzero" fill="#ffffff" stroke="none" />
    <path d="M 1864.74 635  C 1860.54 635  1857.24 631.7  1857.24 627.5  C 1857.24 623.3  1860.54 620  1864.74 620  C 1868.94 620  1872.24 623.3  1872.24 627.5  C 1872.24 631.7  1868.94 635  1864.74 635  " fill-rule="nonzero" fill="#cccccc" stroke="none" />
    <path d="M 1783 696  L 1783 651.45  L 1818.75 631.2  L 1868.8 666  L 1897.4 643.35  L 1926 666  L 1926 696  L 1783 696  " fill-rule="nonzero" fill="#169bd5" stroke="none" />
  </g>
</svg>