<?xml version="1.0" encoding="utf-8"?>
<svg version="1.1" xmlns:xlink="http://www.w3.org/1999/xlink" width="24px" height="25px" xmlns="http://www.w3.org/2000/svg">
  <g transform="matrix(1 0 0 1 -1010 -329 )">
    <path d="M 1.84615384615385 19.1964285714286  L 1.84615384615385 23.2142857142857  L 6 23.2142857142857  L 6 19.1964285714286  L 1.84615384615385 19.1964285714286  Z M 6.92307692307692 19.1964285714286  L 6.92307692307692 23.2142857142857  L 11.5384615384615 23.2142857142857  L 11.5384615384615 19.1964285714286  L 6.92307692307692 19.1964285714286  Z M 1.84615384615385 13.8392857142857  L 1.84615384615385 18.3035714285714  L 6 18.3035714285714  L 6 13.8392857142857  L 1.84615384615385 13.8392857142857  Z M 6.92307692307692 13.8392857142857  L 6.92307692307692 18.3035714285714  L 11.5384615384615 18.3035714285714  L 11.5384615384615 13.8392857142857  L 6.92307692307692 13.8392857142857  Z M 1.84615384615385 8.92857142857143  L 1.84615384615385 12.9464285714286  L 6 12.9464285714286  L 6 8.92857142857143  L 1.84615384615385 8.92857142857143  Z M 12.4615384615385 19.1964285714286  L 12.4615384615385 23.2142857142857  L 17.0769230769231 23.2142857142857  L 17.0769230769231 19.1964285714286  L 12.4615384615385 19.1964285714286  Z M 6.92307692307692 8.92857142857143  L 6.92307692307692 12.9464285714286  L 11.5384615384615 12.9464285714286  L 11.5384615384615 8.92857142857143  L 6.92307692307692 8.92857142857143  Z M 18 19.1964285714286  L 18 23.2142857142857  L 22.1538461538462 23.2142857142857  L 22.1538461538462 19.1964285714286  L 18 19.1964285714286  Z M 12.4615384615385 13.8392857142857  L 12.4615384615385 18.3035714285714  L 17.0769230769231 18.3035714285714  L 17.0769230769231 13.8392857142857  L 12.4615384615385 13.8392857142857  Z M 7.24759615384615 6.56389508928572  C 7.33894230769231 6.47553943452381  7.38461538461539 6.37090773809524  7.38461538461539 6.25  L 7.38461538461539 2.23214285714286  C 7.38461538461539 2.11123511904762  7.33894230769231 2.00660342261905  7.24759615384615 1.91824776785714  C 7.15625 1.82989211309524  7.04807692307692 1.78571428571428  6.92307692307692 1.78571428571428  L 6 1.78571428571428  C 5.875 1.78571428571428  5.76682692307692 1.82989211309524  5.67548076923077 1.91824776785714  C 5.58413461538462 2.00660342261905  5.53846153846154 2.11123511904762  5.53846153846154 2.23214285714286  L 5.53846153846154 6.25  C 5.53846153846154 6.37090773809524  5.58413461538462 6.47553943452381  5.67548076923077 6.56389508928572  C 5.76682692307692 6.65225074404762  5.875 6.69642857142857  6 6.69642857142857  L 6.92307692307692 6.69642857142857  C 7.04807692307692 6.69642857142857  7.15625 6.65225074404762  7.24759615384615 6.56389508928572  Z M 18 13.8392857142857  L 18 18.3035714285714  L 22.1538461538462 18.3035714285714  L 22.1538461538462 13.8392857142857  L 18 13.8392857142857  Z M 12.4615384615385 8.92857142857143  L 12.4615384615385 12.9464285714286  L 17.0769230769231 12.9464285714286  L 17.0769230769231 8.92857142857143  L 12.4615384615385 8.92857142857143  Z M 18 8.92857142857143  L 18 12.9464285714286  L 22.1538461538462 12.9464285714286  L 22.1538461538462 8.92857142857143  L 18 8.92857142857143  Z M 18.3245192307692 6.56389508928572  C 18.4158653846154 6.47553943452381  18.4615384615385 6.37090773809524  18.4615384615385 6.25  L 18.4615384615385 2.23214285714286  C 18.4615384615385 2.11123511904762  18.4158653846154 2.00660342261905  18.3245192307692 1.91824776785714  C 18.2331730769231 1.82989211309524  18.125 1.78571428571428  18 1.78571428571428  L 17.0769230769231 1.78571428571428  C 16.9519230769231 1.78571428571428  16.84375 1.82989211309524  16.7524038461538 1.91824776785714  C 16.6610576923077 2.00660342261905  16.6153846153846 2.11123511904762  16.6153846153846 2.23214285714286  L 16.6153846153846 6.25  C 16.6153846153846 6.37090773809524  16.6610576923077 6.47553943452381  16.7524038461538 6.56389508928572  C 16.84375 6.65225074404762  16.9519230769231 6.69642857142857  17.0769230769231 6.69642857142857  L 18 6.69642857142857  C 18.125 6.69642857142857  18.2331730769231 6.65225074404762  18.3245192307692 6.56389508928572  Z M 23.4519230769231 4.1015625  C 23.8173076923077 4.45498511904762  24 4.8735119047619  24 5.35714285714286  L 24 23.2142857142857  C 24 23.6979166666667  23.8173076923077 24.116443452381  23.4519230769231 24.4698660714286  C 23.0865384615385 24.8232886904762  22.6538461538462 25  22.1538461538462 25  L 1.84615384615385 25  C 1.34615384615385 25  0.913461538461539 24.8232886904762  0.548076923076923 24.4698660714286  C 0.182692307692308 24.116443452381  0 23.6979166666667  0 23.2142857142857  L 0 5.35714285714286  C 0 4.8735119047619  0.182692307692308 4.45498511904762  0.548076923076923 4.1015625  C 0.913461538461539 3.74813988095238  1.34615384615385 3.57142857142857  1.84615384615385 3.57142857142857  L 3.69230769230769 3.57142857142857  L 3.69230769230769 2.23214285714286  C 3.69230769230769 1.61830357142857  3.91826923076923 1.09281994047619  4.37019230769231 0.655691964285715  C 4.82211538461539 0.218563988095238  5.36538461538462 0  6 0  L 6.92307692307692 0  C 7.55769230769231 0  8.10096153846154 0.218563988095238  8.55288461538462 0.655691964285715  C 9.00480769230769 1.09281994047619  9.23076923076923 1.61830357142857  9.23076923076923 2.23214285714286  L 9.23076923076923 3.57142857142857  L 14.7692307692308 3.57142857142857  L 14.7692307692308 2.23214285714286  C 14.7692307692308 1.61830357142857  14.9951923076923 1.09281994047619  15.4471153846154 0.655691964285715  C 15.8990384615385 0.218563988095238  16.4423076923077 0  17.0769230769231 0  L 18 0  C 18.6346153846154 0  19.1778846153846 0.218563988095238  19.6298076923077 0.655691964285715  C 20.0817307692308 1.09281994047619  20.3076923076923 1.61830357142857  20.3076923076923 2.23214285714286  L 20.3076923076923 3.57142857142857  L 22.1538461538462 3.57142857142857  C 22.6538461538462 3.57142857142857  23.0865384615385 3.74813988095238  23.4519230769231 4.1015625  Z " fill-rule="nonzero" fill="#666666" stroke="none" transform="matrix(1 0 0 1 1010 329 )" />
  </g>
</svg>