<svg id="Layer_1" data-name="Layer 1" xmlns="http://www.w3.org/2000/svg" width="64" height="64" viewBox="0 0 64 64"><defs><style>.cls-1{fill:#666;}</style></defs><title>alarm</title><path class="cls-1" d="M55,52a1,1,0,1,0,0-2h0a5,5,0,0,1-5-5.08l-1-13c-0.88-12.35-6.69-20.64-15-21.78V7a1,1,0,0,0-1-1H31a1,1,0,0,0-1,1v3.15c-8.31,1.14-14.12,9.43-15,21.77L14,45a5,5,0,0,1-5,5,1,1,0,0,0,0,2H55ZM13.9,50A6.84,6.84,0,0,0,16,45.08l1-13C17.87,19.88,23.76,12,32,12s14.13,7.88,15,20.08L48,45a7,7,0,0,0,2.11,5H13.9Z"/><path class="cls-1" d="M36.2,54.29a6,6,0,0,1-8.4,0,1,1,0,1,0-1.4,1.42,8,8,0,0,0,11.2,0A1,1,0,0,0,36.2,54.29Z"/></svg>