<?xml version="1.0" encoding="utf-8"?>
<svg version="1.1" xmlns:xlink="http://www.w3.org/1999/xlink" width="12px" height="12px" viewBox="602 872  12 12" xmlns="http://www.w3.org/2000/svg">
  <path d="M 608 872  C 611.36 872  614 874.64  614 878  C 614 881.36  611.36 884  608 884  C 604.64 884  602 881.36  602 878  C 602 874.64  604.64 872  608 872  Z " fill-rule="nonzero" fill="#ffffff" stroke="none" />
  <path d="M 608 872.5  C 611.08 872.5  613.5 874.92  613.5 878  C 613.5 881.08  611.08 883.5  608 883.5  C 604.92 883.5  602.5 881.08  602.5 878  C 602.5 874.92  604.92 872.5  608 872.5  Z " stroke-width="1" stroke="#797979" fill="none" />
  <path d="M 608 881  C 606.32 881  605 879.68  605 878  C 605 876.32  606.32 875  608 875  C 609.68 875  611 876.32  611 878  C 611 879.68  609.68 881  608 881  " fill-rule="nonzero" fill="#797979" stroke="none" />
</svg>