<?xml version="1.0" encoding="utf-8"?>
<svg version="1.1" xmlns:xlink="http://www.w3.org/1999/xlink" width="12px" height="12px" viewBox="602 769  12 12" xmlns="http://www.w3.org/2000/svg">
  <path d="M 608 769  C 611.36 769  614 771.64  614 775  C 614 778.36  611.36 781  608 781  C 604.64 781  602 778.36  602 775  C 602 771.64  604.64 769  608 769  Z " fill-rule="nonzero" fill="#ffffff" stroke="none" />
  <path d="M 608 769.5  C 611.08 769.5  613.5 771.92  613.5 775  C 613.5 778.08  611.08 780.5  608 780.5  C 604.92 780.5  602.5 778.08  602.5 775  C 602.5 771.92  604.92 769.5  608 769.5  Z " stroke-width="1" stroke="#797979" fill="none" />
  <path d="M 608 778  C 606.32 778  605 776.68  605 775  C 605 773.32  606.32 772  608 772  C 609.68 772  611 773.32  611 775  C 611 776.68  609.68 778  608 778  " fill-rule="nonzero" fill="#797979" stroke="none" />
</svg>