<?xml version="1.0" encoding="utf-8"?>
<svg version="1.1" xmlns:xlink="http://www.w3.org/1999/xlink" width="174px" height="115px" xmlns="http://www.w3.org/2000/svg">
  <g transform="matrix(1 0 0 1 -248 -2541 )">
    <path d="M 248 2541  L 422 2541  L 422 2656  L 248 2656  L 248 2541  " fill-rule="nonzero" fill="#cccccc" stroke="none" />
    <path d="M 256 2549  L 414 2549  L 414 2648  L 256 2648  L 256 2549  " fill-rule="nonzero" fill="#ffffff" stroke="none" />
    <path d="M 347.105 2575.5  C 342.275 2575.5  338.48 2571.705  338.48 2566.875  C 338.48 2562.045  342.275 2558.25  347.105 2558.25  C 351.935 2558.25  355.73 2562.045  355.73 2566.875  C 355.73 2571.705  351.935 2575.5  347.105 2575.5  " fill-rule="nonzero" fill="#cccccc" stroke="none" />
    <path d="M 259 2645  L 259 2593.85  L 297 2570.6  L 350.2 2608.12068965517  L 380.6 2584.55  L 411 2608.12068965517  L 411 2645  L 259 2645  " fill-rule="nonzero" fill="#169bd5" stroke="none" />
  </g>
</svg>