<?xml version="1.0" encoding="utf-8"?>
<svg version="1.1" xmlns:xlink="http://www.w3.org/1999/xlink" width="27px" height="29px" xmlns="http://www.w3.org/2000/svg">
  <g transform="matrix(1 0 0 1 -831 -645 )">
    <path d="M 22.8461538461538 4.14285714285714  L 24.9230769230769 4.14285714285714  C 25.4855769230769 4.14285714285714  25.9723557692308 4.34784226190476  26.3834134615385 4.7578125  C 26.7944711538462 5.16778273809524  27 5.65327380952381  27 6.21428571428571  L 27 26.9285714285714  C 27 27.4895833333333  26.7944711538462 27.9750744047619  26.3834134615385 28.3850446428571  C 25.9723557692308 28.7950148809524  25.4855769230769 29  24.9230769230769 29  L 2.07692307692308 29  C 1.51442307692308 29  1.02764423076923 28.7950148809524  0.616586538461538 28.3850446428571  C 0.205528846153846 27.9750744047619  0 27.4895833333333  0 26.9285714285714  L 0 6.21428571428571  C 0 5.65327380952381  0.205528846153846 5.16778273809524  0.616586538461538 4.7578125  C 1.02764423076923 4.34784226190476  1.51442307692308 4.14285714285714  2.07692307692308 4.14285714285714  L 4.15384615384615 4.14285714285714  L 4.15384615384615 2.58928571428571  C 4.15384615384615 1.87723214285714  4.40805288461539 1.26767113095238  4.91646634615385 0.760602678571429  C 5.42487980769231 0.253534226190477  6.03605769230769 0  6.75 0  L 7.78846153846154 0  C 8.50240384615385 0  9.11358173076923 0.253534226190477  9.62199519230769 0.760602678571429  C 10.1304086538462 1.26767113095238  10.3846153846154 1.87723214285714  10.3846153846154 2.58928571428571  L 10.3846153846154 4.14285714285714  L 16.6153846153846 4.14285714285714  L 16.6153846153846 2.58928571428571  C 16.6153846153846 1.87723214285714  16.8695913461538 1.26767113095238  17.3780048076923 0.760602678571429  C 17.8864182692308 0.253534226190477  18.4975961538462 0  19.2115384615385 0  L 20.25 0  C 20.9639423076923 0  21.5751201923077 0.253534226190477  22.0835336538462 0.760602678571429  C 22.5919471153846 1.26767113095238  22.8461538461538 1.87723214285714  22.8461538461538 2.58928571428571  L 22.8461538461538 4.14285714285714  Z M 18.8383413461538 2.21707589285714  C 18.7409855769231 2.31417410714286  18.6923076923077 2.43824404761904  18.6923076923077 2.58928571428571  L 18.6923076923077 7.25  C 18.6923076923077 7.40104166666666  18.7409855769231 7.52511160714286  18.8383413461538 7.62220982142857  C 18.9356971153846 7.71930803571429  19.0600961538462 7.76785714285714  19.2115384615385 7.76785714285714  L 20.25 7.76785714285714  C 20.4014423076923 7.76785714285714  20.5258413461538 7.71930803571429  20.6231971153846 7.62220982142857  C 20.7205528846154 7.52511160714286  20.7692307692308 7.40104166666666  20.7692307692308 7.25  L 20.7692307692308 2.58928571428571  C 20.7692307692308 2.43824404761904  20.7205528846154 2.31417410714286  20.6231971153846 2.21707589285714  C 20.5258413461538 2.11997767857143  20.4014423076923 2.07142857142857  20.25 2.07142857142857  L 19.2115384615385 2.07142857142857  C 19.0600961538462 2.07142857142857  18.9356971153846 2.11997767857143  18.8383413461538 2.21707589285714  Z M 6.37680288461538 2.21707589285714  C 6.27944711538462 2.31417410714286  6.23076923076923 2.43824404761904  6.23076923076923 2.58928571428571  L 6.23076923076923 7.25  C 6.23076923076923 7.40104166666666  6.27944711538462 7.52511160714286  6.37680288461538 7.62220982142857  C 6.47415865384616 7.71930803571429  6.59855769230769 7.76785714285714  6.75 7.76785714285714  L 7.78846153846154 7.76785714285714  C 7.93990384615385 7.76785714285714  8.06430288461539 7.71930803571429  8.16165865384615 7.62220982142857  C 8.25901442307692 7.52511160714286  8.30769230769231 7.40104166666666  8.30769230769231 7.25  L 8.30769230769231 2.58928571428571  C 8.30769230769231 2.43824404761904  8.25901442307692 2.31417410714286  8.16165865384615 2.21707589285714  C 8.06430288461539 2.11997767857143  7.93990384615385 2.07142857142857  7.78846153846154 2.07142857142857  L 6.75 2.07142857142857  C 6.59855769230769 2.07142857142857  6.47415865384616 2.11997767857143  6.37680288461538 2.21707589285714  Z M 2 27  L 25 27  L 25 10.3571428571429  L 2 10.3571428571429  L 2 27  Z M 14.5384615384615 13.9821428571429  L 14.5384615384615 17.6071428571429  L 18.1730769230769 17.6071428571429  C 18.3245192307692 17.6071428571429  18.4489182692308 17.6556919642857  18.5462740384615 17.7527901785714  C 18.6436298076923 17.8498883928571  18.6923076923077 17.9739583333333  18.6923076923077 18.125  L 18.6923076923077 19.1607142857143  C 18.6923076923077 19.311755952381  18.6436298076923 19.4358258928571  18.5462740384615 19.5329241071429  C 18.4489182692308 19.6300223214286  18.3245192307692 19.6785714285714  18.1730769230769 19.6785714285714  L 14.5384615384615 19.6785714285714  L 14.5384615384615 23.3035714285714  C 14.5384615384615 23.4546130952381  14.4897836538462 23.5786830357143  14.3924278846154 23.67578125  C 14.2950721153846 23.7728794642857  14.1706730769231 23.8214285714286  14.0192307692308 23.8214285714286  L 12.9807692307692 23.8214285714286  C 12.8293269230769 23.8214285714286  12.7049278846154 23.7728794642857  12.6075721153846 23.67578125  C 12.5102163461538 23.5786830357143  12.4615384615385 23.4546130952381  12.4615384615385 23.3035714285714  L 12.4615384615385 19.6785714285714  L 8.82692307692308 19.6785714285714  C 8.67548076923077 19.6785714285714  8.55108173076923 19.6300223214286  8.45372596153846 19.5329241071429  C 8.35637019230769 19.4358258928571  8.30769230769231 19.311755952381  8.30769230769231 19.1607142857143  L 8.30769230769231 18.125  C 8.30769230769231 17.9739583333333  8.35637019230769 17.8498883928571  8.45372596153846 17.7527901785714  C 8.55108173076923 17.6556919642857  8.67548076923077 17.6071428571429  8.82692307692308 17.6071428571429  L 12.4615384615385 17.6071428571429  L 12.4615384615385 13.9821428571429  C 12.4615384615385 13.8311011904762  12.5102163461538 13.70703125  12.6075721153846 13.6099330357143  C 12.7049278846154 13.5128348214286  12.8293269230769 13.4642857142857  12.9807692307692 13.4642857142857  L 14.0192307692308 13.4642857142857  C 14.1706730769231 13.4642857142857  14.2950721153846 13.5128348214286  14.3924278846154 13.6099330357143  C 14.4897836538462 13.70703125  14.5384615384615 13.8311011904762  14.5384615384615 13.9821428571429  Z " fill-rule="nonzero" fill="#666666" stroke="none" transform="matrix(1 0 0 1 831 645 )" />
  </g>
</svg>