<?xml version="1.0" encoding="utf-8"?>
<svg version="1.1" xmlns:xlink="http://www.w3.org/1999/xlink" width="19px" height="21px" xmlns="http://www.w3.org/2000/svg">
  <g transform="matrix(1 0 0 1 -1047 -555 )">
    <path d="M 1.46153846153846 16.125  L 1.46153846153846 19.5  L 4.75 19.5  L 4.75 16.125  L 1.46153846153846 16.125  Z M 5.48076923076923 16.125  L 5.48076923076923 19.5  L 9.13461538461539 19.5  L 9.13461538461539 16.125  L 5.48076923076923 16.125  Z M 1.46153846153846 11.625  L 1.46153846153846 15.375  L 4.75 15.375  L 4.75 11.625  L 1.46153846153846 11.625  Z M 5.48076923076923 11.625  L 5.48076923076923 15.375  L 9.13461538461539 15.375  L 9.13461538461539 11.625  L 5.48076923076923 11.625  Z M 1.46153846153846 7.5  L 1.46153846153846 10.875  L 4.75 10.875  L 4.75 7.5  L 1.46153846153846 7.5  Z M 9.86538461538462 16.125  L 9.86538461538462 19.5  L 13.5192307692308 19.5  L 13.5192307692308 16.125  L 9.86538461538462 16.125  Z M 5.48076923076923 7.5  L 5.48076923076923 10.875  L 9.13461538461539 10.875  L 9.13461538461539 7.5  L 5.48076923076923 7.5  Z M 14.25 16.125  L 14.25 19.5  L 17.5384615384615 19.5  L 17.5384615384615 16.125  L 14.25 16.125  Z M 9.86538461538462 11.625  L 9.86538461538462 15.375  L 13.5192307692308 15.375  L 13.5192307692308 11.625  L 9.86538461538462 11.625  Z M 5.73768028846154 5.513671875  C 5.80999599358974 5.439453125  5.84615384615385 5.3515625  5.84615384615385 5.25  L 5.84615384615385 1.875  C 5.84615384615385 1.7734375  5.80999599358974 1.685546875  5.73768028846154 1.611328125  C 5.66536458333333 1.537109375  5.57972756410256 1.5  5.48076923076923 1.5  L 4.75 1.5  C 4.65104166666667 1.5  4.5654046474359 1.537109375  4.49308894230769 1.611328125  C 4.42077323717949 1.685546875  4.38461538461539 1.7734375  4.38461538461539 1.875  L 4.38461538461539 5.25  C 4.38461538461539 5.3515625  4.42077323717949 5.439453125  4.49308894230769 5.513671875  C 4.5654046474359 5.587890625  4.65104166666667 5.625  4.75 5.625  L 5.48076923076923 5.625  C 5.57972756410256 5.625  5.66536458333333 5.587890625  5.73768028846154 5.513671875  Z M 14.25 11.625  L 14.25 15.375  L 17.5384615384615 15.375  L 17.5384615384615 11.625  L 14.25 11.625  Z M 9.86538461538462 7.5  L 9.86538461538462 10.875  L 13.5192307692308 10.875  L 13.5192307692308 7.5  L 9.86538461538462 7.5  Z M 14.25 7.5  L 14.25 10.875  L 17.5384615384615 10.875  L 17.5384615384615 7.5  L 14.25 7.5  Z M 14.5069110576923 5.513671875  C 14.5792267628205 5.439453125  14.6153846153846 5.3515625  14.6153846153846 5.25  L 14.6153846153846 1.875  C 14.6153846153846 1.7734375  14.5792267628205 1.685546875  14.5069110576923 1.611328125  C 14.4345953525641 1.537109375  14.3489583333333 1.5  14.25 1.5  L 13.5192307692308 1.5  C 13.4202724358974 1.5  13.3346354166667 1.537109375  13.2623197115385 1.611328125  C 13.1900040064103 1.685546875  13.1538461538462 1.7734375  13.1538461538462 1.875  L 13.1538461538462 5.25  C 13.1538461538462 5.3515625  13.1900040064103 5.439453125  13.2623197115385 5.513671875  C 13.3346354166667 5.587890625  13.4202724358974 5.625  13.5192307692308 5.625  L 14.25 5.625  C 14.3489583333333 5.625  14.4345953525641 5.587890625  14.5069110576923 5.513671875  Z M 18.5661057692308 3.4453125  C 18.8553685897436 3.7421875  19 4.09375  19 4.5  L 19 19.5  C 19 19.90625  18.8553685897436 20.2578125  18.5661057692308 20.5546875  C 18.2768429487179 20.8515625  17.9342948717949 21  17.5384615384615 21  L 1.46153846153846 21  C 1.06570512820513 21  0.723157051282051 20.8515625  0.433894230769231 20.5546875  C 0.14463141025641 20.2578125  0 19.90625  0 19.5  L 0 4.5  C 0 4.09375  0.14463141025641 3.7421875  0.433894230769231 3.4453125  C 0.723157051282051 3.1484375  1.06570512820513 3  1.46153846153846 3  L 2.92307692307692 3  L 2.92307692307692 1.875  C 2.92307692307692 1.359375  3.10196314102564 0.917968749999999  3.45973557692308 0.550781250000001  C 3.81750801282051 0.18359375  4.24759615384615 0  4.75 0  L 5.48076923076923 0  C 5.98317307692308 0  6.41326121794872 0.18359375  6.77103365384615 0.550781250000001  C 7.12880608974359 0.917968749999999  7.30769230769231 1.359375  7.30769230769231 1.875  L 7.30769230769231 3  L 11.6923076923077 3  L 11.6923076923077 1.875  C 11.6923076923077 1.359375  11.8711939102564 0.917968749999999  12.2289663461538 0.550781250000001  C 12.5867387820513 0.18359375  13.0168269230769 0  13.5192307692308 0  L 14.25 0  C 14.7524038461538 0  15.1824919871795 0.18359375  15.5402644230769 0.550781250000001  C 15.8980368589744 0.917968749999999  16.0769230769231 1.359375  16.0769230769231 1.875  L 16.0769230769231 3  L 17.5384615384615 3  C 17.9342948717949 3  18.2768429487179 3.1484375  18.5661057692308 3.4453125  Z " fill-rule="nonzero" fill="#333333" stroke="none" transform="matrix(1 0 0 1 1047 555 )" />
  </g>
</svg>