<?xml version="1.0" encoding="utf-8"?>
<svg version="1.1" xmlns:xlink="http://www.w3.org/1999/xlink" width="26px" height="29px" xmlns="http://www.w3.org/2000/svg">
  <g transform="matrix(1 0 0 1 -884 -318 )">
    <path d="M 2 22.2678571428571  L 2 26.9285714285714  L 6.5 26.9285714285714  L 6.5 22.2678571428571  L 2 22.2678571428571  Z M 7.5 22.2678571428571  L 7.5 26.9285714285714  L 12.5 26.9285714285714  L 12.5 22.2678571428571  L 7.5 22.2678571428571  Z M 2 16.0535714285714  L 2 21.2321428571429  L 6.5 21.2321428571429  L 6.5 16.0535714285714  L 2 16.0535714285714  Z M 7.5 16.0535714285714  L 7.5 21.2321428571429  L 12.5 21.2321428571429  L 12.5 16.0535714285714  L 7.5 16.0535714285714  Z M 2 10.3571428571429  L 2 15.0178571428571  L 6.5 15.0178571428571  L 6.5 10.3571428571429  L 2 10.3571428571429  Z M 13.5 22.2678571428571  L 13.5 26.9285714285714  L 18.5 26.9285714285714  L 18.5 22.2678571428571  L 13.5 22.2678571428571  Z M 7.5 10.3571428571429  L 7.5 15.0178571428571  L 12.5 15.0178571428571  L 12.5 10.3571428571429  L 7.5 10.3571428571429  Z M 19.5 22.2678571428571  L 19.5 26.9285714285714  L 24 26.9285714285714  L 24 22.2678571428571  L 19.5 22.2678571428571  Z M 13.5 16.0535714285714  L 13.5 21.2321428571429  L 18.5 21.2321428571429  L 18.5 16.0535714285714  L 13.5 16.0535714285714  Z M 7.8515625 7.61411830357143  C 7.95052083333333 7.51162574404762  8 7.39025297619047  8 7.25  L 8 2.58928571428571  C 8 2.44903273809524  7.95052083333333 2.32765997023809  7.8515625 2.22516741071429  C 7.75260416666667 2.12267485119047  7.63541666666667 2.07142857142857  7.5 2.07142857142857  L 6.5 2.07142857142857  C 6.36458333333333 2.07142857142857  6.24739583333333 2.12267485119047  6.1484375 2.22516741071429  C 6.04947916666667 2.32765997023809  6 2.44903273809524  6 2.58928571428571  L 6 7.25  C 6 7.39025297619047  6.04947916666667 7.51162574404762  6.1484375 7.61411830357143  C 6.24739583333333 7.71661086309524  6.36458333333333 7.76785714285714  6.5 7.76785714285714  L 7.5 7.76785714285714  C 7.63541666666667 7.76785714285714  7.75260416666667 7.71661086309524  7.8515625 7.61411830357143  Z M 19.5 16.0535714285714  L 19.5 21.2321428571429  L 24 21.2321428571429  L 24 16.0535714285714  L 19.5 16.0535714285714  Z M 13.5 10.3571428571429  L 13.5 15.0178571428571  L 18.5 15.0178571428571  L 18.5 10.3571428571429  L 13.5 10.3571428571429  Z M 19.5 10.3571428571429  L 19.5 15.0178571428571  L 24 15.0178571428571  L 24 10.3571428571429  L 19.5 10.3571428571429  Z M 19.8515625 7.61411830357143  C 19.9505208333333 7.51162574404762  20 7.39025297619047  20 7.25  L 20 2.58928571428571  C 20 2.44903273809524  19.9505208333333 2.32765997023809  19.8515625 2.22516741071429  C 19.7526041666667 2.12267485119047  19.6354166666667 2.07142857142857  19.5 2.07142857142857  L 18.5 2.07142857142857  C 18.3645833333333 2.07142857142857  18.2473958333333 2.12267485119047  18.1484375 2.22516741071429  C 18.0494791666667 2.32765997023809  18 2.44903273809524  18 2.58928571428571  L 18 7.25  C 18 7.39025297619047  18.0494791666667 7.51162574404762  18.1484375 7.61411830357143  C 18.2473958333333 7.71661086309524  18.3645833333333 7.76785714285714  18.5 7.76785714285714  L 19.5 7.76785714285714  C 19.6354166666667 7.76785714285714  19.7526041666667 7.71661086309524  19.8515625 7.61411830357143  Z M 25.40625 4.7578125  C 25.8020833333333 5.16778273809524  26 5.65327380952381  26 6.21428571428571  L 26 26.9285714285714  C 26 27.4895833333333  25.8020833333333 27.9750744047619  25.40625 28.3850446428571  C 25.0104166666667 28.7950148809524  24.5416666666667 29  24 29  L 2 29  C 1.45833333333333 29  0.989583333333333 28.7950148809524  0.59375 28.3850446428571  C 0.197916666666667 27.9750744047619  0 27.4895833333333  0 26.9285714285714  L 0 6.21428571428571  C 0 5.65327380952381  0.197916666666667 5.16778273809524  0.59375 4.7578125  C 0.989583333333333 4.34784226190476  1.45833333333333 4.14285714285714  2 4.14285714285714  L 4 4.14285714285714  L 4 2.58928571428571  C 4 1.87723214285714  4.24479166666667 1.26767113095238  4.734375 0.760602678571429  C 5.22395833333333 0.253534226190477  5.8125 0  6.5 0  L 7.5 0  C 8.1875 0  8.77604166666667 0.253534226190477  9.265625 0.760602678571429  C 9.75520833333333 1.26767113095238  10 1.87723214285714  10 2.58928571428571  L 10 4.14285714285714  L 16 4.14285714285714  L 16 2.58928571428571  C 16 1.87723214285714  16.2447916666667 1.26767113095238  16.734375 0.760602678571429  C 17.2239583333333 0.253534226190477  17.8125 0  18.5 0  L 19.5 0  C 20.1875 0  20.7760416666667 0.253534226190477  21.265625 0.760602678571429  C 21.7552083333333 1.26767113095238  22 1.87723214285714  22 2.58928571428571  L 22 4.14285714285714  L 24 4.14285714285714  C 24.5416666666667 4.14285714285714  25.0104166666667 4.34784226190476  25.40625 4.7578125  Z " fill-rule="nonzero" fill="#8c8c8c" stroke="none" transform="matrix(1 0 0 1 884 318 )" />
  </g>
</svg>