<?xml version="1.0" encoding="utf-8"?>
<svg version="1.1" xmlns:xlink="http://www.w3.org/1999/xlink" width="7px" height="7px" xmlns="http://www.w3.org/2000/svg">
  <g transform="matrix(1 0 0 1 -428 -326 )">
    <path d="M 5.37972027972028 3.5  L 6.68181818181818 4.20182291666667  C 6.83193473193473 4.28081597222222  6.92902097902098 4.39854600694444  6.97307692307692 4.55501302083333  C 7.01713286713287 4.71148003472222  6.9967365967366 4.85959201388889  6.91188811188811 4.99934895833333  L 6.5986013986014 5.50065104166667  C 6.51375291375291 5.64040798611111  6.38729603729604 5.73079427083333  6.21923076923077 5.77180989583333  C 6.0511655011655 5.81282552083333  5.89207459207459 5.79383680555556  5.74195804195804 5.71484375  L 4.43986013986014 5.017578125  L 4.43986013986014 6.41666666666667  C 4.43986013986014 6.57465277777778  4.37785547785548 6.71137152777778  4.25384615384615 6.82682291666667  C 4.12983682983683 6.94227430555556  3.98298368298368 7  3.81328671328671 7  L 3.18671328671329 7  C 3.01701631701632 7  2.87016317016317 6.94227430555556  2.74615384615385 6.82682291666667  C 2.62214452214452 6.71137152777778  2.56013986013986 6.57465277777778  2.56013986013986 6.41666666666667  L 2.56013986013986 5.017578125  L 1.25804195804196 5.71484375  C 1.10792540792541 5.79383680555556  0.948834498834499 5.81282552083333  0.780769230769231 5.77180989583333  C 0.612703962703963 5.73079427083333  0.486247086247086 5.64040798611111  0.401398601398601 5.50065104166667  L 0.0881118881118881 4.99934895833333  C 0.00326340326340329 4.85959201388889  -0.0171328671328671 4.71148003472222  0.0269230769230769 4.55501302083333  C 0.070979020979021 4.39854600694444  0.168065268065268 4.28081597222222  0.318181818181818 4.20182291666667  L 1.62027972027972 3.5  L 0.318181818181818 2.79817708333333  C 0.168065268065268 2.71918402777778  0.070979020979021 2.60145399305556  0.0269230769230769 2.44498697916667  C -0.0171328671328671 2.28851996527778  0.00326340326340329 2.14040798611111  0.0881118881118881 2.00065104166667  L 0.401398601398601 1.49934895833333  C 0.486247086247086 1.35959201388889  0.612703962703963 1.26920572916667  0.780769230769231 1.22819010416667  C 0.948834498834499 1.18717447916667  1.10792540792541 1.20616319444444  1.25804195804196 1.28515625  L 2.56013986013986 1.982421875  L 2.56013986013986 0.583333333333334  C 2.56013986013986 0.425347222222222  2.62214452214452 0.288628472222222  2.74615384615385 0.173177083333334  C 2.87016317016317 0.0577256944444438  3.01701631701632 0  3.18671328671329 0  L 3.81328671328671 0  C 3.98298368298368 0  4.12983682983683 0.0577256944444438  4.25384615384615 0.173177083333334  C 4.37785547785548 0.288628472222222  4.43986013986014 0.425347222222222  4.43986013986014 0.583333333333334  L 4.43986013986014 1.982421875  L 5.74195804195804 1.28515625  C 5.89207459207459 1.20616319444444  6.0511655011655 1.18717447916667  6.21923076923077 1.22819010416667  C 6.38729603729604 1.26920572916667  6.51375291375291 1.35959201388889  6.5986013986014 1.49934895833333  L 6.91188811188811 2.00065104166667  C 6.9967365967366 2.14040798611111  7.01713286713287 2.28851996527778  6.97307692307692 2.44498697916667  C 6.92902097902098 2.60145399305556  6.83193473193473 2.71918402777778  6.68181818181818 2.79817708333333  L 5.37972027972028 3.5  Z " fill-rule="nonzero" fill="#ff0000" stroke="none" transform="matrix(1 0 0 1 428 326 )" />
  </g>
</svg>