<?xml version="1.0" encoding="utf-8"?>
<svg version="1.1" xmlns:xlink="http://www.w3.org/1999/xlink" width="118px" height="50px" xmlns="http://www.w3.org/2000/svg">
  <g transform="matrix(1 0 0 1 -25 -316 )">
    <path d="M 26 319  A 2 2 0 0 1 28 317 L 140 317  A 2 2 0 0 1 142 319 L 142 363  A 2 2 0 0 1 140 365 L 28 365  A 2 2 0 0 1 26 363 L 26 319  Z " fill-rule="nonzero" fill="#ffffff" stroke="none" fill-opacity="0.498039215686275" />
    <path d="M 25.5 319  A 2.5 2.5 0 0 1 28 316.5 L 140 316.5  A 2.5 2.5 0 0 1 142.5 319 L 142.5 363  A 2.5 2.5 0 0 1 140 365.5 L 28 365.5  A 2.5 2.5 0 0 1 25.5 363 L 25.5 319  Z " stroke-width="1" stroke="#cccccc" fill="none" stroke-opacity="0.698039215686274" />
  </g>
</svg>