<?xml version="1.0" encoding="utf-8"?>
<svg version="1.1" xmlns:xlink="http://www.w3.org/1999/xlink" width="300px" height="50px" xmlns="http://www.w3.org/2000/svg">
  <g transform="matrix(1 0 0 1 -25 -254 )">
    <path d="M 26 257  A 2 2 0 0 1 28 255 L 322 255  A 2 2 0 0 1 324 257 L 324 301  A 2 2 0 0 1 322 303 L 28 303  A 2 2 0 0 1 26 301 L 26 257  Z " fill-rule="nonzero" fill="#ffffff" stroke="none" fill-opacity="0.498039215686275" />
    <path d="M 25.5 257  A 2.5 2.5 0 0 1 28 254.5 L 322 254.5  A 2.5 2.5 0 0 1 324.5 257 L 324.5 301  A 2.5 2.5 0 0 1 322 303.5 L 28 303.5  A 2.5 2.5 0 0 1 25.5 301 L 25.5 257  Z " stroke-width="1" stroke="#cccccc" fill="none" stroke-opacity="0.698039215686274" />
  </g>
</svg>