<?xml version="1.0" encoding="utf-8"?>
<svg version="1.1" xmlns:xlink="http://www.w3.org/1999/xlink" width="124px" height="50px" xmlns="http://www.w3.org/2000/svg">
  <g transform="matrix(1 0 0 1 -156 -316 )">
    <path d="M 157.5 319  A 1.5 1.5 0 0 1 159 317.5 L 277 317.5  A 1.5 1.5 0 0 1 278.5 319 L 278.5 363  A 1.5 1.5 0 0 1 277 364.5 L 159 364.5  A 1.5 1.5 0 0 1 157.5 363 L 157.5 319  Z " fill-rule="nonzero" fill="#ffffff" stroke="none" fill-opacity="0" />
    <path d="M 157 319  A 2 2 0 0 1 159 317 L 277 317  A 2 2 0 0 1 279 319 L 279 363  A 2 2 0 0 1 277 365 L 159 365  A 2 2 0 0 1 157 363 L 157 319  Z " stroke-width="2" stroke="#000000" fill="none" />
  </g>
</svg>