<?xml version="1.0" encoding="utf-8"?>
<svg version="1.1" xmlns:xlink="http://www.w3.org/1999/xlink" width="12px" height="12px" viewBox="1969 1833  12 12" xmlns="http://www.w3.org/2000/svg">
  <path d="M 1975 1833  C 1978.36 1833  1981 1835.64  1981 1839  C 1981 1842.36  1978.36 1845  1975 1845  C 1971.64 1845  1969 1842.36  1969 1839  C 1969 1835.64  1971.64 1833  1975 1833  Z " fill-rule="nonzero" fill="#ffffff" stroke="none" />
  <path d="M 1975 1833.5  C 1978.08 1833.5  1980.5 1835.92  1980.5 1839  C 1980.5 1842.08  1978.08 1844.5  1975 1844.5  C 1971.92 1844.5  1969.5 1842.08  1969.5 1839  C 1969.5 1835.92  1971.92 1833.5  1975 1833.5  Z " stroke-width="1" stroke="#797979" fill="none" />
  <path d="M 1975 1842  C 1973.32 1842  1972 1840.68  1972 1839  C 1972 1837.32  1973.32 1836  1975 1836  C 1976.68 1836  1978 1837.32  1978 1839  C 1978 1840.68  1976.68 1842  1975 1842  " fill-rule="nonzero" fill="#797979" stroke="none" />
</svg>