<?xml version="1.0" encoding="utf-8"?>
<svg version="1.1" xmlns:xlink="http://www.w3.org/1999/xlink" width="12px" height="12px" viewBox="1719 921  12 12" xmlns="http://www.w3.org/2000/svg">
  <path d="M 1725 921  C 1728.36 921  1731 923.64  1731 927  C 1731 930.36  1728.36 933  1725 933  C 1721.64 933  1719 930.36  1719 927  C 1719 923.64  1721.64 921  1725 921  Z " fill-rule="nonzero" fill="#ffffff" stroke="none" />
  <path d="M 1725 921.5  C 1728.08 921.5  1730.5 923.92  1730.5 927  C 1730.5 930.08  1728.08 932.5  1725 932.5  C 1721.92 932.5  1719.5 930.08  1719.5 927  C 1719.5 923.92  1721.92 921.5  1725 921.5  Z " stroke-width="1" stroke="#797979" fill="none" />
  <path d="M 1725 930  C 1723.32 930  1722 928.68  1722 927  C 1722 925.32  1723.32 924  1725 924  C 1726.68 924  1728 925.32  1728 927  C 1728 928.68  1726.68 930  1725 930  " fill-rule="nonzero" fill="#797979" stroke="none" />
</svg>