<?xml version="1.0" encoding="utf-8"?>
<svg version="1.1" xmlns:xlink="http://www.w3.org/1999/xlink" width="12px" height="12px" viewBox="1719 1041  12 12" xmlns="http://www.w3.org/2000/svg">
  <path d="M 1725 1041  C 1728.36 1041  1731 1043.64  1731 1047  C 1731 1050.36  1728.36 1053  1725 1053  C 1721.64 1053  1719 1050.36  1719 1047  C 1719 1043.64  1721.64 1041  1725 1041  Z " fill-rule="nonzero" fill="#ffffff" stroke="none" />
  <path d="M 1725 1041.5  C 1728.08 1041.5  1730.5 1043.92  1730.5 1047  C 1730.5 1050.08  1728.08 1052.5  1725 1052.5  C 1721.92 1052.5  1719.5 1050.08  1719.5 1047  C 1719.5 1043.92  1721.92 1041.5  1725 1041.5  Z " stroke-width="1" stroke="#797979" fill="none" />
  <path d="M 1725 1050  C 1723.32 1050  1722 1048.68  1722 1047  C 1722 1045.32  1723.32 1044  1725 1044  C 1726.68 1044  1728 1045.32  1728 1047  C 1728 1048.68  1726.68 1050  1725 1050  " fill-rule="nonzero" fill="#797979" stroke="none" />
</svg>