<?xml version="1.0" encoding="utf-8"?>
<svg version="1.1" xmlns:xlink="http://www.w3.org/1999/xlink" width="105px" height="25px" xmlns="http://www.w3.org/2000/svg">
  <defs>
    <linearGradient gradientUnits="userSpaceOnUse" x1="52.5" y1="0" x2="52.5" y2="25" id="LinearGradient21">
      <stop id="Stop22" stop-color="#ffffff" offset="0" />
      <stop id="Stop23" stop-color="#f5f5f5" offset="0.2" />
      <stop id="Stop24" stop-color="#f0f0f0" offset="0.9" />
      <stop id="Stop25" stop-color="#d2d2d2" offset="1" />
      <stop id="Stop26" stop-color="#ffffff" offset="1" />
    </linearGradient>
    <mask fill="white" id="clip27">
      <path d="M 0 21  L 0 4  C 0 1.75999999999999  1.75999999999999 0  4 0  L 50.1690140845071 0  L 68.4788732394367 0  L 101 0  C 103.24 0  105 1.75999999999999  105 4  L 105 21  C 105 23.24  103.24 25  101 25  L 4 25  C 1.75999999999999 25  0 23.24  0 21  Z " fill-rule="evenodd" />
    </mask>
  </defs>
  <g transform="matrix(1 0 0 1 -878 -375 )">
    <path d="M 0 21  L 0 4  C 0 1.75999999999999  1.75999999999999 0  4 0  L 50.1690140845071 0  L 68.4788732394367 0  L 101 0  C 103.24 0  105 1.75999999999999  105 4  L 105 21  C 105 23.24  103.24 25  101 25  L 4 25  C 1.75999999999999 25  0 23.24  0 21  Z " fill-rule="nonzero" fill="url(#LinearGradient21)" stroke="none" transform="matrix(1 0 0 1 878 375 )" />
    <path d="M 0 21  L 0 4  C 0 1.75999999999999  1.75999999999999 0  4 0  L 50.1690140845071 0  L 68.4788732394367 0  L 101 0  C 103.24 0  105 1.75999999999999  105 4  L 105 21  C 105 23.24  103.24 25  101 25  L 4 25  C 1.75999999999999 25  0 23.24  0 21  Z " stroke-width="2" stroke="#797979" fill="none" transform="matrix(1 0 0 1 878 375 )" mask="url(#clip27)" />
  </g>
</svg>