<?xml version="1.0" encoding="utf-8"?>
<svg version="1.1" xmlns:xlink="http://www.w3.org/1999/xlink" width="22px" height="24px" xmlns="http://www.w3.org/2000/svg">
  <defs>
    <mask fill="white" id="clip8">
      <path d="M 9.16666666666671 11.0000000000002  L 9.16666666666671 15  L 12.8333333333333 12.9999999999998  L 9.16666666666671 11.0000000000002  Z M 7.33333333333329 9.76562499999983  L 14.6666666666667 5.765625  L 14.6666666666667 14.2343750000002  L 7.33333333333329 18.234375  L 7.33333333333329 9.76562499999983  Z M 17.74609375 16.265625  C 18.4431423611111 14.9635416666666  18.7916666666667 13.5416666666668  18.7916666666667 12  C 18.7916666666667 10.4583333333332  18.4431423611111 9.03645833333336  17.74609375 7.734375  C 17.0490451388889 6.43229166666664  16.1037326388889 5.40104166666664  14.91015625 4.640625  C 13.7165798611111 3.88020833333336  12.4131944444444 3.50000000000017  11 3.50000000000017  C 9.5868055555556 3.50000000000017  8.28342013888889 3.88020833333336  7.08984375 4.640625  C 5.89626736111111 5.40104166666664  4.95095486111111 6.43229166666664  4.25390625 7.734375  C 3.55685763888889 9.03645833333336  3.20833333333329 10.4583333333332  3.20833333333329 12  C 3.20833333333329 13.5416666666668  3.55685763888889 14.9635416666666  4.25390625 16.265625  C 4.95095486111111 17.5677083333334  5.89626736111111 18.5989583333334  7.08984375 19.359375  C 8.28342013888889 20.1197916666666  9.5868055555556 20.4999999999998  11 20.4999999999998  C 12.4131944444444 20.4999999999998  13.7165798611111 20.1197916666666  14.91015625 19.359375  C 16.1037326388889 18.5989583333334  17.0490451388889 17.5677083333334  17.74609375 16.265625  Z M 20.5247395833333 5.9765625  C 21.5082465277778 7.81510416666664  22 9.82291666666672  22 12  C 22 14.1770833333333  21.5082465277778 16.1848958333334  20.5247395833333 18.0234375  C 19.5412326388889 19.8619791666666  18.2068142361111 21.3177083333334  16.521484375 22.3906250000002  C 14.8361545138889 23.4635416666667  12.9956597222222 24  11 24  C 9.00434027777777 24  7.16384548611111 23.4635416666667  5.478515625 22.3906250000002  C 3.79318576388889 21.3177083333334  2.45876736111111 19.8619791666666  1.47526041666671 18.0234375  C 0.491753472222229 16.1848958333334  0 14.1770833333333  0 12  C 0 9.82291666666672  0.491753472222229 7.81510416666664  1.47526041666671 5.9765625  C 2.45876736111111 4.13802083333336  3.79318576388889 2.68229166666664  5.478515625 1.60937499999983  C 7.16384548611111 0.536458333333278  9.00434027777777 0  11 0  C 12.9956597222222 0  14.8361545138889 0.536458333333278  16.521484375 1.60937499999983  C 18.2068142361111 2.68229166666664  19.5412326388889 4.13802083333336  20.5247395833333 5.9765625  Z " fill-rule="evenodd" />
    </mask>
  </defs>
  <g transform="matrix(1 0 0 1 -24 -674 )">
    <path d="M 9.16666666666671 11.0000000000002  L 9.16666666666671 15  L 12.8333333333333 12.9999999999998  L 9.16666666666671 11.0000000000002  Z M 7.33333333333329 9.76562499999983  L 14.6666666666667 5.765625  L 14.6666666666667 14.2343750000002  L 7.33333333333329 18.234375  L 7.33333333333329 9.76562499999983  Z M 17.74609375 16.265625  C 18.4431423611111 14.9635416666666  18.7916666666667 13.5416666666668  18.7916666666667 12  C 18.7916666666667 10.4583333333332  18.4431423611111 9.03645833333336  17.74609375 7.734375  C 17.0490451388889 6.43229166666664  16.1037326388889 5.40104166666664  14.91015625 4.640625  C 13.7165798611111 3.88020833333336  12.4131944444444 3.50000000000017  11 3.50000000000017  C 9.5868055555556 3.50000000000017  8.28342013888889 3.88020833333336  7.08984375 4.640625  C 5.89626736111111 5.40104166666664  4.95095486111111 6.43229166666664  4.25390625 7.734375  C 3.55685763888889 9.03645833333336  3.20833333333329 10.4583333333332  3.20833333333329 12  C 3.20833333333329 13.5416666666668  3.55685763888889 14.9635416666666  4.25390625 16.265625  C 4.95095486111111 17.5677083333334  5.89626736111111 18.5989583333334  7.08984375 19.359375  C 8.28342013888889 20.1197916666666  9.5868055555556 20.4999999999998  11 20.4999999999998  C 12.4131944444444 20.4999999999998  13.7165798611111 20.1197916666666  14.91015625 19.359375  C 16.1037326388889 18.5989583333334  17.0490451388889 17.5677083333334  17.74609375 16.265625  Z M 20.5247395833333 5.9765625  C 21.5082465277778 7.81510416666664  22 9.82291666666672  22 12  C 22 14.1770833333333  21.5082465277778 16.1848958333334  20.5247395833333 18.0234375  C 19.5412326388889 19.8619791666666  18.2068142361111 21.3177083333334  16.521484375 22.3906250000002  C 14.8361545138889 23.4635416666667  12.9956597222222 24  11 24  C 9.00434027777777 24  7.16384548611111 23.4635416666667  5.478515625 22.3906250000002  C 3.79318576388889 21.3177083333334  2.45876736111111 19.8619791666666  1.47526041666671 18.0234375  C 0.491753472222229 16.1848958333334  0 14.1770833333333  0 12  C 0 9.82291666666672  0.491753472222229 7.81510416666664  1.47526041666671 5.9765625  C 2.45876736111111 4.13802083333336  3.79318576388889 2.68229166666664  5.478515625 1.60937499999983  C 7.16384548611111 0.536458333333278  9.00434027777777 0  11 0  C 12.9956597222222 0  14.8361545138889 0.536458333333278  16.521484375 1.60937499999983  C 18.2068142361111 2.68229166666664  19.5412326388889 4.13802083333336  20.5247395833333 5.9765625  Z " fill-rule="nonzero" fill="#ffffff" stroke="none" transform="matrix(1 0 0 1 24 674 )" />
    <path d="M 9.16666666666671 11.0000000000002  L 9.16666666666671 15  L 12.8333333333333 12.9999999999998  L 9.16666666666671 11.0000000000002  Z " stroke-width="2" stroke="#797979" fill="none" transform="matrix(1 0 0 1 24 674 )" mask="url(#clip8)" />
    <path d="M 7.33333333333329 9.76562499999983  L 14.6666666666667 5.765625  L 14.6666666666667 14.2343750000002  L 7.33333333333329 18.234375  L 7.33333333333329 9.76562499999983  Z " stroke-width="2" stroke="#797979" fill="none" transform="matrix(1 0 0 1 24 674 )" mask="url(#clip8)" />
    <path d="M 17.74609375 16.265625  C 18.4431423611111 14.9635416666666  18.7916666666667 13.5416666666668  18.7916666666667 12  C 18.7916666666667 10.4583333333332  18.4431423611111 9.03645833333336  17.74609375 7.734375  C 17.0490451388889 6.43229166666664  16.1037326388889 5.40104166666664  14.91015625 4.640625  C 13.7165798611111 3.88020833333336  12.4131944444444 3.50000000000017  11 3.50000000000017  C 9.5868055555556 3.50000000000017  8.28342013888889 3.88020833333336  7.08984375 4.640625  C 5.89626736111111 5.40104166666664  4.95095486111111 6.43229166666664  4.25390625 7.734375  C 3.55685763888889 9.03645833333336  3.20833333333329 10.4583333333332  3.20833333333329 12  C 3.20833333333329 13.5416666666668  3.55685763888889 14.9635416666666  4.25390625 16.265625  C 4.95095486111111 17.5677083333334  5.89626736111111 18.5989583333334  7.08984375 19.359375  C 8.28342013888889 20.1197916666666  9.5868055555556 20.4999999999998  11 20.4999999999998  C 12.4131944444444 20.4999999999998  13.7165798611111 20.1197916666666  14.91015625 19.359375  C 16.1037326388889 18.5989583333334  17.0490451388889 17.5677083333334  17.74609375 16.265625  Z " stroke-width="2" stroke="#797979" fill="none" transform="matrix(1 0 0 1 24 674 )" mask="url(#clip8)" />
    <path d="M 20.5247395833333 5.9765625  C 21.5082465277778 7.81510416666664  22 9.82291666666672  22 12  C 22 14.1770833333333  21.5082465277778 16.1848958333334  20.5247395833333 18.0234375  C 19.5412326388889 19.8619791666666  18.2068142361111 21.3177083333334  16.521484375 22.3906250000002  C 14.8361545138889 23.4635416666667  12.9956597222222 24  11 24  C 9.00434027777777 24  7.16384548611111 23.4635416666667  5.478515625 22.3906250000002  C 3.79318576388889 21.3177083333334  2.45876736111111 19.8619791666666  1.47526041666671 18.0234375  C 0.491753472222229 16.1848958333334  0 14.1770833333333  0 12  C 0 9.82291666666672  0.491753472222229 7.81510416666664  1.47526041666671 5.9765625  C 2.45876736111111 4.13802083333336  3.79318576388889 2.68229166666664  5.478515625 1.60937499999983  C 7.16384548611111 0.536458333333278  9.00434027777777 0  11 0  C 12.9956597222222 0  14.8361545138889 0.536458333333278  16.521484375 1.60937499999983  C 18.2068142361111 2.68229166666664  19.5412326388889 4.13802083333336  20.5247395833333 5.9765625  Z " stroke-width="2" stroke="#797979" fill="none" transform="matrix(1 0 0 1 24 674 )" mask="url(#clip8)" />
  </g>
</svg>