<?xml version="1.0" encoding="utf-8"?>
<svg version="1.1" xmlns:xlink="http://www.w3.org/1999/xlink" width="30px" height="33px" xmlns="http://www.w3.org/2000/svg">
  <g transform="matrix(1 0 0 1 -865 -196 )">
    <path d="M 2.30769230769231 25.3392857142857  L 2.30769230769231 30.6428571428571  L 7.5 30.6428571428571  L 7.5 25.3392857142857  L 2.30769230769231 25.3392857142857  Z M 8.65384615384615 25.3392857142857  L 8.65384615384615 30.6428571428571  L 14.4230769230769 30.6428571428571  L 14.4230769230769 25.3392857142857  L 8.65384615384615 25.3392857142857  Z M 2.30769230769231 18.2678571428571  L 2.30769230769231 24.1607142857143  L 7.5 24.1607142857143  L 7.5 18.2678571428571  L 2.30769230769231 18.2678571428571  Z M 8.65384615384615 18.2678571428571  L 8.65384615384615 24.1607142857143  L 14.4230769230769 24.1607142857143  L 14.4230769230769 18.2678571428571  L 8.65384615384615 18.2678571428571  Z M 2.30769230769231 11.7857142857143  L 2.30769230769231 17.0892857142857  L 7.5 17.0892857142857  L 7.5 11.7857142857143  L 2.30769230769231 11.7857142857143  Z M 15.5769230769231 25.3392857142857  L 15.5769230769231 30.6428571428571  L 21.3461538461538 30.6428571428571  L 21.3461538461538 25.3392857142857  L 15.5769230769231 25.3392857142857  Z M 8.65384615384615 11.7857142857143  L 8.65384615384615 17.0892857142857  L 14.4230769230769 17.0892857142857  L 14.4230769230769 11.7857142857143  L 8.65384615384615 11.7857142857143  Z M 22.5 25.3392857142857  L 22.5 30.6428571428571  L 27.6923076923077 30.6428571428571  L 27.6923076923077 25.3392857142857  L 22.5 25.3392857142857  Z M 15.5769230769231 18.2678571428571  L 15.5769230769231 24.1607142857143  L 21.3461538461538 24.1607142857143  L 21.3461538461538 18.2678571428571  L 15.5769230769231 18.2678571428571  Z M 9.05949519230769 8.66434151785714  C 9.17367788461539 8.54771205357143  9.23076923076923 8.40959821428571  9.23076923076923 8.25  L 9.23076923076923 2.94642857142857  C 9.23076923076923 2.78683035714286  9.17367788461539 2.64871651785714  9.05949519230769 2.53208705357143  C 8.9453125 2.41545758928571  8.81009615384615 2.35714285714286  8.65384615384615 2.35714285714286  L 7.5 2.35714285714286  C 7.34375 2.35714285714286  7.20853365384615 2.41545758928571  7.09435096153846 2.53208705357143  C 6.98016826923077 2.64871651785714  6.92307692307692 2.78683035714286  6.92307692307692 2.94642857142857  L 6.92307692307692 8.25  C 6.92307692307692 8.40959821428571  6.98016826923077 8.54771205357143  7.09435096153846 8.66434151785714  C 7.20853365384615 8.78097098214286  7.34375 8.83928571428572  7.5 8.83928571428572  L 8.65384615384615 8.83928571428572  C 8.81009615384615 8.83928571428572  8.9453125 8.78097098214286  9.05949519230769 8.66434151785714  Z M 22.5 18.2678571428571  L 22.5 24.1607142857143  L 27.6923076923077 24.1607142857143  L 27.6923076923077 18.2678571428571  L 22.5 18.2678571428571  Z M 15.5769230769231 11.7857142857143  L 15.5769230769231 17.0892857142857  L 21.3461538461538 17.0892857142857  L 21.3461538461538 11.7857142857143  L 15.5769230769231 11.7857142857143  Z M 22.5 11.7857142857143  L 22.5 17.0892857142857  L 27.6923076923077 17.0892857142857  L 27.6923076923077 11.7857142857143  L 22.5 11.7857142857143  Z M 22.9056490384615 8.66434151785714  C 23.0198317307692 8.54771205357143  23.0769230769231 8.40959821428571  23.0769230769231 8.25  L 23.0769230769231 2.94642857142857  C 23.0769230769231 2.78683035714286  23.0198317307692 2.64871651785714  22.9056490384615 2.53208705357143  C 22.7914663461538 2.41545758928571  22.65625 2.35714285714286  22.5 2.35714285714286  L 21.3461538461538 2.35714285714286  C 21.1899038461539 2.35714285714286  21.0546875 2.41545758928571  20.9405048076923 2.53208705357143  C 20.8263221153846 2.64871651785714  20.7692307692308 2.78683035714286  20.7692307692308 2.94642857142857  L 20.7692307692308 8.25  C 20.7692307692308 8.40959821428571  20.8263221153846 8.54771205357143  20.9405048076923 8.66434151785714  C 21.0546875 8.78097098214286  21.1899038461539 8.83928571428572  21.3461538461538 8.83928571428572  L 22.5 8.83928571428572  C 22.65625 8.83928571428572  22.7914663461538 8.78097098214286  22.9056490384615 8.66434151785714  Z M 29.3149038461538 5.4140625  C 29.7716346153846 5.88058035714286  30 6.43303571428571  30 7.07142857142857  L 30 30.6428571428571  C 30 31.28125  29.7716346153846 31.8337053571429  29.3149038461538 32.3002232142857  C 28.8581730769231 32.7667410714286  28.3173076923077 33  27.6923076923077 33  L 2.30769230769231 33  C 1.68269230769231 33  1.14182692307692 32.7667410714286  0.685096153846154 32.3002232142857  C 0.228365384615385 31.8337053571429  0 31.28125  0 30.6428571428571  L 0 7.07142857142857  C 0 6.43303571428571  0.228365384615385 5.88058035714286  0.685096153846154 5.4140625  C 1.14182692307692 4.94754464285714  1.68269230769231 4.71428571428572  2.30769230769231 4.71428571428572  L 4.61538461538462 4.71428571428572  L 4.61538461538462 2.94642857142857  C 4.61538461538462 2.13616071428572  4.89783653846154 1.44252232142857  5.46274038461538 0.865513392857144  C 6.02764423076923 0.288504464285715  6.70673076923077 0  7.5 0  L 8.65384615384615 0  C 9.44711538461539 0  10.1262019230769 0.288504464285715  10.6911057692308 0.865513392857144  C 11.2560096153846 1.44252232142857  11.5384615384615 2.13616071428572  11.5384615384615 2.94642857142857  L 11.5384615384615 4.71428571428572  L 18.4615384615385 4.71428571428572  L 18.4615384615385 2.94642857142857  C 18.4615384615385 2.13616071428572  18.7439903846154 1.44252232142857  19.3088942307692 0.865513392857144  C 19.8737980769231 0.288504464285715  20.5528846153846 0  21.3461538461538 0  L 22.5 0  C 23.2932692307692 0  23.9723557692308 0.288504464285715  24.5372596153846 0.865513392857144  C 25.1021634615385 1.44252232142857  25.3846153846154 2.13616071428572  25.3846153846154 2.94642857142857  L 25.3846153846154 4.71428571428572  L 27.6923076923077 4.71428571428572  C 28.3173076923077 4.71428571428572  28.8581730769231 4.94754464285714  29.3149038461538 5.4140625  Z " fill-rule="nonzero" fill="#8c8c8c" stroke="none" transform="matrix(1 0 0 1 865 196 )" />
  </g>
</svg>