<?xml version="1.0" encoding="utf-8"?>
<svg version="1.1" xmlns:xlink="http://www.w3.org/1999/xlink" width="84px" height="84px" xmlns="http://www.w3.org/2000/svg">
  <g>
    <path d="M 0 0  L 84 0  L 84 84  L 0 84  L 0 0  " fill-rule="nonzero" fill="#cccccc" stroke="none" />
    <path d="M 6 6  L 78 6  L 78 78  L 6 78  L 6 6  " fill-rule="nonzero" fill="#ffffff" stroke="none" />
    <path d="M 49.98 25.2  C 46.452 25.2  43.68 22.428  43.68 18.9  C 43.68 15.372  46.452 12.6  49.98 12.6  C 53.508 12.6  56.28 15.372  56.28 18.9  C 56.28 22.428  53.508 25.2  49.98 25.2  " fill-rule="nonzero" fill="#cccccc" stroke="none" />
    <path d="M 8 76  L 8 38.6  L 25 21.6  L 48.8 35.2  L 62.4 31.8  L 76 35.2  L 76 76  L 8 76  " fill-rule="nonzero" fill="#169bd5" stroke="none" />
  </g>
</svg>