<?xml version="1.0" encoding="utf-8"?>
<svg version="1.1" xmlns:xlink="http://www.w3.org/1999/xlink" width="29px" height="29px" xmlns="http://www.w3.org/2000/svg">
  <g transform="matrix(1 0 0 1 -907 -177 )">
    <path d="M 16.7467447916667 7.419921875  C 16.8600260416667 7.533203125  16.9166666666667 7.67795138888888  16.9166666666667 7.85416666666667  L 16.9166666666667 16.3125  C 16.9166666666667 16.4887152777778  16.8600260416667 16.6334635416667  16.7467447916667 16.7467447916667  C 16.6334635416667 16.8600260416667  16.4887152777778 16.9166666666667  16.3125 16.9166666666667  L 10.2708333333333 16.9166666666667  C 10.0946180555556 16.9166666666667  9.94986979166667 16.8600260416667  9.83658854166667 16.7467447916667  C 9.72330729166667 16.6334635416667  9.66666666666667 16.4887152777778  9.66666666666667 16.3125  L 9.66666666666667 15.1041666666667  C 9.66666666666667 14.9279513888889  9.72330729166667 14.783203125  9.83658854166667 14.669921875  C 9.94986979166667 14.556640625  10.0946180555556 14.5  10.2708333333333 14.5  L 14.5 14.5  L 14.5 7.85416666666667  C 14.5 7.67795138888888  14.556640625 7.533203125  14.669921875 7.419921875  C 14.783203125 7.306640625  14.9279513888889 7.25  15.1041666666667 7.25  L 16.3125 7.25  C 16.4887152777778 7.25  16.6334635416667 7.306640625  16.7467447916667 7.419921875  Z M 23.392578125 19.654296875  C 24.3114149305556 18.0809461805556  24.7708333333333 16.3628472222222  24.7708333333333 14.5  C 24.7708333333333 12.6371527777778  24.3114149305556 10.9190538194444  23.392578125 9.345703125  C 22.4737413194444 7.77235243055555  21.2276475694444 6.52625868055555  19.654296875 5.607421875  C 18.0809461805556 4.68858506944444  16.3628472222222 4.22916666666667  14.5 4.22916666666667  C 12.6371527777778 4.22916666666667  10.9190538194444 4.68858506944444  9.345703125 5.607421875  C 7.77235243055556 6.52625868055555  6.52625868055556 7.77235243055555  5.607421875 9.345703125  C 4.68858506944444 10.9190538194444  4.22916666666667 12.6371527777778  4.22916666666667 14.5  C 4.22916666666667 16.3628472222222  4.68858506944444 18.0809461805556  5.607421875 19.654296875  C 6.52625868055556 21.2276475694444  7.77235243055556 22.4737413194444  9.345703125 23.392578125  C 10.9190538194444 24.3114149305556  12.6371527777778 24.7708333333333  14.5 24.7708333333333  C 16.3628472222222 24.7708333333333  18.0809461805556 24.3114149305556  19.654296875 23.392578125  C 21.2276475694444 22.4737413194444  22.4737413194444 21.2276475694444  23.392578125 19.654296875  Z M 27.0553385416667 7.2216796875  C 28.3517795138889 9.44325086805555  29 11.8693576388889  29 14.5  C 29 17.1306423611111  28.3517795138889 19.5567491319444  27.0553385416667 21.7783203125  C 25.7588975694444 23.9998914930556  23.9998914930556 25.7588975694444  21.7783203125 27.0553385416667  C 19.5567491319444 28.3517795138889  17.1306423611111 29  14.5 29  C 11.8693576388889 29  9.44325086805556 28.3517795138889  7.2216796875 27.0553385416667  C 5.00010850694444 25.7588975694444  3.24110243055556 23.9998914930556  1.94466145833333 21.7783203125  C 0.648220486111111 19.5567491319444  0 17.1306423611111  0 14.5  C 0 11.8693576388889  0.648220486111111 9.44325086805555  1.94466145833333 7.2216796875  C 3.24110243055556 5.00010850694444  5.00010850694444 3.24110243055555  7.2216796875 1.94466145833333  C 9.44325086805556 0.648220486111109  11.8693576388889 0  14.5 0  C 17.1306423611111 0  19.5567491319444 0.648220486111109  21.7783203125 1.94466145833333  C 23.9998914930556 3.24110243055555  25.7588975694444 5.00010850694444  27.0553385416667 7.2216796875  Z " fill-rule="nonzero" fill="#555555" stroke="none" transform="matrix(1 0 0 1 907 177 )" />
  </g>
</svg>