<?xml version="1.0" encoding="utf-8"?>
<svg version="1.1" xmlns:xlink="http://www.w3.org/1999/xlink" width="149px" height="109px" xmlns="http://www.w3.org/2000/svg">
  <g transform="matrix(1 0 0 1 -397 -881 )">
    <path d="M 397 881  L 546 881  L 546 990  L 397 990  L 397 881  " fill-rule="nonzero" fill="#cccccc" stroke="none" />
    <path d="M 405 889  L 538 889  L 538 982  L 405 982  L 405 889  " fill-rule="nonzero" fill="#ffffff" stroke="none" />
    <path d="M 482.655 913.7  C 478.077 913.7  474.48 910.103  474.48 905.525  C 474.48 900.947  478.077 897.35  482.655 897.35  C 487.233 897.35  490.83 900.947  490.83 905.525  C 490.83 910.103  487.233 913.7  482.655 913.7  " fill-rule="nonzero" fill="#cccccc" stroke="none" />
    <path d="M 408 980  L 408 931.6  L 440 909.6  L 484.8 941.374496644295  L 510.4 922.8  L 536 941.374496644295  L 536 980  L 408 980  " fill-rule="nonzero" fill="#169bd5" stroke="none" />
  </g>
</svg>