<?xml version="1.0" encoding="utf-8"?>
<svg version="1.1" xmlns:xlink="http://www.w3.org/1999/xlink" width="46px" height="41px" xmlns="http://www.w3.org/2000/svg">
  <g transform="matrix(1 0 0 1 -334 -402 )">
    <path d="M 334 402  L 380 402  L 380 443  L 334 443  L 334 402  " fill-rule="nonzero" fill="#cccccc" stroke="none" />
    <path d="M 337 405  L 377 405  L 377 440  L 337 440  L 337 405  " fill-rule="nonzero" fill="#ffffff" stroke="none" />
    <path d="M 360.995 414.3  C 359.273 414.3  357.92 412.947  357.92 411.225  C 357.92 409.503  359.273 408.15  360.995 408.15  C 362.717 408.15  364.07 409.503  364.07 411.225  C 364.07 412.947  362.717 414.3  360.995 414.3  " fill-rule="nonzero" fill="#cccccc" stroke="none" />
    <path d="M 338 439  L 338 420.85  L 347.5 412.6  L 360.8 421.352173913043  L 368.4 417.55  L 376 421.352173913043  L 376 439  L 338 439  " fill-rule="nonzero" fill="#169bd5" stroke="none" />
  </g>
</svg>