<?xml version="1.0" encoding="utf-8"?>
<svg version="1.1" xmlns:xlink="http://www.w3.org/1999/xlink" width="64px" height="27px" xmlns="http://www.w3.org/2000/svg">
  <defs>
    <mask fill="white" id="clip18">
      <path d="M 0 22  L 0 5  C 0 2.19999999999999  2.87346938775522 0  6.53061224489807 0  L 33.8518311434163 0  L 34.4285714285716 0  L 57.4693877551019 0  C 61.1265306122448 0  64 2.19999999999999  64 5  L 64 22  C 64 24.8  61.1265306122448 27  57.4693877551019 27  L 6.53061224489807 27  C 2.87346938775522 27  0 24.8  0 22  Z " fill-rule="evenodd" />
    </mask>
  </defs>
  <g transform="matrix(1 0 0 1 -1085 -289 )">
    <path d="M 0 22  L 0 5  C 0 2.19999999999999  2.87346938775522 0  6.53061224489807 0  L 33.8518311434163 0  L 34.4285714285716 0  L 57.4693877551019 0  C 61.1265306122448 0  64 2.19999999999999  64 5  L 64 22  C 64 24.8  61.1265306122448 27  57.4693877551019 27  L 6.53061224489807 27  C 2.87346938775522 27  0 24.8  0 22  Z " fill-rule="nonzero" fill="#ffffff" stroke="none" transform="matrix(1 0 0 1 1085 289 )" />
    <path d="M 0 22  L 0 5  C 0 2.19999999999999  2.87346938775522 0  6.53061224489807 0  L 33.8518311434163 0  L 34.4285714285716 0  L 57.4693877551019 0  C 61.1265306122448 0  64 2.19999999999999  64 5  L 64 22  C 64 24.8  61.1265306122448 27  57.4693877551019 27  L 6.53061224489807 27  C 2.87346938775522 27  0 24.8  0 22  Z " stroke-width="2" stroke="#797979" fill="none" transform="matrix(1 0 0 1 1085 289 )" mask="url(#clip18)" />
  </g>
</svg>