<?xml version="1.0" encoding="utf-8"?>
<svg version="1.1" xmlns:xlink="http://www.w3.org/1999/xlink" width="22px" height="19px" xmlns="http://www.w3.org/2000/svg">
  <defs>
    <mask fill="white" id="clip7">
      <path d="M 18.1205357142857 10.1927083333334  C 19.6592261904762 8.64236111111109  20.4285714285715 7.17447916666663  20.4285714285715 5.7890625  C 20.4285714285715 5.12109375  20.3405877976191 4.53146701388891  20.1646205357143 4.02018229166663  C 19.9886532738096 3.50889756944434  19.7635788690476 3.10275607638891  19.4893973214285 2.8017578125  C 19.2152157738096 2.50075954861109  18.8816964285715 2.25542534722229  18.4888392857143 2.06575520833337  C 18.0959821428572 1.87608506944434  17.7113095238096 1.74826388888891  17.3348214285715 1.68229166666663  C 16.9583333333333 1.61631944444434  16.5572916666667 1.58333333333337  16.1316964285715 1.58333333333337  C 15.7061011904762 1.58333333333337  15.2477678571428 1.6884765625  14.7566964285715 1.89876302083337  C 14.265625 2.10904947916663  13.8134300595238 2.37293836805566  13.4001116071428 2.6904296875  C 12.9867931547619 3.00792100694434  12.6328125 3.30479600694434  12.3381696428572 3.5810546875  C 12.0435267857143 3.85731336805566  11.7979910714285 4.11089409722229  11.6015625 4.341796875  C 11.4542410714285 4.52322048611109  11.2537202380952 4.61393229166663  11 4.61393229166663  C 10.7462797619048 4.61393229166663  10.5457589285715 4.52322048611109  10.3984375 4.341796875  C 10.2020089285715 4.11089409722229  9.95647321428567 3.85731336805566  9.66183035714283 3.5810546875  C 9.3671875 3.30479600694434  9.01320684523807 3.00792100694434  8.59988839285717 2.6904296875  C 8.1865699404762 2.37293836805566  7.734375 2.10904947916663  7.2433035714285 1.89876302083337  C 6.75223214285717 1.6884765625  6.2938988095238 1.58333333333337  5.8683035714285 1.58333333333337  C 5.44270833333329 1.58333333333337  5.04166666666671 1.61631944444434  4.6651785714285 1.68229166666663  C 4.28869047619045 1.74826388888891  3.90401785714283 1.87608506944434  3.51116071428567 2.06575520833337  C 3.1183035714285 2.25542534722229  2.78478422619045 2.50075954861109  2.5106026785715 2.8017578125  C 2.23642113095238 3.10275607638891  2.01134672619045 3.50889756944434  1.83537946428567 4.02018229166663  C 1.65941220238091 4.53146701388891  1.5714285714285 5.12109375  1.5714285714285 5.7890625  C 1.5714285714285 7.17447916666663  2.33668154761909 8.63823784722229  3.8671875 10.1803385416666  L 11 17.107421875  L 18.1205357142857 10.1927083333334  Z M 20.4408482142857 1.53385416666663  C 21.4802827380952 2.55642361111109  22 3.97482638888891  22 5.7890625  C 22 7.61154513888891  21.0628720238096 9.46701388888891  19.1886160714285 11.35546875  L 11.5401785714285 18.77734375  C 11.3928571428572 18.92578125  11.2127976190476 19  11 19  C 10.7872023809524 19  10.6071428571428 18.92578125  10.4598214285715 18.77734375  L 2.79910714285717 11.3307291666666  C 2.71726190476193 11.2647569444443  2.60472470238091 11.1575520833334  2.46149553571433 11.0091145833334  C 2.31826636904762 10.8606770833334  2.09114583333329 10.5906032986111  1.7801339285715 10.1988932291666  C 1.46912202380955 9.80718315972229  1.19084821428567 9.40516493055566  0.9453125 8.99283854166663  C 0.699776785714334 8.58051215277771  0.480840773809547 8.08159722222229  0.288504464285666 7.49609375  C 0.0961681547619264 6.91059027777771  0 6.34157986111109  0 5.7890625  C 0 3.97482638888891  0.519717261904788 2.55642361111109  1.55915178571433 1.53385416666663  C 2.5985863095238 0.511284722222285  4.03497023809521 0  5.8683035714285 0  C 6.37574404761909 0  6.8934151785715 0.0886501736110858  7.42131696428567 0.265950520833371  C 7.94921875 0.443250868055657  8.4402901785715 0.682400173611086  8.89453125 0.9833984375  C 9.3487723214285 1.28439670138891  9.73958333333329 1.56684027777771  10.0669642857143 1.83072916666663  C 10.3943452380952 2.09461805555566  10.7053571428572 2.375  11 2.671875  C 11.2946428571428 2.375  11.6056547619048 2.09461805555566  11.9330357142857 1.83072916666663  C 12.2604166666667 1.56684027777771  12.6512276785715 1.28439670138891  13.10546875 0.9833984375  C 13.5597098214285 0.682400173611086  14.05078125 0.443250868055657  14.5786830357143 0.265950520833371  C 15.1065848214285 0.0886501736110858  15.6242559523809 0  16.1316964285715 0  C 17.9650297619048 0  19.4014136904762 0.511284722222285  20.4408482142857 1.53385416666663  Z " fill-rule="evenodd" />
    </mask>
  </defs>
  <g transform="matrix(1 0 0 1 -304 -18 )">
    <path d="M 18.1205357142857 10.1927083333334  C 19.6592261904762 8.64236111111109  20.4285714285715 7.17447916666663  20.4285714285715 5.7890625  C 20.4285714285715 5.12109375  20.3405877976191 4.53146701388891  20.1646205357143 4.02018229166663  C 19.9886532738096 3.50889756944434  19.7635788690476 3.10275607638891  19.4893973214285 2.8017578125  C 19.2152157738096 2.50075954861109  18.8816964285715 2.25542534722229  18.4888392857143 2.06575520833337  C 18.0959821428572 1.87608506944434  17.7113095238096 1.74826388888891  17.3348214285715 1.68229166666663  C 16.9583333333333 1.61631944444434  16.5572916666667 1.58333333333337  16.1316964285715 1.58333333333337  C 15.7061011904762 1.58333333333337  15.2477678571428 1.6884765625  14.7566964285715 1.89876302083337  C 14.265625 2.10904947916663  13.8134300595238 2.37293836805566  13.4001116071428 2.6904296875  C 12.9867931547619 3.00792100694434  12.6328125 3.30479600694434  12.3381696428572 3.5810546875  C 12.0435267857143 3.85731336805566  11.7979910714285 4.11089409722229  11.6015625 4.341796875  C 11.4542410714285 4.52322048611109  11.2537202380952 4.61393229166663  11 4.61393229166663  C 10.7462797619048 4.61393229166663  10.5457589285715 4.52322048611109  10.3984375 4.341796875  C 10.2020089285715 4.11089409722229  9.95647321428567 3.85731336805566  9.66183035714283 3.5810546875  C 9.3671875 3.30479600694434  9.01320684523807 3.00792100694434  8.59988839285717 2.6904296875  C 8.1865699404762 2.37293836805566  7.734375 2.10904947916663  7.2433035714285 1.89876302083337  C 6.75223214285717 1.6884765625  6.2938988095238 1.58333333333337  5.8683035714285 1.58333333333337  C 5.44270833333329 1.58333333333337  5.04166666666671 1.61631944444434  4.6651785714285 1.68229166666663  C 4.28869047619045 1.74826388888891  3.90401785714283 1.87608506944434  3.51116071428567 2.06575520833337  C 3.1183035714285 2.25542534722229  2.78478422619045 2.50075954861109  2.5106026785715 2.8017578125  C 2.23642113095238 3.10275607638891  2.01134672619045 3.50889756944434  1.83537946428567 4.02018229166663  C 1.65941220238091 4.53146701388891  1.5714285714285 5.12109375  1.5714285714285 5.7890625  C 1.5714285714285 7.17447916666663  2.33668154761909 8.63823784722229  3.8671875 10.1803385416666  L 11 17.107421875  L 18.1205357142857 10.1927083333334  Z M 20.4408482142857 1.53385416666663  C 21.4802827380952 2.55642361111109  22 3.97482638888891  22 5.7890625  C 22 7.61154513888891  21.0628720238096 9.46701388888891  19.1886160714285 11.35546875  L 11.5401785714285 18.77734375  C 11.3928571428572 18.92578125  11.2127976190476 19  11 19  C 10.7872023809524 19  10.6071428571428 18.92578125  10.4598214285715 18.77734375  L 2.79910714285717 11.3307291666666  C 2.71726190476193 11.2647569444443  2.60472470238091 11.1575520833334  2.46149553571433 11.0091145833334  C 2.31826636904762 10.8606770833334  2.09114583333329 10.5906032986111  1.7801339285715 10.1988932291666  C 1.46912202380955 9.80718315972229  1.19084821428567 9.40516493055566  0.9453125 8.99283854166663  C 0.699776785714334 8.58051215277771  0.480840773809547 8.08159722222229  0.288504464285666 7.49609375  C 0.0961681547619264 6.91059027777771  0 6.34157986111109  0 5.7890625  C 0 3.97482638888891  0.519717261904788 2.55642361111109  1.55915178571433 1.53385416666663  C 2.5985863095238 0.511284722222285  4.03497023809521 0  5.8683035714285 0  C 6.37574404761909 0  6.8934151785715 0.0886501736110858  7.42131696428567 0.265950520833371  C 7.94921875 0.443250868055657  8.4402901785715 0.682400173611086  8.89453125 0.9833984375  C 9.3487723214285 1.28439670138891  9.73958333333329 1.56684027777771  10.0669642857143 1.83072916666663  C 10.3943452380952 2.09461805555566  10.7053571428572 2.375  11 2.671875  C 11.2946428571428 2.375  11.6056547619048 2.09461805555566  11.9330357142857 1.83072916666663  C 12.2604166666667 1.56684027777771  12.6512276785715 1.28439670138891  13.10546875 0.9833984375  C 13.5597098214285 0.682400173611086  14.05078125 0.443250868055657  14.5786830357143 0.265950520833371  C 15.1065848214285 0.0886501736110858  15.6242559523809 0  16.1316964285715 0  C 17.9650297619048 0  19.4014136904762 0.511284722222285  20.4408482142857 1.53385416666663  Z " fill-rule="nonzero" fill="#ffffff" stroke="none" transform="matrix(1 0 0 1 304 18 )" />
    <path d="M 18.1205357142857 10.1927083333334  C 19.6592261904762 8.64236111111109  20.4285714285715 7.17447916666663  20.4285714285715 5.7890625  C 20.4285714285715 5.12109375  20.3405877976191 4.53146701388891  20.1646205357143 4.02018229166663  C 19.9886532738096 3.50889756944434  19.7635788690476 3.10275607638891  19.4893973214285 2.8017578125  C 19.2152157738096 2.50075954861109  18.8816964285715 2.25542534722229  18.4888392857143 2.06575520833337  C 18.0959821428572 1.87608506944434  17.7113095238096 1.74826388888891  17.3348214285715 1.68229166666663  C 16.9583333333333 1.61631944444434  16.5572916666667 1.58333333333337  16.1316964285715 1.58333333333337  C 15.7061011904762 1.58333333333337  15.2477678571428 1.6884765625  14.7566964285715 1.89876302083337  C 14.265625 2.10904947916663  13.8134300595238 2.37293836805566  13.4001116071428 2.6904296875  C 12.9867931547619 3.00792100694434  12.6328125 3.30479600694434  12.3381696428572 3.5810546875  C 12.0435267857143 3.85731336805566  11.7979910714285 4.11089409722229  11.6015625 4.341796875  C 11.4542410714285 4.52322048611109  11.2537202380952 4.61393229166663  11 4.61393229166663  C 10.7462797619048 4.61393229166663  10.5457589285715 4.52322048611109  10.3984375 4.341796875  C 10.2020089285715 4.11089409722229  9.95647321428567 3.85731336805566  9.66183035714283 3.5810546875  C 9.3671875 3.30479600694434  9.01320684523807 3.00792100694434  8.59988839285717 2.6904296875  C 8.1865699404762 2.37293836805566  7.734375 2.10904947916663  7.2433035714285 1.89876302083337  C 6.75223214285717 1.6884765625  6.2938988095238 1.58333333333337  5.8683035714285 1.58333333333337  C 5.44270833333329 1.58333333333337  5.04166666666671 1.61631944444434  4.6651785714285 1.68229166666663  C 4.28869047619045 1.74826388888891  3.90401785714283 1.87608506944434  3.51116071428567 2.06575520833337  C 3.1183035714285 2.25542534722229  2.78478422619045 2.50075954861109  2.5106026785715 2.8017578125  C 2.23642113095238 3.10275607638891  2.01134672619045 3.50889756944434  1.83537946428567 4.02018229166663  C 1.65941220238091 4.53146701388891  1.5714285714285 5.12109375  1.5714285714285 5.7890625  C 1.5714285714285 7.17447916666663  2.33668154761909 8.63823784722229  3.8671875 10.1803385416666  L 11 17.107421875  L 18.1205357142857 10.1927083333334  Z " stroke-width="2" stroke="#797979" fill="none" transform="matrix(1 0 0 1 304 18 )" mask="url(#clip7)" />
    <path d="M 20.4408482142857 1.53385416666663  C 21.4802827380952 2.55642361111109  22 3.97482638888891  22 5.7890625  C 22 7.61154513888891  21.0628720238096 9.46701388888891  19.1886160714285 11.35546875  L 11.5401785714285 18.77734375  C 11.3928571428572 18.92578125  11.2127976190476 19  11 19  C 10.7872023809524 19  10.6071428571428 18.92578125  10.4598214285715 18.77734375  L 2.79910714285717 11.3307291666666  C 2.71726190476193 11.2647569444443  2.60472470238091 11.1575520833334  2.46149553571433 11.0091145833334  C 2.31826636904762 10.8606770833334  2.09114583333329 10.5906032986111  1.7801339285715 10.1988932291666  C 1.46912202380955 9.80718315972229  1.19084821428567 9.40516493055566  0.9453125 8.99283854166663  C 0.699776785714334 8.58051215277771  0.480840773809547 8.08159722222229  0.288504464285666 7.49609375  C 0.0961681547619264 6.91059027777771  0 6.34157986111109  0 5.7890625  C 0 3.97482638888891  0.519717261904788 2.55642361111109  1.55915178571433 1.53385416666663  C 2.5985863095238 0.511284722222285  4.03497023809521 0  5.8683035714285 0  C 6.37574404761909 0  6.8934151785715 0.0886501736110858  7.42131696428567 0.265950520833371  C 7.94921875 0.443250868055657  8.4402901785715 0.682400173611086  8.89453125 0.9833984375  C 9.3487723214285 1.28439670138891  9.73958333333329 1.56684027777771  10.0669642857143 1.83072916666663  C 10.3943452380952 2.09461805555566  10.7053571428572 2.375  11 2.671875  C 11.2946428571428 2.375  11.6056547619048 2.09461805555566  11.9330357142857 1.83072916666663  C 12.2604166666667 1.56684027777771  12.6512276785715 1.28439670138891  13.10546875 0.9833984375  C 13.5597098214285 0.682400173611086  14.05078125 0.443250868055657  14.5786830357143 0.265950520833371  C 15.1065848214285 0.0886501736110858  15.6242559523809 0  16.1316964285715 0  C 17.9650297619048 0  19.4014136904762 0.511284722222285  20.4408482142857 1.53385416666663  Z " stroke-width="2" stroke="#797979" fill="none" transform="matrix(1 0 0 1 304 18 )" mask="url(#clip7)" />
  </g>
</svg>