<svg id="Layer_1" data-name="Layer 1" xmlns="http://www.w3.org/2000/svg" width="64" height="64" viewBox="0 0 64 64"><defs><style>.cls-1{fill:#666;}</style></defs><title>happy_face</title><path class="cls-1" d="M31,60A27,27,0,1,0,4,33,27,27,0,0,0,31,60ZM31,8A25,25,0,1,1,6,33,25,25,0,0,1,31,8Z"/><path class="cls-1" d="M22,30a4,4,0,1,0-4-4A4,4,0,0,0,22,30Zm0-6a2,2,0,1,1-2,2A2,2,0,0,1,22,24Z"/><path class="cls-1" d="M40,30a4,4,0,1,0-4-4A4,4,0,0,0,40,30Zm0-6a2,2,0,1,1-2,2A2,2,0,0,1,40,24Z"/><path class="cls-1" d="M31,52A19,19,0,0,0,50,33a1,1,0,1,0-2,0,17,17,0,0,1-34,0,1,1,0,0,0-2,0A19,19,0,0,0,31,52Z"/></svg>