<?xml version="1.0" encoding="utf-8"?>
<!-- Generator: Adobe Illustrator 19.2.1, SVG Export Plug-In . SVG Version: 6.00 Build 0)  -->
<svg version="1.1" id="Layer_1" xmlns="http://www.w3.org/2000/svg" xmlns:xlink="http://www.w3.org/1999/xlink" x="0px" y="0px"
	 viewBox="0 0 64 64" style="enable-background:new 0 0 64 64;" xml:space="preserve">
<style type="text/css">
	.st0{fill:#666666;}
</style>
<title>telephone</title>
<g>
	<path class="st0" d="M58.84,46.8l-9-9c-1.55-1.51-4.03-1.51-5.58,0l-4.86,4.86c-0.41,0.31-0.93,0.45-1.44,0.4
		c-2.44,0-6.93-1.86-11-6c-2.28-2.24-4.08-4.92-5.28-7.88c-0.91-2.44-0.8-4.07-0.27-4.59l4.86-4.86c1.54-1.54,1.54-4.03,0.01-5.57
		c0,0-0.01-0.01-0.01-0.01l-9-9c-1.55-1.51-4.03-1.51-5.58,0l-5.21,5.2c-6,6-0.4,21.14,12.84,34.38C28.52,54,39.4,60,47,60
		c2.46,0.14,4.87-0.73,6.68-2.41l5.2-5.21c0.73-0.74,1.13-1.75,1.12-2.79C60,48.54,59.58,47.54,58.84,46.8z M57.43,51l-2.07,2
		l0.02,0.02l-3.18,3.17C50.77,57.46,48.9,58.11,47,58c-7.06,0-17.38-5.76-26.29-14.67c-12-12-17.91-26.48-12.84-31.56L11,8.64
		l2-2.05c0.76-0.76,1.99-0.76,2.75,0l9,9c0.76,0.76,0.76,1.98,0.01,2.74c0,0,0,0-0.01,0.01l-2.07,2.07l0.03,0.04L20,23.2
		c-1.25,1.24-1.31,3.69-0.19,6.7c1.28,3.23,3.22,6.16,5.69,8.6c3.91,3.91,8.91,6.5,12.44,6.5c1.05,0.06,2.08-0.3,2.86-1l2.77-2.76
		l0.02,0.02l2.07-2.07c0.77-0.73,1.98-0.73,2.75,0l9,9C58.18,48.96,58.19,50.22,57.43,51z"/>
</g>
</svg>
