<svg xmlns="http://www.w3.org/2000/svg" width="24" height="24" viewBox="0 0 24 24"><path d="M23.973 8.836c-.071-.201-.26-.336-.473-.336h-8.146l-2.883-8.166c-.071-.2-.26-.334-.471-.334-.213 0-.401.134-.472.334l-2.882 8.166h-8.146c-.213 0-.403.135-.473.336-.071.201-.004.426.164.557l6.723 5.283-2.889 8.666c-.069.207.004.435.18.563s.414.128.59-.001l7.205-5.284 7.204 5.283c.088.066.192.097.296.097s.206-.031.294-.096c.177-.128.249-.355.181-.563l-2.89-8.666 6.724-5.283c.168-.13.233-.355.164-.556z"/></svg>