<svg version="1" xmlns="http://www.w3.org/2000/svg" width="24" height="24" viewBox="0 0 24 24"><path d="M23.973 8.837c-.07-.202-.26-.337-.473-.337h-8.146l-2.882-8.166c-.141-.4-.803-.4-.943 0l-2.883 8.166h-8.146c-.213 0-.403.135-.473.337-.069.201-.004.425.164.557l6.723 5.282-2.889 8.666c-.068.207.004.434.18.562.176.127.415.128.591-.001l7.204-5.283 7.204 5.283c.088.065.192.097.296.097s.207-.032.295-.096c.176-.129.248-.355.18-.562l-2.889-8.666 6.723-5.282c.168-.132.233-.356.164-.557zm-7.782 5.269c-.166.131-.232.352-.166.552l2.504 7.51-6.233-4.571c-.088-.065-.192-.097-.296-.097s-.208.032-.296.097l-6.233 4.571 2.504-7.51c.066-.2 0-.421-.166-.552l-5.864-4.606h7.055c.212 0 .401-.134.472-.334l2.528-7.164 2.528 7.164c.071.2.26.334.472.334h7.055l-5.864 4.606z"/></svg>