<?xml version="1.0" encoding="utf-8"?>
<svg version="1.1" xmlns:xlink="http://www.w3.org/1999/xlink" width="18px" height="18px" xmlns="http://www.w3.org/2000/svg">
  <g transform="matrix(1 0 0 1 -311 0 )">
    <path d="M 320 0  C 325.04 0  329 3.96  329 9  C 329 14.04  325.04 18  320 18  C 314.96 18  311 14.04  311 9  C 311 3.96  314.96 0  320 0  Z " fill-rule="nonzero" fill="#ffffff" stroke="none" />
    <path d="M 320 0.5  C 324.76 0.5  328.5 4.24  328.5 9  C 328.5 13.76  324.76 17.5  320 17.5  C 315.24 17.5  311.5 13.76  311.5 9  C 311.5 4.24  315.24 0.5  320 0.5  Z " stroke-width="1" stroke="#cccccc" fill="none" />
  </g>
</svg>