<?xml version="1.0" encoding="utf-8"?>
<svg version="1.1" xmlns:xlink="http://www.w3.org/1999/xlink" width="53px" height="54px" xmlns="http://www.w3.org/2000/svg">
  <g transform="matrix(1 0 0 1 -620 -512 )">
    <path d="M 620 512  L 673 512  L 673 566  L 620 566  L 620 512  " fill-rule="nonzero" fill="#cccccc" stroke="none" />
    <path d="M 624 516  L 669 516  L 669 562  L 624 562  L 624 516  " fill-rule="nonzero" fill="#ffffff" stroke="none" />
    <path d="M 651.535 528.05  C 649.309 528.05  647.56 526.301  647.56 524.075  C 647.56 521.849  649.309 520.1  651.535 520.1  C 653.761 520.1  655.51 521.849  655.51 524.075  C 655.51 526.301  653.761 528.05  651.535 528.05  " fill-rule="nonzero" fill="#cccccc" stroke="none" />
    <path d="M 626 561  L 626 537.35  L 636.5 526.6  L 651.2 535.2  L 659.6 533.05  L 668 535.2  L 668 561  L 626 561  " fill-rule="nonzero" fill="#169bd5" stroke="none" />
  </g>
</svg>